M48
; DRILL file {KiCad 7.0.7} date Tue Sep 24 12:43:09 2024
; FORMAT={-:-/ absolute / inch / decimal}
; #@! TF.CreationDate,2024-09-24T12:43:09+02:00
; #@! TF.GenerationSoftware,Kicad,Pcbnew,7.0.7
; #@! TF.FileFunction,Plated,1,2,PTH
FMAT,2
INCH
; #@! TA.AperFunction,Plated,PTH,ViaDrill
T1C0.0157
; #@! TA.AperFunction,Plated,PTH,ComponentDrill
T2C0.0315
; #@! TA.AperFunction,Plated,PTH,ComponentDrill
T3C0.0354
; #@! TA.AperFunction,Plated,PTH,ComponentDrill
T4C0.0394
%
G90
G05
T1
X5.5512Y-3.3858
X5.5906Y-3.8976
X5.6299Y-3.2677
X5.689Y-3.3858
X5.7087Y-3.7992
X5.748Y-3.2677
T2
X5.4698Y-2.974
X5.4698Y-2.774
X5.5198Y-3.874
X5.5213Y-3.174
X5.6198Y-3.4283
X5.6198Y-3.6204
X5.7166Y-3.874
X5.7182Y-3.174
X5.7698Y-2.974
X5.7698Y-2.774
X5.9782Y-2.774
X5.9782Y-2.874
X5.9782Y-2.974
X5.9782Y-3.074
X5.9782Y-3.174
X5.9782Y-3.274
X5.9782Y-3.374
X5.9782Y-3.474
X5.9782Y-3.574
X5.9782Y-3.674
X5.9782Y-3.774
X5.9782Y-3.874
X5.9782Y-3.974
X5.9782Y-4.074
X6.2782Y-2.774
X6.2782Y-2.874
X6.2782Y-2.974
X6.2782Y-3.074
X6.2782Y-3.174
X6.2782Y-3.274
X6.2782Y-3.374
X6.2782Y-3.474
X6.2782Y-3.574
X6.2782Y-3.674
X6.2782Y-3.774
X6.2782Y-3.874
X6.2782Y-3.974
X6.2782Y-4.074
T3
X5.6198Y-4.074
X5.6198Y-4.174
T4
X4.9898Y-3.3126
X4.9898Y-3.4126
X4.9898Y-3.5126
X4.9898Y-3.6126
X4.9898Y-3.7126
X4.9898Y-3.8126
X4.9898Y-3.9126
X4.9898Y-4.0126
X4.9898Y-4.2126
X4.9898Y-4.3126
X4.9898Y-4.4126
X4.9898Y-4.5126
X4.9898Y-4.6126
X4.9898Y-4.7126
X6.8898Y-2.9528
X6.8898Y-3.0528
X6.8898Y-3.1528
X6.8898Y-3.2528
X6.8898Y-3.3528
X6.8898Y-3.4528
X6.8898Y-3.5528
X6.8898Y-3.6528
X6.8898Y-3.7528
X6.8898Y-3.8528
X6.8898Y-4.0126
X6.8898Y-4.1126
X6.8898Y-4.2126
X6.8898Y-4.3126
X6.8898Y-4.4126
X6.8898Y-4.5126
X6.8898Y-4.6126
X6.8898Y-4.7126
T0
M30
