%TF.GenerationSoftware,KiCad,Pcbnew,7.0.7*%
%TF.CreationDate,2024-09-24T12:43:06+02:00*%
%TF.ProjectId,ATMEGA Programmer,41544d45-4741-4205-9072-6f6772616d6d,rev?*%
%TF.SameCoordinates,Original*%
%TF.FileFunction,Soldermask,Top*%
%TF.FilePolarity,Negative*%
%FSLAX46Y46*%
G04 Gerber Fmt 4.6, Leading zero omitted, Abs format (unit mm)*
G04 Created by KiCad (PCBNEW 7.0.7) date 2024-09-24 12:43:06*
%MOMM*%
%LPD*%
G01*
G04 APERTURE LIST*
%ADD10C,3.000000*%
%ADD11C,2.000000*%
%ADD12R,2.400000X1.600000*%
%ADD13O,2.400000X1.600000*%
%ADD14C,1.600000*%
%ADD15O,1.600000X1.600000*%
%ADD16R,1.800000X1.800000*%
%ADD17C,1.800000*%
%ADD18C,1.500000*%
%ADD19R,1.600000X1.600000*%
G04 APERTURE END LIST*
D10*
%TO.C,A1*%
X136520000Y-55940000D02*
X127120000Y-55940000D01*
X177790000Y-55950000D02*
X168270000Y-55950000D01*
X177790000Y-55950000D02*
X177790000Y-120720000D01*
X168270000Y-55950000D02*
X156330000Y-55950000D01*
X156330000Y-55950000D02*
X136520000Y-55950000D01*
X127120000Y-55950000D02*
X123950000Y-55950000D01*
X177790000Y-120720000D02*
X176020000Y-122490000D01*
X176020000Y-122490000D02*
X164590000Y-122490000D01*
X164590000Y-122490000D02*
X162050000Y-125030000D01*
X126740000Y-122490000D02*
X123950000Y-122490000D01*
X123950000Y-122490000D02*
X123950000Y-55950000D01*
X162050000Y-125030000D02*
X129280000Y-125030000D01*
X129280000Y-125030000D02*
X126740000Y-122490000D01*
%TD*%
D11*
%TO.C,PD4/P6*%
X134868000Y-84375000D03*
%TD*%
%TO.C,PB5/P19*%
X166364001Y-100631000D03*
%TD*%
%TO.C,GND/P22*%
X166364002Y-88439000D03*
%TD*%
%TO.C,PD1/P3*%
X134868000Y-72183000D03*
%TD*%
D12*
%TO.C,J1*%
X151845999Y-70459000D03*
D13*
X151845999Y-72999000D03*
X151845999Y-75539000D03*
X151845999Y-78079000D03*
X151845999Y-80619000D03*
X151845999Y-83159000D03*
X151845999Y-85699000D03*
X151845999Y-88239000D03*
X151845999Y-90779000D03*
X151845999Y-93319000D03*
X151845999Y-95859000D03*
X151845999Y-98399000D03*
X151845999Y-100939000D03*
X151845999Y-103479000D03*
X159465999Y-103479000D03*
X159465999Y-100939000D03*
X159465999Y-98399000D03*
X159465999Y-95859000D03*
X159465999Y-93319000D03*
X159465999Y-90779000D03*
X159465999Y-88239000D03*
X159465999Y-85699000D03*
X159465999Y-83159000D03*
X159465999Y-80619000D03*
X159465999Y-78079000D03*
X159465999Y-75539000D03*
X159465999Y-72999000D03*
X159465999Y-70459000D03*
%TD*%
D11*
%TO.C,AVCC/P20*%
X166364001Y-96567000D03*
%TD*%
%TO.C,PC2/P24*%
X166364001Y-80311000D03*
%TD*%
%TO.C,PD5/P11*%
X134868001Y-104695000D03*
%TD*%
%TO.C,PCS/P28*%
X166364000Y-64055000D03*
%TD*%
%TO.C,PD0/P2*%
X134868003Y-68104999D03*
%TD*%
D14*
%TO.C,R2*%
X138932000Y-70459002D03*
D15*
X146552000Y-70459002D03*
%TD*%
D11*
%TO.C,PB3/P17*%
X166364001Y-108759000D03*
%TD*%
%TO.C,PB1/P15*%
X166364002Y-116887000D03*
%TD*%
%TO.C,PD2/P4*%
X134868000Y-76247000D03*
%TD*%
%TO.C,AREF/P21*%
X166364001Y-92503000D03*
%TD*%
%TO.C,PB6/P9*%
X134868002Y-96567000D03*
%TD*%
%TO.C,PD4/P27*%
X166364001Y-68104999D03*
%TD*%
%TO.C,PD6/P12*%
X134868000Y-108759000D03*
%TD*%
%TO.C,PD3/P26*%
X166364003Y-72183000D03*
%TD*%
D14*
%TO.C,C1*%
X140242000Y-80619001D03*
X145242000Y-80619001D03*
%TD*%
D11*
%TO.C,PB4/P18*%
X166364002Y-104695000D03*
%TD*%
D14*
%TO.C,R1*%
X146551998Y-75538999D03*
D15*
X138931998Y-75538999D03*
%TD*%
D11*
%TO.C,PB0/P14*%
X134868002Y-116887000D03*
%TD*%
%TO.C,PC6/P1*%
X134868000Y-64055000D03*
%TD*%
%TO.C,PCO/P23*%
X166364001Y-84375000D03*
%TD*%
%TO.C,VCC/P7*%
X134868000Y-88439000D03*
%TD*%
%TO.C,PB2/P16*%
X166364002Y-112823000D03*
%TD*%
%TO.C,PD3/P5*%
X134868000Y-80311000D03*
%TD*%
D16*
%TO.C,D1*%
X142742000Y-106019000D03*
D17*
X142742000Y-103479000D03*
%TD*%
D11*
%TO.C,PD7/P13*%
X134868003Y-112823000D03*
%TD*%
D18*
%TO.C,Y1*%
X142742000Y-91959000D03*
X142742000Y-87079000D03*
%TD*%
D11*
%TO.C,PC3/P25*%
X166364003Y-76247000D03*
%TD*%
D14*
%TO.C,C2*%
X140201999Y-98399000D03*
X145201999Y-98399000D03*
%TD*%
D11*
%TO.C,PB7/P10*%
X134868000Y-100631000D03*
%TD*%
%TO.C,GND/P8*%
X134867999Y-92503000D03*
%TD*%
D19*
%TO.C,A1*%
X126740000Y-84140000D03*
D15*
X126740000Y-86680000D03*
X126740000Y-89220000D03*
X126740000Y-91760000D03*
X126740000Y-94300000D03*
X126740000Y-96840000D03*
X126740000Y-99380000D03*
X126740000Y-101920000D03*
X126740000Y-107000000D03*
X126740000Y-109540000D03*
X126740000Y-112080000D03*
X126740000Y-114620000D03*
X126740000Y-117160000D03*
X126740000Y-119700000D03*
X175000000Y-119700000D03*
X175000000Y-117160000D03*
X175000000Y-114620000D03*
X175000000Y-112080000D03*
X175000000Y-109540000D03*
X175000000Y-107000000D03*
X175000000Y-104460000D03*
X175000000Y-101920000D03*
X175000000Y-97860000D03*
X175000000Y-95320000D03*
X175000000Y-92780000D03*
X175000000Y-90240000D03*
X175000000Y-87700000D03*
X175000000Y-85160000D03*
X175000000Y-82620000D03*
X175000000Y-80080000D03*
X175000000Y-77540000D03*
X175000000Y-75000000D03*
%TD*%
M02*
