%TF.GenerationSoftware,KiCad,Pcbnew,7.0.7*%
%TF.CreationDate,2024-09-24T12:43:05+02:00*%
%TF.ProjectId,ATMEGA Programmer,41544d45-4741-4205-9072-6f6772616d6d,rev?*%
%TF.SameCoordinates,Original*%
%TF.FileFunction,Legend,Top*%
%TF.FilePolarity,Positive*%
%FSLAX46Y46*%
G04 Gerber Fmt 4.6, Leading zero omitted, Abs format (unit mm)*
G04 Created by KiCad (PCBNEW 7.0.7) date 2024-09-24 12:43:05*
%MOMM*%
%LPD*%
G01*
G04 APERTURE LIST*
%ADD10C,0.150000*%
%ADD11C,0.200000*%
%ADD12C,0.120000*%
%ADD13C,0.010000*%
G04 APERTURE END LIST*
D10*
X135050112Y-121810414D02*
X135478684Y-121810414D01*
X135264398Y-122560414D02*
X135264398Y-121810414D01*
X135728684Y-122560414D02*
X135728684Y-121810414D01*
X136050113Y-122560414D02*
X136050113Y-122167557D01*
X136050113Y-122167557D02*
X136014398Y-122096128D01*
X136014398Y-122096128D02*
X135942970Y-122060414D01*
X135942970Y-122060414D02*
X135835827Y-122060414D01*
X135835827Y-122060414D02*
X135764398Y-122096128D01*
X135764398Y-122096128D02*
X135728684Y-122131842D01*
X136692969Y-122524700D02*
X136621541Y-122560414D01*
X136621541Y-122560414D02*
X136478684Y-122560414D01*
X136478684Y-122560414D02*
X136407255Y-122524700D01*
X136407255Y-122524700D02*
X136371541Y-122453271D01*
X136371541Y-122453271D02*
X136371541Y-122167557D01*
X136371541Y-122167557D02*
X136407255Y-122096128D01*
X136407255Y-122096128D02*
X136478684Y-122060414D01*
X136478684Y-122060414D02*
X136621541Y-122060414D01*
X136621541Y-122060414D02*
X136692969Y-122096128D01*
X136692969Y-122096128D02*
X136728684Y-122167557D01*
X136728684Y-122167557D02*
X136728684Y-122238985D01*
X136728684Y-122238985D02*
X136371541Y-122310414D01*
X137871541Y-122167557D02*
X137978684Y-122203271D01*
X137978684Y-122203271D02*
X138014398Y-122238985D01*
X138014398Y-122238985D02*
X138050112Y-122310414D01*
X138050112Y-122310414D02*
X138050112Y-122417557D01*
X138050112Y-122417557D02*
X138014398Y-122488985D01*
X138014398Y-122488985D02*
X137978684Y-122524700D01*
X137978684Y-122524700D02*
X137907255Y-122560414D01*
X137907255Y-122560414D02*
X137621541Y-122560414D01*
X137621541Y-122560414D02*
X137621541Y-121810414D01*
X137621541Y-121810414D02*
X137871541Y-121810414D01*
X137871541Y-121810414D02*
X137942970Y-121846128D01*
X137942970Y-121846128D02*
X137978684Y-121881842D01*
X137978684Y-121881842D02*
X138014398Y-121953271D01*
X138014398Y-121953271D02*
X138014398Y-122024700D01*
X138014398Y-122024700D02*
X137978684Y-122096128D01*
X137978684Y-122096128D02*
X137942970Y-122131842D01*
X137942970Y-122131842D02*
X137871541Y-122167557D01*
X137871541Y-122167557D02*
X137621541Y-122167557D01*
X138478684Y-122560414D02*
X138407255Y-122524700D01*
X138407255Y-122524700D02*
X138371541Y-122488985D01*
X138371541Y-122488985D02*
X138335827Y-122417557D01*
X138335827Y-122417557D02*
X138335827Y-122203271D01*
X138335827Y-122203271D02*
X138371541Y-122131842D01*
X138371541Y-122131842D02*
X138407255Y-122096128D01*
X138407255Y-122096128D02*
X138478684Y-122060414D01*
X138478684Y-122060414D02*
X138585827Y-122060414D01*
X138585827Y-122060414D02*
X138657255Y-122096128D01*
X138657255Y-122096128D02*
X138692970Y-122131842D01*
X138692970Y-122131842D02*
X138728684Y-122203271D01*
X138728684Y-122203271D02*
X138728684Y-122417557D01*
X138728684Y-122417557D02*
X138692970Y-122488985D01*
X138692970Y-122488985D02*
X138657255Y-122524700D01*
X138657255Y-122524700D02*
X138585827Y-122560414D01*
X138585827Y-122560414D02*
X138478684Y-122560414D01*
X139371541Y-122560414D02*
X139371541Y-122167557D01*
X139371541Y-122167557D02*
X139335826Y-122096128D01*
X139335826Y-122096128D02*
X139264398Y-122060414D01*
X139264398Y-122060414D02*
X139121541Y-122060414D01*
X139121541Y-122060414D02*
X139050112Y-122096128D01*
X139371541Y-122524700D02*
X139300112Y-122560414D01*
X139300112Y-122560414D02*
X139121541Y-122560414D01*
X139121541Y-122560414D02*
X139050112Y-122524700D01*
X139050112Y-122524700D02*
X139014398Y-122453271D01*
X139014398Y-122453271D02*
X139014398Y-122381842D01*
X139014398Y-122381842D02*
X139050112Y-122310414D01*
X139050112Y-122310414D02*
X139121541Y-122274700D01*
X139121541Y-122274700D02*
X139300112Y-122274700D01*
X139300112Y-122274700D02*
X139371541Y-122238985D01*
X139728683Y-122560414D02*
X139728683Y-122060414D01*
X139728683Y-122203271D02*
X139764397Y-122131842D01*
X139764397Y-122131842D02*
X139800112Y-122096128D01*
X139800112Y-122096128D02*
X139871540Y-122060414D01*
X139871540Y-122060414D02*
X139942969Y-122060414D01*
X140514398Y-122560414D02*
X140514398Y-121810414D01*
X140514398Y-122524700D02*
X140442969Y-122560414D01*
X140442969Y-122560414D02*
X140300112Y-122560414D01*
X140300112Y-122560414D02*
X140228683Y-122524700D01*
X140228683Y-122524700D02*
X140192969Y-122488985D01*
X140192969Y-122488985D02*
X140157255Y-122417557D01*
X140157255Y-122417557D02*
X140157255Y-122203271D01*
X140157255Y-122203271D02*
X140192969Y-122131842D01*
X140192969Y-122131842D02*
X140228683Y-122096128D01*
X140228683Y-122096128D02*
X140300112Y-122060414D01*
X140300112Y-122060414D02*
X140442969Y-122060414D01*
X140442969Y-122060414D02*
X140514398Y-122096128D01*
X141442969Y-122560414D02*
X141442969Y-121810414D01*
X141442969Y-121810414D02*
X141621540Y-121810414D01*
X141621540Y-121810414D02*
X141728683Y-121846128D01*
X141728683Y-121846128D02*
X141800112Y-121917557D01*
X141800112Y-121917557D02*
X141835826Y-121988985D01*
X141835826Y-121988985D02*
X141871540Y-122131842D01*
X141871540Y-122131842D02*
X141871540Y-122238985D01*
X141871540Y-122238985D02*
X141835826Y-122381842D01*
X141835826Y-122381842D02*
X141800112Y-122453271D01*
X141800112Y-122453271D02*
X141728683Y-122524700D01*
X141728683Y-122524700D02*
X141621540Y-122560414D01*
X141621540Y-122560414D02*
X141442969Y-122560414D01*
X142478683Y-122524700D02*
X142407255Y-122560414D01*
X142407255Y-122560414D02*
X142264398Y-122560414D01*
X142264398Y-122560414D02*
X142192969Y-122524700D01*
X142192969Y-122524700D02*
X142157255Y-122453271D01*
X142157255Y-122453271D02*
X142157255Y-122167557D01*
X142157255Y-122167557D02*
X142192969Y-122096128D01*
X142192969Y-122096128D02*
X142264398Y-122060414D01*
X142264398Y-122060414D02*
X142407255Y-122060414D01*
X142407255Y-122060414D02*
X142478683Y-122096128D01*
X142478683Y-122096128D02*
X142514398Y-122167557D01*
X142514398Y-122167557D02*
X142514398Y-122238985D01*
X142514398Y-122238985D02*
X142157255Y-122310414D01*
X142800112Y-122524700D02*
X142871540Y-122560414D01*
X142871540Y-122560414D02*
X143014397Y-122560414D01*
X143014397Y-122560414D02*
X143085826Y-122524700D01*
X143085826Y-122524700D02*
X143121540Y-122453271D01*
X143121540Y-122453271D02*
X143121540Y-122417557D01*
X143121540Y-122417557D02*
X143085826Y-122346128D01*
X143085826Y-122346128D02*
X143014397Y-122310414D01*
X143014397Y-122310414D02*
X142907255Y-122310414D01*
X142907255Y-122310414D02*
X142835826Y-122274700D01*
X142835826Y-122274700D02*
X142800112Y-122203271D01*
X142800112Y-122203271D02*
X142800112Y-122167557D01*
X142800112Y-122167557D02*
X142835826Y-122096128D01*
X142835826Y-122096128D02*
X142907255Y-122060414D01*
X142907255Y-122060414D02*
X143014397Y-122060414D01*
X143014397Y-122060414D02*
X143085826Y-122096128D01*
X143442969Y-122560414D02*
X143442969Y-122060414D01*
X143442969Y-121810414D02*
X143407255Y-121846128D01*
X143407255Y-121846128D02*
X143442969Y-121881842D01*
X143442969Y-121881842D02*
X143478683Y-121846128D01*
X143478683Y-121846128D02*
X143442969Y-121810414D01*
X143442969Y-121810414D02*
X143442969Y-121881842D01*
X144121541Y-122060414D02*
X144121541Y-122667557D01*
X144121541Y-122667557D02*
X144085826Y-122738985D01*
X144085826Y-122738985D02*
X144050112Y-122774700D01*
X144050112Y-122774700D02*
X143978683Y-122810414D01*
X143978683Y-122810414D02*
X143871541Y-122810414D01*
X143871541Y-122810414D02*
X143800112Y-122774700D01*
X144121541Y-122524700D02*
X144050112Y-122560414D01*
X144050112Y-122560414D02*
X143907255Y-122560414D01*
X143907255Y-122560414D02*
X143835826Y-122524700D01*
X143835826Y-122524700D02*
X143800112Y-122488985D01*
X143800112Y-122488985D02*
X143764398Y-122417557D01*
X143764398Y-122417557D02*
X143764398Y-122203271D01*
X143764398Y-122203271D02*
X143800112Y-122131842D01*
X143800112Y-122131842D02*
X143835826Y-122096128D01*
X143835826Y-122096128D02*
X143907255Y-122060414D01*
X143907255Y-122060414D02*
X144050112Y-122060414D01*
X144050112Y-122060414D02*
X144121541Y-122096128D01*
X144478683Y-122060414D02*
X144478683Y-122560414D01*
X144478683Y-122131842D02*
X144514397Y-122096128D01*
X144514397Y-122096128D02*
X144585826Y-122060414D01*
X144585826Y-122060414D02*
X144692969Y-122060414D01*
X144692969Y-122060414D02*
X144764397Y-122096128D01*
X144764397Y-122096128D02*
X144800112Y-122167557D01*
X144800112Y-122167557D02*
X144800112Y-122560414D01*
X145728683Y-122560414D02*
X145728683Y-121810414D01*
X145728683Y-122096128D02*
X145800112Y-122060414D01*
X145800112Y-122060414D02*
X145942969Y-122060414D01*
X145942969Y-122060414D02*
X146014397Y-122096128D01*
X146014397Y-122096128D02*
X146050112Y-122131842D01*
X146050112Y-122131842D02*
X146085826Y-122203271D01*
X146085826Y-122203271D02*
X146085826Y-122417557D01*
X146085826Y-122417557D02*
X146050112Y-122488985D01*
X146050112Y-122488985D02*
X146014397Y-122524700D01*
X146014397Y-122524700D02*
X145942969Y-122560414D01*
X145942969Y-122560414D02*
X145800112Y-122560414D01*
X145800112Y-122560414D02*
X145728683Y-122524700D01*
X146335825Y-122060414D02*
X146514397Y-122560414D01*
X146692968Y-122060414D02*
X146514397Y-122560414D01*
X146514397Y-122560414D02*
X146442968Y-122738985D01*
X146442968Y-122738985D02*
X146407254Y-122774700D01*
X146407254Y-122774700D02*
X146335825Y-122810414D01*
X147764398Y-121810414D02*
X147764398Y-122346128D01*
X147764398Y-122346128D02*
X147728683Y-122453271D01*
X147728683Y-122453271D02*
X147657255Y-122524700D01*
X147657255Y-122524700D02*
X147550112Y-122560414D01*
X147550112Y-122560414D02*
X147478683Y-122560414D01*
X148442970Y-122560414D02*
X148442970Y-122167557D01*
X148442970Y-122167557D02*
X148407255Y-122096128D01*
X148407255Y-122096128D02*
X148335827Y-122060414D01*
X148335827Y-122060414D02*
X148192970Y-122060414D01*
X148192970Y-122060414D02*
X148121541Y-122096128D01*
X148442970Y-122524700D02*
X148371541Y-122560414D01*
X148371541Y-122560414D02*
X148192970Y-122560414D01*
X148192970Y-122560414D02*
X148121541Y-122524700D01*
X148121541Y-122524700D02*
X148085827Y-122453271D01*
X148085827Y-122453271D02*
X148085827Y-122381842D01*
X148085827Y-122381842D02*
X148121541Y-122310414D01*
X148121541Y-122310414D02*
X148192970Y-122274700D01*
X148192970Y-122274700D02*
X148371541Y-122274700D01*
X148371541Y-122274700D02*
X148442970Y-122238985D01*
X149121541Y-122524700D02*
X149050112Y-122560414D01*
X149050112Y-122560414D02*
X148907255Y-122560414D01*
X148907255Y-122560414D02*
X148835826Y-122524700D01*
X148835826Y-122524700D02*
X148800112Y-122488985D01*
X148800112Y-122488985D02*
X148764398Y-122417557D01*
X148764398Y-122417557D02*
X148764398Y-122203271D01*
X148764398Y-122203271D02*
X148800112Y-122131842D01*
X148800112Y-122131842D02*
X148835826Y-122096128D01*
X148835826Y-122096128D02*
X148907255Y-122060414D01*
X148907255Y-122060414D02*
X149050112Y-122060414D01*
X149050112Y-122060414D02*
X149121541Y-122096128D01*
X149764398Y-122060414D02*
X149764398Y-122810414D01*
X149764398Y-122524700D02*
X149692969Y-122560414D01*
X149692969Y-122560414D02*
X149550112Y-122560414D01*
X149550112Y-122560414D02*
X149478683Y-122524700D01*
X149478683Y-122524700D02*
X149442969Y-122488985D01*
X149442969Y-122488985D02*
X149407255Y-122417557D01*
X149407255Y-122417557D02*
X149407255Y-122203271D01*
X149407255Y-122203271D02*
X149442969Y-122131842D01*
X149442969Y-122131842D02*
X149478683Y-122096128D01*
X149478683Y-122096128D02*
X149550112Y-122060414D01*
X149550112Y-122060414D02*
X149692969Y-122060414D01*
X149692969Y-122060414D02*
X149764398Y-122096128D01*
X150442969Y-122060414D02*
X150442969Y-122560414D01*
X150121540Y-122060414D02*
X150121540Y-122453271D01*
X150121540Y-122453271D02*
X150157254Y-122524700D01*
X150157254Y-122524700D02*
X150228683Y-122560414D01*
X150228683Y-122560414D02*
X150335826Y-122560414D01*
X150335826Y-122560414D02*
X150407254Y-122524700D01*
X150407254Y-122524700D02*
X150442969Y-122488985D01*
X151085825Y-122524700D02*
X151014397Y-122560414D01*
X151014397Y-122560414D02*
X150871540Y-122560414D01*
X150871540Y-122560414D02*
X150800111Y-122524700D01*
X150800111Y-122524700D02*
X150764397Y-122453271D01*
X150764397Y-122453271D02*
X150764397Y-122167557D01*
X150764397Y-122167557D02*
X150800111Y-122096128D01*
X150800111Y-122096128D02*
X150871540Y-122060414D01*
X150871540Y-122060414D02*
X151014397Y-122060414D01*
X151014397Y-122060414D02*
X151085825Y-122096128D01*
X151085825Y-122096128D02*
X151121540Y-122167557D01*
X151121540Y-122167557D02*
X151121540Y-122238985D01*
X151121540Y-122238985D02*
X150764397Y-122310414D01*
X151407254Y-122524700D02*
X151478682Y-122560414D01*
X151478682Y-122560414D02*
X151621539Y-122560414D01*
X151621539Y-122560414D02*
X151692968Y-122524700D01*
X151692968Y-122524700D02*
X151728682Y-122453271D01*
X151728682Y-122453271D02*
X151728682Y-122417557D01*
X151728682Y-122417557D02*
X151692968Y-122346128D01*
X151692968Y-122346128D02*
X151621539Y-122310414D01*
X151621539Y-122310414D02*
X151514397Y-122310414D01*
X151514397Y-122310414D02*
X151442968Y-122274700D01*
X151442968Y-122274700D02*
X151407254Y-122203271D01*
X151407254Y-122203271D02*
X151407254Y-122167557D01*
X151407254Y-122167557D02*
X151442968Y-122096128D01*
X151442968Y-122096128D02*
X151514397Y-122060414D01*
X151514397Y-122060414D02*
X151621539Y-122060414D01*
X151621539Y-122060414D02*
X151692968Y-122096128D01*
X152585826Y-122524700D02*
X152692969Y-122560414D01*
X152692969Y-122560414D02*
X152871540Y-122560414D01*
X152871540Y-122560414D02*
X152942969Y-122524700D01*
X152942969Y-122524700D02*
X152978683Y-122488985D01*
X152978683Y-122488985D02*
X153014397Y-122417557D01*
X153014397Y-122417557D02*
X153014397Y-122346128D01*
X153014397Y-122346128D02*
X152978683Y-122274700D01*
X152978683Y-122274700D02*
X152942969Y-122238985D01*
X152942969Y-122238985D02*
X152871540Y-122203271D01*
X152871540Y-122203271D02*
X152728683Y-122167557D01*
X152728683Y-122167557D02*
X152657254Y-122131842D01*
X152657254Y-122131842D02*
X152621540Y-122096128D01*
X152621540Y-122096128D02*
X152585826Y-122024700D01*
X152585826Y-122024700D02*
X152585826Y-121953271D01*
X152585826Y-121953271D02*
X152621540Y-121881842D01*
X152621540Y-121881842D02*
X152657254Y-121846128D01*
X152657254Y-121846128D02*
X152728683Y-121810414D01*
X152728683Y-121810414D02*
X152907254Y-121810414D01*
X152907254Y-121810414D02*
X153014397Y-121846128D01*
X153228683Y-122060414D02*
X153514397Y-122060414D01*
X153335826Y-121810414D02*
X153335826Y-122453271D01*
X153335826Y-122453271D02*
X153371540Y-122524700D01*
X153371540Y-122524700D02*
X153442969Y-122560414D01*
X153442969Y-122560414D02*
X153514397Y-122560414D01*
X153871540Y-122560414D02*
X153800111Y-122524700D01*
X153800111Y-122524700D02*
X153764397Y-122488985D01*
X153764397Y-122488985D02*
X153728683Y-122417557D01*
X153728683Y-122417557D02*
X153728683Y-122203271D01*
X153728683Y-122203271D02*
X153764397Y-122131842D01*
X153764397Y-122131842D02*
X153800111Y-122096128D01*
X153800111Y-122096128D02*
X153871540Y-122060414D01*
X153871540Y-122060414D02*
X153978683Y-122060414D01*
X153978683Y-122060414D02*
X154050111Y-122096128D01*
X154050111Y-122096128D02*
X154085826Y-122131842D01*
X154085826Y-122131842D02*
X154121540Y-122203271D01*
X154121540Y-122203271D02*
X154121540Y-122417557D01*
X154121540Y-122417557D02*
X154085826Y-122488985D01*
X154085826Y-122488985D02*
X154050111Y-122524700D01*
X154050111Y-122524700D02*
X153978683Y-122560414D01*
X153978683Y-122560414D02*
X153871540Y-122560414D01*
X154442968Y-122560414D02*
X154442968Y-121810414D01*
X154442968Y-122096128D02*
X154514397Y-122060414D01*
X154514397Y-122060414D02*
X154657254Y-122060414D01*
X154657254Y-122060414D02*
X154728682Y-122096128D01*
X154728682Y-122096128D02*
X154764397Y-122131842D01*
X154764397Y-122131842D02*
X154800111Y-122203271D01*
X154800111Y-122203271D02*
X154800111Y-122417557D01*
X154800111Y-122417557D02*
X154764397Y-122488985D01*
X154764397Y-122488985D02*
X154728682Y-122524700D01*
X154728682Y-122524700D02*
X154657254Y-122560414D01*
X154657254Y-122560414D02*
X154514397Y-122560414D01*
X154514397Y-122560414D02*
X154442968Y-122524700D01*
X155407253Y-122524700D02*
X155335825Y-122560414D01*
X155335825Y-122560414D02*
X155192968Y-122560414D01*
X155192968Y-122560414D02*
X155121539Y-122524700D01*
X155121539Y-122524700D02*
X155085825Y-122453271D01*
X155085825Y-122453271D02*
X155085825Y-122167557D01*
X155085825Y-122167557D02*
X155121539Y-122096128D01*
X155121539Y-122096128D02*
X155192968Y-122060414D01*
X155192968Y-122060414D02*
X155335825Y-122060414D01*
X155335825Y-122060414D02*
X155407253Y-122096128D01*
X155407253Y-122096128D02*
X155442968Y-122167557D01*
X155442968Y-122167557D02*
X155442968Y-122238985D01*
X155442968Y-122238985D02*
X155085825Y-122310414D01*
X155764396Y-122560414D02*
X155764396Y-122060414D01*
X155764396Y-122203271D02*
X155800110Y-122131842D01*
X155800110Y-122131842D02*
X155835825Y-122096128D01*
X155835825Y-122096128D02*
X155907253Y-122060414D01*
X155907253Y-122060414D02*
X155978682Y-122060414D01*
D11*
X138650816Y-59874219D02*
X139222244Y-59874219D01*
X138936530Y-60874219D02*
X138936530Y-59874219D01*
X139555578Y-60874219D02*
X139555578Y-59874219D01*
X139984149Y-60874219D02*
X139984149Y-60350409D01*
X139984149Y-60350409D02*
X139936530Y-60255171D01*
X139936530Y-60255171D02*
X139841292Y-60207552D01*
X139841292Y-60207552D02*
X139698435Y-60207552D01*
X139698435Y-60207552D02*
X139603197Y-60255171D01*
X139603197Y-60255171D02*
X139555578Y-60302790D01*
X140841292Y-60826600D02*
X140746054Y-60874219D01*
X140746054Y-60874219D02*
X140555578Y-60874219D01*
X140555578Y-60874219D02*
X140460340Y-60826600D01*
X140460340Y-60826600D02*
X140412721Y-60731361D01*
X140412721Y-60731361D02*
X140412721Y-60350409D01*
X140412721Y-60350409D02*
X140460340Y-60255171D01*
X140460340Y-60255171D02*
X140555578Y-60207552D01*
X140555578Y-60207552D02*
X140746054Y-60207552D01*
X140746054Y-60207552D02*
X140841292Y-60255171D01*
X140841292Y-60255171D02*
X140888911Y-60350409D01*
X140888911Y-60350409D02*
X140888911Y-60445647D01*
X140888911Y-60445647D02*
X140412721Y-60540885D01*
X142412721Y-60350409D02*
X142555578Y-60398028D01*
X142555578Y-60398028D02*
X142603197Y-60445647D01*
X142603197Y-60445647D02*
X142650816Y-60540885D01*
X142650816Y-60540885D02*
X142650816Y-60683742D01*
X142650816Y-60683742D02*
X142603197Y-60778980D01*
X142603197Y-60778980D02*
X142555578Y-60826600D01*
X142555578Y-60826600D02*
X142460340Y-60874219D01*
X142460340Y-60874219D02*
X142079388Y-60874219D01*
X142079388Y-60874219D02*
X142079388Y-59874219D01*
X142079388Y-59874219D02*
X142412721Y-59874219D01*
X142412721Y-59874219D02*
X142507959Y-59921838D01*
X142507959Y-59921838D02*
X142555578Y-59969457D01*
X142555578Y-59969457D02*
X142603197Y-60064695D01*
X142603197Y-60064695D02*
X142603197Y-60159933D01*
X142603197Y-60159933D02*
X142555578Y-60255171D01*
X142555578Y-60255171D02*
X142507959Y-60302790D01*
X142507959Y-60302790D02*
X142412721Y-60350409D01*
X142412721Y-60350409D02*
X142079388Y-60350409D01*
X143222245Y-60874219D02*
X143127007Y-60826600D01*
X143127007Y-60826600D02*
X143079388Y-60778980D01*
X143079388Y-60778980D02*
X143031769Y-60683742D01*
X143031769Y-60683742D02*
X143031769Y-60398028D01*
X143031769Y-60398028D02*
X143079388Y-60302790D01*
X143079388Y-60302790D02*
X143127007Y-60255171D01*
X143127007Y-60255171D02*
X143222245Y-60207552D01*
X143222245Y-60207552D02*
X143365102Y-60207552D01*
X143365102Y-60207552D02*
X143460340Y-60255171D01*
X143460340Y-60255171D02*
X143507959Y-60302790D01*
X143507959Y-60302790D02*
X143555578Y-60398028D01*
X143555578Y-60398028D02*
X143555578Y-60683742D01*
X143555578Y-60683742D02*
X143507959Y-60778980D01*
X143507959Y-60778980D02*
X143460340Y-60826600D01*
X143460340Y-60826600D02*
X143365102Y-60874219D01*
X143365102Y-60874219D02*
X143222245Y-60874219D01*
X144127007Y-60874219D02*
X144031769Y-60826600D01*
X144031769Y-60826600D02*
X143984150Y-60778980D01*
X143984150Y-60778980D02*
X143936531Y-60683742D01*
X143936531Y-60683742D02*
X143936531Y-60398028D01*
X143936531Y-60398028D02*
X143984150Y-60302790D01*
X143984150Y-60302790D02*
X144031769Y-60255171D01*
X144031769Y-60255171D02*
X144127007Y-60207552D01*
X144127007Y-60207552D02*
X144269864Y-60207552D01*
X144269864Y-60207552D02*
X144365102Y-60255171D01*
X144365102Y-60255171D02*
X144412721Y-60302790D01*
X144412721Y-60302790D02*
X144460340Y-60398028D01*
X144460340Y-60398028D02*
X144460340Y-60683742D01*
X144460340Y-60683742D02*
X144412721Y-60778980D01*
X144412721Y-60778980D02*
X144365102Y-60826600D01*
X144365102Y-60826600D02*
X144269864Y-60874219D01*
X144269864Y-60874219D02*
X144127007Y-60874219D01*
X145317483Y-60874219D02*
X145317483Y-59874219D01*
X145317483Y-60826600D02*
X145222245Y-60874219D01*
X145222245Y-60874219D02*
X145031769Y-60874219D01*
X145031769Y-60874219D02*
X144936531Y-60826600D01*
X144936531Y-60826600D02*
X144888912Y-60778980D01*
X144888912Y-60778980D02*
X144841293Y-60683742D01*
X144841293Y-60683742D02*
X144841293Y-60398028D01*
X144841293Y-60398028D02*
X144888912Y-60302790D01*
X144888912Y-60302790D02*
X144936531Y-60255171D01*
X144936531Y-60255171D02*
X145031769Y-60207552D01*
X145031769Y-60207552D02*
X145222245Y-60207552D01*
X145222245Y-60207552D02*
X145317483Y-60255171D01*
X145936531Y-60874219D02*
X145841293Y-60826600D01*
X145841293Y-60826600D02*
X145793674Y-60731361D01*
X145793674Y-60731361D02*
X145793674Y-59874219D01*
X146460341Y-60874219D02*
X146365103Y-60826600D01*
X146365103Y-60826600D02*
X146317484Y-60778980D01*
X146317484Y-60778980D02*
X146269865Y-60683742D01*
X146269865Y-60683742D02*
X146269865Y-60398028D01*
X146269865Y-60398028D02*
X146317484Y-60302790D01*
X146317484Y-60302790D02*
X146365103Y-60255171D01*
X146365103Y-60255171D02*
X146460341Y-60207552D01*
X146460341Y-60207552D02*
X146603198Y-60207552D01*
X146603198Y-60207552D02*
X146698436Y-60255171D01*
X146698436Y-60255171D02*
X146746055Y-60302790D01*
X146746055Y-60302790D02*
X146793674Y-60398028D01*
X146793674Y-60398028D02*
X146793674Y-60683742D01*
X146793674Y-60683742D02*
X146746055Y-60778980D01*
X146746055Y-60778980D02*
X146698436Y-60826600D01*
X146698436Y-60826600D02*
X146603198Y-60874219D01*
X146603198Y-60874219D02*
X146460341Y-60874219D01*
X147650817Y-60874219D02*
X147650817Y-60350409D01*
X147650817Y-60350409D02*
X147603198Y-60255171D01*
X147603198Y-60255171D02*
X147507960Y-60207552D01*
X147507960Y-60207552D02*
X147317484Y-60207552D01*
X147317484Y-60207552D02*
X147222246Y-60255171D01*
X147650817Y-60826600D02*
X147555579Y-60874219D01*
X147555579Y-60874219D02*
X147317484Y-60874219D01*
X147317484Y-60874219D02*
X147222246Y-60826600D01*
X147222246Y-60826600D02*
X147174627Y-60731361D01*
X147174627Y-60731361D02*
X147174627Y-60636123D01*
X147174627Y-60636123D02*
X147222246Y-60540885D01*
X147222246Y-60540885D02*
X147317484Y-60493266D01*
X147317484Y-60493266D02*
X147555579Y-60493266D01*
X147555579Y-60493266D02*
X147650817Y-60445647D01*
X148555579Y-60874219D02*
X148555579Y-59874219D01*
X148555579Y-60826600D02*
X148460341Y-60874219D01*
X148460341Y-60874219D02*
X148269865Y-60874219D01*
X148269865Y-60874219D02*
X148174627Y-60826600D01*
X148174627Y-60826600D02*
X148127008Y-60778980D01*
X148127008Y-60778980D02*
X148079389Y-60683742D01*
X148079389Y-60683742D02*
X148079389Y-60398028D01*
X148079389Y-60398028D02*
X148127008Y-60302790D01*
X148127008Y-60302790D02*
X148174627Y-60255171D01*
X148174627Y-60255171D02*
X148269865Y-60207552D01*
X148269865Y-60207552D02*
X148460341Y-60207552D01*
X148460341Y-60207552D02*
X148555579Y-60255171D01*
X149412722Y-60826600D02*
X149317484Y-60874219D01*
X149317484Y-60874219D02*
X149127008Y-60874219D01*
X149127008Y-60874219D02*
X149031770Y-60826600D01*
X149031770Y-60826600D02*
X148984151Y-60731361D01*
X148984151Y-60731361D02*
X148984151Y-60350409D01*
X148984151Y-60350409D02*
X149031770Y-60255171D01*
X149031770Y-60255171D02*
X149127008Y-60207552D01*
X149127008Y-60207552D02*
X149317484Y-60207552D01*
X149317484Y-60207552D02*
X149412722Y-60255171D01*
X149412722Y-60255171D02*
X149460341Y-60350409D01*
X149460341Y-60350409D02*
X149460341Y-60445647D01*
X149460341Y-60445647D02*
X148984151Y-60540885D01*
X149888913Y-60874219D02*
X149888913Y-60207552D01*
X149888913Y-60398028D02*
X149936532Y-60302790D01*
X149936532Y-60302790D02*
X149984151Y-60255171D01*
X149984151Y-60255171D02*
X150079389Y-60207552D01*
X150079389Y-60207552D02*
X150174627Y-60207552D01*
X151127009Y-60207552D02*
X151507961Y-60207552D01*
X151269866Y-60874219D02*
X151269866Y-60017076D01*
X151269866Y-60017076D02*
X151317485Y-59921838D01*
X151317485Y-59921838D02*
X151412723Y-59874219D01*
X151412723Y-59874219D02*
X151507961Y-59874219D01*
X151984152Y-60874219D02*
X151888914Y-60826600D01*
X151888914Y-60826600D02*
X151841295Y-60778980D01*
X151841295Y-60778980D02*
X151793676Y-60683742D01*
X151793676Y-60683742D02*
X151793676Y-60398028D01*
X151793676Y-60398028D02*
X151841295Y-60302790D01*
X151841295Y-60302790D02*
X151888914Y-60255171D01*
X151888914Y-60255171D02*
X151984152Y-60207552D01*
X151984152Y-60207552D02*
X152127009Y-60207552D01*
X152127009Y-60207552D02*
X152222247Y-60255171D01*
X152222247Y-60255171D02*
X152269866Y-60302790D01*
X152269866Y-60302790D02*
X152317485Y-60398028D01*
X152317485Y-60398028D02*
X152317485Y-60683742D01*
X152317485Y-60683742D02*
X152269866Y-60778980D01*
X152269866Y-60778980D02*
X152222247Y-60826600D01*
X152222247Y-60826600D02*
X152127009Y-60874219D01*
X152127009Y-60874219D02*
X151984152Y-60874219D01*
X152746057Y-60874219D02*
X152746057Y-60207552D01*
X152746057Y-60398028D02*
X152793676Y-60302790D01*
X152793676Y-60302790D02*
X152841295Y-60255171D01*
X152841295Y-60255171D02*
X152936533Y-60207552D01*
X152936533Y-60207552D02*
X153031771Y-60207552D01*
X154079391Y-60588504D02*
X154555581Y-60588504D01*
X153984153Y-60874219D02*
X154317486Y-59874219D01*
X154317486Y-59874219D02*
X154650819Y-60874219D01*
X154841296Y-59874219D02*
X155412724Y-59874219D01*
X155127010Y-60874219D02*
X155127010Y-59874219D01*
X155746058Y-60874219D02*
X155746058Y-59874219D01*
X155746058Y-59874219D02*
X156079391Y-60588504D01*
X156079391Y-60588504D02*
X156412724Y-59874219D01*
X156412724Y-59874219D02*
X156412724Y-60874219D01*
X156888915Y-60350409D02*
X157222248Y-60350409D01*
X157365105Y-60874219D02*
X156888915Y-60874219D01*
X156888915Y-60874219D02*
X156888915Y-59874219D01*
X156888915Y-59874219D02*
X157365105Y-59874219D01*
X158317486Y-59921838D02*
X158222248Y-59874219D01*
X158222248Y-59874219D02*
X158079391Y-59874219D01*
X158079391Y-59874219D02*
X157936534Y-59921838D01*
X157936534Y-59921838D02*
X157841296Y-60017076D01*
X157841296Y-60017076D02*
X157793677Y-60112314D01*
X157793677Y-60112314D02*
X157746058Y-60302790D01*
X157746058Y-60302790D02*
X157746058Y-60445647D01*
X157746058Y-60445647D02*
X157793677Y-60636123D01*
X157793677Y-60636123D02*
X157841296Y-60731361D01*
X157841296Y-60731361D02*
X157936534Y-60826600D01*
X157936534Y-60826600D02*
X158079391Y-60874219D01*
X158079391Y-60874219D02*
X158174629Y-60874219D01*
X158174629Y-60874219D02*
X158317486Y-60826600D01*
X158317486Y-60826600D02*
X158365105Y-60778980D01*
X158365105Y-60778980D02*
X158365105Y-60445647D01*
X158365105Y-60445647D02*
X158174629Y-60445647D01*
X158746058Y-60588504D02*
X159222248Y-60588504D01*
X158650820Y-60874219D02*
X158984153Y-59874219D01*
X158984153Y-59874219D02*
X159317486Y-60874219D01*
X159555582Y-59874219D02*
X160174629Y-59874219D01*
X160174629Y-59874219D02*
X159841296Y-60255171D01*
X159841296Y-60255171D02*
X159984153Y-60255171D01*
X159984153Y-60255171D02*
X160079391Y-60302790D01*
X160079391Y-60302790D02*
X160127010Y-60350409D01*
X160127010Y-60350409D02*
X160174629Y-60445647D01*
X160174629Y-60445647D02*
X160174629Y-60683742D01*
X160174629Y-60683742D02*
X160127010Y-60778980D01*
X160127010Y-60778980D02*
X160079391Y-60826600D01*
X160079391Y-60826600D02*
X159984153Y-60874219D01*
X159984153Y-60874219D02*
X159698439Y-60874219D01*
X159698439Y-60874219D02*
X159603201Y-60826600D01*
X159603201Y-60826600D02*
X159555582Y-60778980D01*
X160555582Y-59969457D02*
X160603201Y-59921838D01*
X160603201Y-59921838D02*
X160698439Y-59874219D01*
X160698439Y-59874219D02*
X160936534Y-59874219D01*
X160936534Y-59874219D02*
X161031772Y-59921838D01*
X161031772Y-59921838D02*
X161079391Y-59969457D01*
X161079391Y-59969457D02*
X161127010Y-60064695D01*
X161127010Y-60064695D02*
X161127010Y-60159933D01*
X161127010Y-60159933D02*
X161079391Y-60302790D01*
X161079391Y-60302790D02*
X160507963Y-60874219D01*
X160507963Y-60874219D02*
X161127010Y-60874219D01*
X161698439Y-60302790D02*
X161603201Y-60255171D01*
X161603201Y-60255171D02*
X161555582Y-60207552D01*
X161555582Y-60207552D02*
X161507963Y-60112314D01*
X161507963Y-60112314D02*
X161507963Y-60064695D01*
X161507963Y-60064695D02*
X161555582Y-59969457D01*
X161555582Y-59969457D02*
X161603201Y-59921838D01*
X161603201Y-59921838D02*
X161698439Y-59874219D01*
X161698439Y-59874219D02*
X161888915Y-59874219D01*
X161888915Y-59874219D02*
X161984153Y-59921838D01*
X161984153Y-59921838D02*
X162031772Y-59969457D01*
X162031772Y-59969457D02*
X162079391Y-60064695D01*
X162079391Y-60064695D02*
X162079391Y-60112314D01*
X162079391Y-60112314D02*
X162031772Y-60207552D01*
X162031772Y-60207552D02*
X161984153Y-60255171D01*
X161984153Y-60255171D02*
X161888915Y-60302790D01*
X161888915Y-60302790D02*
X161698439Y-60302790D01*
X161698439Y-60302790D02*
X161603201Y-60350409D01*
X161603201Y-60350409D02*
X161555582Y-60398028D01*
X161555582Y-60398028D02*
X161507963Y-60493266D01*
X161507963Y-60493266D02*
X161507963Y-60683742D01*
X161507963Y-60683742D02*
X161555582Y-60778980D01*
X161555582Y-60778980D02*
X161603201Y-60826600D01*
X161603201Y-60826600D02*
X161698439Y-60874219D01*
X161698439Y-60874219D02*
X161888915Y-60874219D01*
X161888915Y-60874219D02*
X161984153Y-60826600D01*
X161984153Y-60826600D02*
X162031772Y-60778980D01*
X162031772Y-60778980D02*
X162079391Y-60683742D01*
X162079391Y-60683742D02*
X162079391Y-60493266D01*
X162079391Y-60493266D02*
X162031772Y-60398028D01*
X162031772Y-60398028D02*
X161984153Y-60350409D01*
X161984153Y-60350409D02*
X161888915Y-60302790D01*
X162507963Y-60874219D02*
X162507963Y-59874219D01*
X162507963Y-59874219D02*
X162888915Y-59874219D01*
X162888915Y-59874219D02*
X162984153Y-59921838D01*
X162984153Y-59921838D02*
X163031772Y-59969457D01*
X163031772Y-59969457D02*
X163079391Y-60064695D01*
X163079391Y-60064695D02*
X163079391Y-60207552D01*
X163079391Y-60207552D02*
X163031772Y-60302790D01*
X163031772Y-60302790D02*
X162984153Y-60350409D01*
X162984153Y-60350409D02*
X162888915Y-60398028D01*
X162888915Y-60398028D02*
X162507963Y-60398028D01*
D10*
X128750427Y-84714164D02*
X128750427Y-83964164D01*
X128750427Y-83964164D02*
X129036141Y-83964164D01*
X129036141Y-83964164D02*
X129107570Y-83999878D01*
X129107570Y-83999878D02*
X129143284Y-84035592D01*
X129143284Y-84035592D02*
X129178998Y-84107021D01*
X129178998Y-84107021D02*
X129178998Y-84214164D01*
X129178998Y-84214164D02*
X129143284Y-84285592D01*
X129143284Y-84285592D02*
X129107570Y-84321307D01*
X129107570Y-84321307D02*
X129036141Y-84357021D01*
X129036141Y-84357021D02*
X128750427Y-84357021D01*
X129500427Y-84714164D02*
X129500427Y-83964164D01*
X129500427Y-83964164D02*
X129678998Y-83964164D01*
X129678998Y-83964164D02*
X129786141Y-83999878D01*
X129786141Y-83999878D02*
X129857570Y-84071307D01*
X129857570Y-84071307D02*
X129893284Y-84142735D01*
X129893284Y-84142735D02*
X129928998Y-84285592D01*
X129928998Y-84285592D02*
X129928998Y-84392735D01*
X129928998Y-84392735D02*
X129893284Y-84535592D01*
X129893284Y-84535592D02*
X129857570Y-84607021D01*
X129857570Y-84607021D02*
X129786141Y-84678450D01*
X129786141Y-84678450D02*
X129678998Y-84714164D01*
X129678998Y-84714164D02*
X129500427Y-84714164D01*
X130571856Y-84214164D02*
X130571856Y-84714164D01*
X130393284Y-83928450D02*
X130214713Y-84464164D01*
X130214713Y-84464164D02*
X130678998Y-84464164D01*
X131500427Y-83928450D02*
X130857570Y-84892735D01*
X131750427Y-84714164D02*
X131750427Y-83964164D01*
X131750427Y-83964164D02*
X132036141Y-83964164D01*
X132036141Y-83964164D02*
X132107570Y-83999878D01*
X132107570Y-83999878D02*
X132143284Y-84035592D01*
X132143284Y-84035592D02*
X132178998Y-84107021D01*
X132178998Y-84107021D02*
X132178998Y-84214164D01*
X132178998Y-84214164D02*
X132143284Y-84285592D01*
X132143284Y-84285592D02*
X132107570Y-84321307D01*
X132107570Y-84321307D02*
X132036141Y-84357021D01*
X132036141Y-84357021D02*
X131750427Y-84357021D01*
X132821856Y-83964164D02*
X132678998Y-83964164D01*
X132678998Y-83964164D02*
X132607570Y-83999878D01*
X132607570Y-83999878D02*
X132571856Y-84035592D01*
X132571856Y-84035592D02*
X132500427Y-84142735D01*
X132500427Y-84142735D02*
X132464713Y-84285592D01*
X132464713Y-84285592D02*
X132464713Y-84571307D01*
X132464713Y-84571307D02*
X132500427Y-84642735D01*
X132500427Y-84642735D02*
X132536141Y-84678450D01*
X132536141Y-84678450D02*
X132607570Y-84714164D01*
X132607570Y-84714164D02*
X132750427Y-84714164D01*
X132750427Y-84714164D02*
X132821856Y-84678450D01*
X132821856Y-84678450D02*
X132857570Y-84642735D01*
X132857570Y-84642735D02*
X132893284Y-84571307D01*
X132893284Y-84571307D02*
X132893284Y-84392735D01*
X132893284Y-84392735D02*
X132857570Y-84321307D01*
X132857570Y-84321307D02*
X132821856Y-84285592D01*
X132821856Y-84285592D02*
X132750427Y-84249878D01*
X132750427Y-84249878D02*
X132607570Y-84249878D01*
X132607570Y-84249878D02*
X132536141Y-84285592D01*
X132536141Y-84285592D02*
X132500427Y-84321307D01*
X132500427Y-84321307D02*
X132464713Y-84392735D01*
X168525285Y-100970164D02*
X168525285Y-100220164D01*
X168525285Y-100220164D02*
X168810999Y-100220164D01*
X168810999Y-100220164D02*
X168882428Y-100255878D01*
X168882428Y-100255878D02*
X168918142Y-100291592D01*
X168918142Y-100291592D02*
X168953856Y-100363021D01*
X168953856Y-100363021D02*
X168953856Y-100470164D01*
X168953856Y-100470164D02*
X168918142Y-100541592D01*
X168918142Y-100541592D02*
X168882428Y-100577307D01*
X168882428Y-100577307D02*
X168810999Y-100613021D01*
X168810999Y-100613021D02*
X168525285Y-100613021D01*
X169525285Y-100577307D02*
X169632428Y-100613021D01*
X169632428Y-100613021D02*
X169668142Y-100648735D01*
X169668142Y-100648735D02*
X169703856Y-100720164D01*
X169703856Y-100720164D02*
X169703856Y-100827307D01*
X169703856Y-100827307D02*
X169668142Y-100898735D01*
X169668142Y-100898735D02*
X169632428Y-100934450D01*
X169632428Y-100934450D02*
X169560999Y-100970164D01*
X169560999Y-100970164D02*
X169275285Y-100970164D01*
X169275285Y-100970164D02*
X169275285Y-100220164D01*
X169275285Y-100220164D02*
X169525285Y-100220164D01*
X169525285Y-100220164D02*
X169596714Y-100255878D01*
X169596714Y-100255878D02*
X169632428Y-100291592D01*
X169632428Y-100291592D02*
X169668142Y-100363021D01*
X169668142Y-100363021D02*
X169668142Y-100434450D01*
X169668142Y-100434450D02*
X169632428Y-100505878D01*
X169632428Y-100505878D02*
X169596714Y-100541592D01*
X169596714Y-100541592D02*
X169525285Y-100577307D01*
X169525285Y-100577307D02*
X169275285Y-100577307D01*
X170382428Y-100220164D02*
X170025285Y-100220164D01*
X170025285Y-100220164D02*
X169989571Y-100577307D01*
X169989571Y-100577307D02*
X170025285Y-100541592D01*
X170025285Y-100541592D02*
X170096714Y-100505878D01*
X170096714Y-100505878D02*
X170275285Y-100505878D01*
X170275285Y-100505878D02*
X170346714Y-100541592D01*
X170346714Y-100541592D02*
X170382428Y-100577307D01*
X170382428Y-100577307D02*
X170418142Y-100648735D01*
X170418142Y-100648735D02*
X170418142Y-100827307D01*
X170418142Y-100827307D02*
X170382428Y-100898735D01*
X170382428Y-100898735D02*
X170346714Y-100934450D01*
X170346714Y-100934450D02*
X170275285Y-100970164D01*
X170275285Y-100970164D02*
X170096714Y-100970164D01*
X170096714Y-100970164D02*
X170025285Y-100934450D01*
X170025285Y-100934450D02*
X169989571Y-100898735D01*
X171275285Y-100184450D02*
X170632428Y-101148735D01*
X171525285Y-100970164D02*
X171525285Y-100220164D01*
X171525285Y-100220164D02*
X171810999Y-100220164D01*
X171810999Y-100220164D02*
X171882428Y-100255878D01*
X171882428Y-100255878D02*
X171918142Y-100291592D01*
X171918142Y-100291592D02*
X171953856Y-100363021D01*
X171953856Y-100363021D02*
X171953856Y-100470164D01*
X171953856Y-100470164D02*
X171918142Y-100541592D01*
X171918142Y-100541592D02*
X171882428Y-100577307D01*
X171882428Y-100577307D02*
X171810999Y-100613021D01*
X171810999Y-100613021D02*
X171525285Y-100613021D01*
X172668142Y-100970164D02*
X172239571Y-100970164D01*
X172453856Y-100970164D02*
X172453856Y-100220164D01*
X172453856Y-100220164D02*
X172382428Y-100327307D01*
X172382428Y-100327307D02*
X172310999Y-100398735D01*
X172310999Y-100398735D02*
X172239571Y-100434450D01*
X173025285Y-100970164D02*
X173168142Y-100970164D01*
X173168142Y-100970164D02*
X173239571Y-100934450D01*
X173239571Y-100934450D02*
X173275285Y-100898735D01*
X173275285Y-100898735D02*
X173346714Y-100791592D01*
X173346714Y-100791592D02*
X173382428Y-100648735D01*
X173382428Y-100648735D02*
X173382428Y-100363021D01*
X173382428Y-100363021D02*
X173346714Y-100291592D01*
X173346714Y-100291592D02*
X173311000Y-100255878D01*
X173311000Y-100255878D02*
X173239571Y-100220164D01*
X173239571Y-100220164D02*
X173096714Y-100220164D01*
X173096714Y-100220164D02*
X173025285Y-100255878D01*
X173025285Y-100255878D02*
X172989571Y-100291592D01*
X172989571Y-100291592D02*
X172953857Y-100363021D01*
X172953857Y-100363021D02*
X172953857Y-100541592D01*
X172953857Y-100541592D02*
X172989571Y-100613021D01*
X172989571Y-100613021D02*
X173025285Y-100648735D01*
X173025285Y-100648735D02*
X173096714Y-100684450D01*
X173096714Y-100684450D02*
X173239571Y-100684450D01*
X173239571Y-100684450D02*
X173311000Y-100648735D01*
X173311000Y-100648735D02*
X173346714Y-100613021D01*
X173346714Y-100613021D02*
X173382428Y-100541592D01*
X168882428Y-88063878D02*
X168811000Y-88028164D01*
X168811000Y-88028164D02*
X168703857Y-88028164D01*
X168703857Y-88028164D02*
X168596714Y-88063878D01*
X168596714Y-88063878D02*
X168525285Y-88135307D01*
X168525285Y-88135307D02*
X168489571Y-88206735D01*
X168489571Y-88206735D02*
X168453857Y-88349592D01*
X168453857Y-88349592D02*
X168453857Y-88456735D01*
X168453857Y-88456735D02*
X168489571Y-88599592D01*
X168489571Y-88599592D02*
X168525285Y-88671021D01*
X168525285Y-88671021D02*
X168596714Y-88742450D01*
X168596714Y-88742450D02*
X168703857Y-88778164D01*
X168703857Y-88778164D02*
X168775285Y-88778164D01*
X168775285Y-88778164D02*
X168882428Y-88742450D01*
X168882428Y-88742450D02*
X168918142Y-88706735D01*
X168918142Y-88706735D02*
X168918142Y-88456735D01*
X168918142Y-88456735D02*
X168775285Y-88456735D01*
X169239571Y-88778164D02*
X169239571Y-88028164D01*
X169239571Y-88028164D02*
X169668142Y-88778164D01*
X169668142Y-88778164D02*
X169668142Y-88028164D01*
X170025285Y-88778164D02*
X170025285Y-88028164D01*
X170025285Y-88028164D02*
X170203856Y-88028164D01*
X170203856Y-88028164D02*
X170310999Y-88063878D01*
X170310999Y-88063878D02*
X170382428Y-88135307D01*
X170382428Y-88135307D02*
X170418142Y-88206735D01*
X170418142Y-88206735D02*
X170453856Y-88349592D01*
X170453856Y-88349592D02*
X170453856Y-88456735D01*
X170453856Y-88456735D02*
X170418142Y-88599592D01*
X170418142Y-88599592D02*
X170382428Y-88671021D01*
X170382428Y-88671021D02*
X170310999Y-88742450D01*
X170310999Y-88742450D02*
X170203856Y-88778164D01*
X170203856Y-88778164D02*
X170025285Y-88778164D01*
X171310999Y-87992450D02*
X170668142Y-88956735D01*
X171560999Y-88778164D02*
X171560999Y-88028164D01*
X171560999Y-88028164D02*
X171846713Y-88028164D01*
X171846713Y-88028164D02*
X171918142Y-88063878D01*
X171918142Y-88063878D02*
X171953856Y-88099592D01*
X171953856Y-88099592D02*
X171989570Y-88171021D01*
X171989570Y-88171021D02*
X171989570Y-88278164D01*
X171989570Y-88278164D02*
X171953856Y-88349592D01*
X171953856Y-88349592D02*
X171918142Y-88385307D01*
X171918142Y-88385307D02*
X171846713Y-88421021D01*
X171846713Y-88421021D02*
X171560999Y-88421021D01*
X172275285Y-88099592D02*
X172310999Y-88063878D01*
X172310999Y-88063878D02*
X172382428Y-88028164D01*
X172382428Y-88028164D02*
X172560999Y-88028164D01*
X172560999Y-88028164D02*
X172632428Y-88063878D01*
X172632428Y-88063878D02*
X172668142Y-88099592D01*
X172668142Y-88099592D02*
X172703856Y-88171021D01*
X172703856Y-88171021D02*
X172703856Y-88242450D01*
X172703856Y-88242450D02*
X172668142Y-88349592D01*
X172668142Y-88349592D02*
X172239570Y-88778164D01*
X172239570Y-88778164D02*
X172703856Y-88778164D01*
X172989571Y-88099592D02*
X173025285Y-88063878D01*
X173025285Y-88063878D02*
X173096714Y-88028164D01*
X173096714Y-88028164D02*
X173275285Y-88028164D01*
X173275285Y-88028164D02*
X173346714Y-88063878D01*
X173346714Y-88063878D02*
X173382428Y-88099592D01*
X173382428Y-88099592D02*
X173418142Y-88171021D01*
X173418142Y-88171021D02*
X173418142Y-88242450D01*
X173418142Y-88242450D02*
X173382428Y-88349592D01*
X173382428Y-88349592D02*
X172953856Y-88778164D01*
X172953856Y-88778164D02*
X173418142Y-88778164D01*
X128750426Y-72522164D02*
X128750426Y-71772164D01*
X128750426Y-71772164D02*
X129036140Y-71772164D01*
X129036140Y-71772164D02*
X129107569Y-71807878D01*
X129107569Y-71807878D02*
X129143283Y-71843592D01*
X129143283Y-71843592D02*
X129178997Y-71915021D01*
X129178997Y-71915021D02*
X129178997Y-72022164D01*
X129178997Y-72022164D02*
X129143283Y-72093592D01*
X129143283Y-72093592D02*
X129107569Y-72129307D01*
X129107569Y-72129307D02*
X129036140Y-72165021D01*
X129036140Y-72165021D02*
X128750426Y-72165021D01*
X129500426Y-72522164D02*
X129500426Y-71772164D01*
X129500426Y-71772164D02*
X129678997Y-71772164D01*
X129678997Y-71772164D02*
X129786140Y-71807878D01*
X129786140Y-71807878D02*
X129857569Y-71879307D01*
X129857569Y-71879307D02*
X129893283Y-71950735D01*
X129893283Y-71950735D02*
X129928997Y-72093592D01*
X129928997Y-72093592D02*
X129928997Y-72200735D01*
X129928997Y-72200735D02*
X129893283Y-72343592D01*
X129893283Y-72343592D02*
X129857569Y-72415021D01*
X129857569Y-72415021D02*
X129786140Y-72486450D01*
X129786140Y-72486450D02*
X129678997Y-72522164D01*
X129678997Y-72522164D02*
X129500426Y-72522164D01*
X130643283Y-72522164D02*
X130214712Y-72522164D01*
X130428997Y-72522164D02*
X130428997Y-71772164D01*
X130428997Y-71772164D02*
X130357569Y-71879307D01*
X130357569Y-71879307D02*
X130286140Y-71950735D01*
X130286140Y-71950735D02*
X130214712Y-71986450D01*
X131500426Y-71736450D02*
X130857569Y-72700735D01*
X131750426Y-72522164D02*
X131750426Y-71772164D01*
X131750426Y-71772164D02*
X132036140Y-71772164D01*
X132036140Y-71772164D02*
X132107569Y-71807878D01*
X132107569Y-71807878D02*
X132143283Y-71843592D01*
X132143283Y-71843592D02*
X132178997Y-71915021D01*
X132178997Y-71915021D02*
X132178997Y-72022164D01*
X132178997Y-72022164D02*
X132143283Y-72093592D01*
X132143283Y-72093592D02*
X132107569Y-72129307D01*
X132107569Y-72129307D02*
X132036140Y-72165021D01*
X132036140Y-72165021D02*
X131750426Y-72165021D01*
X132428997Y-71772164D02*
X132893283Y-71772164D01*
X132893283Y-71772164D02*
X132643283Y-72057878D01*
X132643283Y-72057878D02*
X132750426Y-72057878D01*
X132750426Y-72057878D02*
X132821855Y-72093592D01*
X132821855Y-72093592D02*
X132857569Y-72129307D01*
X132857569Y-72129307D02*
X132893283Y-72200735D01*
X132893283Y-72200735D02*
X132893283Y-72379307D01*
X132893283Y-72379307D02*
X132857569Y-72450735D01*
X132857569Y-72450735D02*
X132821855Y-72486450D01*
X132821855Y-72486450D02*
X132750426Y-72522164D01*
X132750426Y-72522164D02*
X132536140Y-72522164D01*
X132536140Y-72522164D02*
X132464712Y-72486450D01*
X132464712Y-72486450D02*
X132428997Y-72450735D01*
X168203857Y-96691878D02*
X168561000Y-96691878D01*
X168132428Y-96906164D02*
X168382428Y-96156164D01*
X168382428Y-96156164D02*
X168632428Y-96906164D01*
X168775285Y-96156164D02*
X169025285Y-96906164D01*
X169025285Y-96906164D02*
X169275285Y-96156164D01*
X169953856Y-96834735D02*
X169918142Y-96870450D01*
X169918142Y-96870450D02*
X169810999Y-96906164D01*
X169810999Y-96906164D02*
X169739571Y-96906164D01*
X169739571Y-96906164D02*
X169632428Y-96870450D01*
X169632428Y-96870450D02*
X169560999Y-96799021D01*
X169560999Y-96799021D02*
X169525285Y-96727592D01*
X169525285Y-96727592D02*
X169489571Y-96584735D01*
X169489571Y-96584735D02*
X169489571Y-96477592D01*
X169489571Y-96477592D02*
X169525285Y-96334735D01*
X169525285Y-96334735D02*
X169560999Y-96263307D01*
X169560999Y-96263307D02*
X169632428Y-96191878D01*
X169632428Y-96191878D02*
X169739571Y-96156164D01*
X169739571Y-96156164D02*
X169810999Y-96156164D01*
X169810999Y-96156164D02*
X169918142Y-96191878D01*
X169918142Y-96191878D02*
X169953856Y-96227592D01*
X170703856Y-96834735D02*
X170668142Y-96870450D01*
X170668142Y-96870450D02*
X170560999Y-96906164D01*
X170560999Y-96906164D02*
X170489571Y-96906164D01*
X170489571Y-96906164D02*
X170382428Y-96870450D01*
X170382428Y-96870450D02*
X170310999Y-96799021D01*
X170310999Y-96799021D02*
X170275285Y-96727592D01*
X170275285Y-96727592D02*
X170239571Y-96584735D01*
X170239571Y-96584735D02*
X170239571Y-96477592D01*
X170239571Y-96477592D02*
X170275285Y-96334735D01*
X170275285Y-96334735D02*
X170310999Y-96263307D01*
X170310999Y-96263307D02*
X170382428Y-96191878D01*
X170382428Y-96191878D02*
X170489571Y-96156164D01*
X170489571Y-96156164D02*
X170560999Y-96156164D01*
X170560999Y-96156164D02*
X170668142Y-96191878D01*
X170668142Y-96191878D02*
X170703856Y-96227592D01*
X171560999Y-96120450D02*
X170918142Y-97084735D01*
X171810999Y-96906164D02*
X171810999Y-96156164D01*
X171810999Y-96156164D02*
X172096713Y-96156164D01*
X172096713Y-96156164D02*
X172168142Y-96191878D01*
X172168142Y-96191878D02*
X172203856Y-96227592D01*
X172203856Y-96227592D02*
X172239570Y-96299021D01*
X172239570Y-96299021D02*
X172239570Y-96406164D01*
X172239570Y-96406164D02*
X172203856Y-96477592D01*
X172203856Y-96477592D02*
X172168142Y-96513307D01*
X172168142Y-96513307D02*
X172096713Y-96549021D01*
X172096713Y-96549021D02*
X171810999Y-96549021D01*
X172525285Y-96227592D02*
X172560999Y-96191878D01*
X172560999Y-96191878D02*
X172632428Y-96156164D01*
X172632428Y-96156164D02*
X172810999Y-96156164D01*
X172810999Y-96156164D02*
X172882428Y-96191878D01*
X172882428Y-96191878D02*
X172918142Y-96227592D01*
X172918142Y-96227592D02*
X172953856Y-96299021D01*
X172953856Y-96299021D02*
X172953856Y-96370450D01*
X172953856Y-96370450D02*
X172918142Y-96477592D01*
X172918142Y-96477592D02*
X172489570Y-96906164D01*
X172489570Y-96906164D02*
X172953856Y-96906164D01*
X173418142Y-96156164D02*
X173489571Y-96156164D01*
X173489571Y-96156164D02*
X173560999Y-96191878D01*
X173560999Y-96191878D02*
X173596714Y-96227592D01*
X173596714Y-96227592D02*
X173632428Y-96299021D01*
X173632428Y-96299021D02*
X173668142Y-96441878D01*
X173668142Y-96441878D02*
X173668142Y-96620450D01*
X173668142Y-96620450D02*
X173632428Y-96763307D01*
X173632428Y-96763307D02*
X173596714Y-96834735D01*
X173596714Y-96834735D02*
X173560999Y-96870450D01*
X173560999Y-96870450D02*
X173489571Y-96906164D01*
X173489571Y-96906164D02*
X173418142Y-96906164D01*
X173418142Y-96906164D02*
X173346714Y-96870450D01*
X173346714Y-96870450D02*
X173310999Y-96834735D01*
X173310999Y-96834735D02*
X173275285Y-96763307D01*
X173275285Y-96763307D02*
X173239571Y-96620450D01*
X173239571Y-96620450D02*
X173239571Y-96441878D01*
X173239571Y-96441878D02*
X173275285Y-96299021D01*
X173275285Y-96299021D02*
X173310999Y-96227592D01*
X173310999Y-96227592D02*
X173346714Y-96191878D01*
X173346714Y-96191878D02*
X173418142Y-96156164D01*
X168525285Y-80650164D02*
X168525285Y-79900164D01*
X168525285Y-79900164D02*
X168810999Y-79900164D01*
X168810999Y-79900164D02*
X168882428Y-79935878D01*
X168882428Y-79935878D02*
X168918142Y-79971592D01*
X168918142Y-79971592D02*
X168953856Y-80043021D01*
X168953856Y-80043021D02*
X168953856Y-80150164D01*
X168953856Y-80150164D02*
X168918142Y-80221592D01*
X168918142Y-80221592D02*
X168882428Y-80257307D01*
X168882428Y-80257307D02*
X168810999Y-80293021D01*
X168810999Y-80293021D02*
X168525285Y-80293021D01*
X169703856Y-80578735D02*
X169668142Y-80614450D01*
X169668142Y-80614450D02*
X169560999Y-80650164D01*
X169560999Y-80650164D02*
X169489571Y-80650164D01*
X169489571Y-80650164D02*
X169382428Y-80614450D01*
X169382428Y-80614450D02*
X169310999Y-80543021D01*
X169310999Y-80543021D02*
X169275285Y-80471592D01*
X169275285Y-80471592D02*
X169239571Y-80328735D01*
X169239571Y-80328735D02*
X169239571Y-80221592D01*
X169239571Y-80221592D02*
X169275285Y-80078735D01*
X169275285Y-80078735D02*
X169310999Y-80007307D01*
X169310999Y-80007307D02*
X169382428Y-79935878D01*
X169382428Y-79935878D02*
X169489571Y-79900164D01*
X169489571Y-79900164D02*
X169560999Y-79900164D01*
X169560999Y-79900164D02*
X169668142Y-79935878D01*
X169668142Y-79935878D02*
X169703856Y-79971592D01*
X169989571Y-79971592D02*
X170025285Y-79935878D01*
X170025285Y-79935878D02*
X170096714Y-79900164D01*
X170096714Y-79900164D02*
X170275285Y-79900164D01*
X170275285Y-79900164D02*
X170346714Y-79935878D01*
X170346714Y-79935878D02*
X170382428Y-79971592D01*
X170382428Y-79971592D02*
X170418142Y-80043021D01*
X170418142Y-80043021D02*
X170418142Y-80114450D01*
X170418142Y-80114450D02*
X170382428Y-80221592D01*
X170382428Y-80221592D02*
X169953856Y-80650164D01*
X169953856Y-80650164D02*
X170418142Y-80650164D01*
X171275285Y-79864450D02*
X170632428Y-80828735D01*
X171525285Y-80650164D02*
X171525285Y-79900164D01*
X171525285Y-79900164D02*
X171810999Y-79900164D01*
X171810999Y-79900164D02*
X171882428Y-79935878D01*
X171882428Y-79935878D02*
X171918142Y-79971592D01*
X171918142Y-79971592D02*
X171953856Y-80043021D01*
X171953856Y-80043021D02*
X171953856Y-80150164D01*
X171953856Y-80150164D02*
X171918142Y-80221592D01*
X171918142Y-80221592D02*
X171882428Y-80257307D01*
X171882428Y-80257307D02*
X171810999Y-80293021D01*
X171810999Y-80293021D02*
X171525285Y-80293021D01*
X172239571Y-79971592D02*
X172275285Y-79935878D01*
X172275285Y-79935878D02*
X172346714Y-79900164D01*
X172346714Y-79900164D02*
X172525285Y-79900164D01*
X172525285Y-79900164D02*
X172596714Y-79935878D01*
X172596714Y-79935878D02*
X172632428Y-79971592D01*
X172632428Y-79971592D02*
X172668142Y-80043021D01*
X172668142Y-80043021D02*
X172668142Y-80114450D01*
X172668142Y-80114450D02*
X172632428Y-80221592D01*
X172632428Y-80221592D02*
X172203856Y-80650164D01*
X172203856Y-80650164D02*
X172668142Y-80650164D01*
X173311000Y-80150164D02*
X173311000Y-80650164D01*
X173132428Y-79864450D02*
X172953857Y-80400164D01*
X172953857Y-80400164D02*
X173418142Y-80400164D01*
X128393285Y-105034164D02*
X128393285Y-104284164D01*
X128393285Y-104284164D02*
X128678999Y-104284164D01*
X128678999Y-104284164D02*
X128750428Y-104319878D01*
X128750428Y-104319878D02*
X128786142Y-104355592D01*
X128786142Y-104355592D02*
X128821856Y-104427021D01*
X128821856Y-104427021D02*
X128821856Y-104534164D01*
X128821856Y-104534164D02*
X128786142Y-104605592D01*
X128786142Y-104605592D02*
X128750428Y-104641307D01*
X128750428Y-104641307D02*
X128678999Y-104677021D01*
X128678999Y-104677021D02*
X128393285Y-104677021D01*
X129143285Y-105034164D02*
X129143285Y-104284164D01*
X129143285Y-104284164D02*
X129321856Y-104284164D01*
X129321856Y-104284164D02*
X129428999Y-104319878D01*
X129428999Y-104319878D02*
X129500428Y-104391307D01*
X129500428Y-104391307D02*
X129536142Y-104462735D01*
X129536142Y-104462735D02*
X129571856Y-104605592D01*
X129571856Y-104605592D02*
X129571856Y-104712735D01*
X129571856Y-104712735D02*
X129536142Y-104855592D01*
X129536142Y-104855592D02*
X129500428Y-104927021D01*
X129500428Y-104927021D02*
X129428999Y-104998450D01*
X129428999Y-104998450D02*
X129321856Y-105034164D01*
X129321856Y-105034164D02*
X129143285Y-105034164D01*
X130250428Y-104284164D02*
X129893285Y-104284164D01*
X129893285Y-104284164D02*
X129857571Y-104641307D01*
X129857571Y-104641307D02*
X129893285Y-104605592D01*
X129893285Y-104605592D02*
X129964714Y-104569878D01*
X129964714Y-104569878D02*
X130143285Y-104569878D01*
X130143285Y-104569878D02*
X130214714Y-104605592D01*
X130214714Y-104605592D02*
X130250428Y-104641307D01*
X130250428Y-104641307D02*
X130286142Y-104712735D01*
X130286142Y-104712735D02*
X130286142Y-104891307D01*
X130286142Y-104891307D02*
X130250428Y-104962735D01*
X130250428Y-104962735D02*
X130214714Y-104998450D01*
X130214714Y-104998450D02*
X130143285Y-105034164D01*
X130143285Y-105034164D02*
X129964714Y-105034164D01*
X129964714Y-105034164D02*
X129893285Y-104998450D01*
X129893285Y-104998450D02*
X129857571Y-104962735D01*
X131143285Y-104248450D02*
X130500428Y-105212735D01*
X131393285Y-105034164D02*
X131393285Y-104284164D01*
X131393285Y-104284164D02*
X131678999Y-104284164D01*
X131678999Y-104284164D02*
X131750428Y-104319878D01*
X131750428Y-104319878D02*
X131786142Y-104355592D01*
X131786142Y-104355592D02*
X131821856Y-104427021D01*
X131821856Y-104427021D02*
X131821856Y-104534164D01*
X131821856Y-104534164D02*
X131786142Y-104605592D01*
X131786142Y-104605592D02*
X131750428Y-104641307D01*
X131750428Y-104641307D02*
X131678999Y-104677021D01*
X131678999Y-104677021D02*
X131393285Y-104677021D01*
X132536142Y-105034164D02*
X132107571Y-105034164D01*
X132321856Y-105034164D02*
X132321856Y-104284164D01*
X132321856Y-104284164D02*
X132250428Y-104391307D01*
X132250428Y-104391307D02*
X132178999Y-104462735D01*
X132178999Y-104462735D02*
X132107571Y-104498450D01*
X133250428Y-105034164D02*
X132821857Y-105034164D01*
X133036142Y-105034164D02*
X133036142Y-104284164D01*
X133036142Y-104284164D02*
X132964714Y-104391307D01*
X132964714Y-104391307D02*
X132893285Y-104462735D01*
X132893285Y-104462735D02*
X132821857Y-104498450D01*
X168525285Y-64394164D02*
X168525285Y-63644164D01*
X168525285Y-63644164D02*
X168810999Y-63644164D01*
X168810999Y-63644164D02*
X168882428Y-63679878D01*
X168882428Y-63679878D02*
X168918142Y-63715592D01*
X168918142Y-63715592D02*
X168953856Y-63787021D01*
X168953856Y-63787021D02*
X168953856Y-63894164D01*
X168953856Y-63894164D02*
X168918142Y-63965592D01*
X168918142Y-63965592D02*
X168882428Y-64001307D01*
X168882428Y-64001307D02*
X168810999Y-64037021D01*
X168810999Y-64037021D02*
X168525285Y-64037021D01*
X169703856Y-64322735D02*
X169668142Y-64358450D01*
X169668142Y-64358450D02*
X169560999Y-64394164D01*
X169560999Y-64394164D02*
X169489571Y-64394164D01*
X169489571Y-64394164D02*
X169382428Y-64358450D01*
X169382428Y-64358450D02*
X169310999Y-64287021D01*
X169310999Y-64287021D02*
X169275285Y-64215592D01*
X169275285Y-64215592D02*
X169239571Y-64072735D01*
X169239571Y-64072735D02*
X169239571Y-63965592D01*
X169239571Y-63965592D02*
X169275285Y-63822735D01*
X169275285Y-63822735D02*
X169310999Y-63751307D01*
X169310999Y-63751307D02*
X169382428Y-63679878D01*
X169382428Y-63679878D02*
X169489571Y-63644164D01*
X169489571Y-63644164D02*
X169560999Y-63644164D01*
X169560999Y-63644164D02*
X169668142Y-63679878D01*
X169668142Y-63679878D02*
X169703856Y-63715592D01*
X169989571Y-64358450D02*
X170096714Y-64394164D01*
X170096714Y-64394164D02*
X170275285Y-64394164D01*
X170275285Y-64394164D02*
X170346714Y-64358450D01*
X170346714Y-64358450D02*
X170382428Y-64322735D01*
X170382428Y-64322735D02*
X170418142Y-64251307D01*
X170418142Y-64251307D02*
X170418142Y-64179878D01*
X170418142Y-64179878D02*
X170382428Y-64108450D01*
X170382428Y-64108450D02*
X170346714Y-64072735D01*
X170346714Y-64072735D02*
X170275285Y-64037021D01*
X170275285Y-64037021D02*
X170132428Y-64001307D01*
X170132428Y-64001307D02*
X170060999Y-63965592D01*
X170060999Y-63965592D02*
X170025285Y-63929878D01*
X170025285Y-63929878D02*
X169989571Y-63858450D01*
X169989571Y-63858450D02*
X169989571Y-63787021D01*
X169989571Y-63787021D02*
X170025285Y-63715592D01*
X170025285Y-63715592D02*
X170060999Y-63679878D01*
X170060999Y-63679878D02*
X170132428Y-63644164D01*
X170132428Y-63644164D02*
X170310999Y-63644164D01*
X170310999Y-63644164D02*
X170418142Y-63679878D01*
X171275285Y-63608450D02*
X170632428Y-64572735D01*
X171525285Y-64394164D02*
X171525285Y-63644164D01*
X171525285Y-63644164D02*
X171810999Y-63644164D01*
X171810999Y-63644164D02*
X171882428Y-63679878D01*
X171882428Y-63679878D02*
X171918142Y-63715592D01*
X171918142Y-63715592D02*
X171953856Y-63787021D01*
X171953856Y-63787021D02*
X171953856Y-63894164D01*
X171953856Y-63894164D02*
X171918142Y-63965592D01*
X171918142Y-63965592D02*
X171882428Y-64001307D01*
X171882428Y-64001307D02*
X171810999Y-64037021D01*
X171810999Y-64037021D02*
X171525285Y-64037021D01*
X172239571Y-63715592D02*
X172275285Y-63679878D01*
X172275285Y-63679878D02*
X172346714Y-63644164D01*
X172346714Y-63644164D02*
X172525285Y-63644164D01*
X172525285Y-63644164D02*
X172596714Y-63679878D01*
X172596714Y-63679878D02*
X172632428Y-63715592D01*
X172632428Y-63715592D02*
X172668142Y-63787021D01*
X172668142Y-63787021D02*
X172668142Y-63858450D01*
X172668142Y-63858450D02*
X172632428Y-63965592D01*
X172632428Y-63965592D02*
X172203856Y-64394164D01*
X172203856Y-64394164D02*
X172668142Y-64394164D01*
X173096714Y-63965592D02*
X173025285Y-63929878D01*
X173025285Y-63929878D02*
X172989571Y-63894164D01*
X172989571Y-63894164D02*
X172953857Y-63822735D01*
X172953857Y-63822735D02*
X172953857Y-63787021D01*
X172953857Y-63787021D02*
X172989571Y-63715592D01*
X172989571Y-63715592D02*
X173025285Y-63679878D01*
X173025285Y-63679878D02*
X173096714Y-63644164D01*
X173096714Y-63644164D02*
X173239571Y-63644164D01*
X173239571Y-63644164D02*
X173311000Y-63679878D01*
X173311000Y-63679878D02*
X173346714Y-63715592D01*
X173346714Y-63715592D02*
X173382428Y-63787021D01*
X173382428Y-63787021D02*
X173382428Y-63822735D01*
X173382428Y-63822735D02*
X173346714Y-63894164D01*
X173346714Y-63894164D02*
X173311000Y-63929878D01*
X173311000Y-63929878D02*
X173239571Y-63965592D01*
X173239571Y-63965592D02*
X173096714Y-63965592D01*
X173096714Y-63965592D02*
X173025285Y-64001307D01*
X173025285Y-64001307D02*
X172989571Y-64037021D01*
X172989571Y-64037021D02*
X172953857Y-64108450D01*
X172953857Y-64108450D02*
X172953857Y-64251307D01*
X172953857Y-64251307D02*
X172989571Y-64322735D01*
X172989571Y-64322735D02*
X173025285Y-64358450D01*
X173025285Y-64358450D02*
X173096714Y-64394164D01*
X173096714Y-64394164D02*
X173239571Y-64394164D01*
X173239571Y-64394164D02*
X173311000Y-64358450D01*
X173311000Y-64358450D02*
X173346714Y-64322735D01*
X173346714Y-64322735D02*
X173382428Y-64251307D01*
X173382428Y-64251307D02*
X173382428Y-64108450D01*
X173382428Y-64108450D02*
X173346714Y-64037021D01*
X173346714Y-64037021D02*
X173311000Y-64001307D01*
X173311000Y-64001307D02*
X173239571Y-63965592D01*
X128750428Y-68458164D02*
X128750428Y-67708164D01*
X128750428Y-67708164D02*
X129036142Y-67708164D01*
X129036142Y-67708164D02*
X129107571Y-67743878D01*
X129107571Y-67743878D02*
X129143285Y-67779592D01*
X129143285Y-67779592D02*
X129178999Y-67851021D01*
X129178999Y-67851021D02*
X129178999Y-67958164D01*
X129178999Y-67958164D02*
X129143285Y-68029592D01*
X129143285Y-68029592D02*
X129107571Y-68065307D01*
X129107571Y-68065307D02*
X129036142Y-68101021D01*
X129036142Y-68101021D02*
X128750428Y-68101021D01*
X129500428Y-68458164D02*
X129500428Y-67708164D01*
X129500428Y-67708164D02*
X129678999Y-67708164D01*
X129678999Y-67708164D02*
X129786142Y-67743878D01*
X129786142Y-67743878D02*
X129857571Y-67815307D01*
X129857571Y-67815307D02*
X129893285Y-67886735D01*
X129893285Y-67886735D02*
X129928999Y-68029592D01*
X129928999Y-68029592D02*
X129928999Y-68136735D01*
X129928999Y-68136735D02*
X129893285Y-68279592D01*
X129893285Y-68279592D02*
X129857571Y-68351021D01*
X129857571Y-68351021D02*
X129786142Y-68422450D01*
X129786142Y-68422450D02*
X129678999Y-68458164D01*
X129678999Y-68458164D02*
X129500428Y-68458164D01*
X130393285Y-67708164D02*
X130464714Y-67708164D01*
X130464714Y-67708164D02*
X130536142Y-67743878D01*
X130536142Y-67743878D02*
X130571857Y-67779592D01*
X130571857Y-67779592D02*
X130607571Y-67851021D01*
X130607571Y-67851021D02*
X130643285Y-67993878D01*
X130643285Y-67993878D02*
X130643285Y-68172450D01*
X130643285Y-68172450D02*
X130607571Y-68315307D01*
X130607571Y-68315307D02*
X130571857Y-68386735D01*
X130571857Y-68386735D02*
X130536142Y-68422450D01*
X130536142Y-68422450D02*
X130464714Y-68458164D01*
X130464714Y-68458164D02*
X130393285Y-68458164D01*
X130393285Y-68458164D02*
X130321857Y-68422450D01*
X130321857Y-68422450D02*
X130286142Y-68386735D01*
X130286142Y-68386735D02*
X130250428Y-68315307D01*
X130250428Y-68315307D02*
X130214714Y-68172450D01*
X130214714Y-68172450D02*
X130214714Y-67993878D01*
X130214714Y-67993878D02*
X130250428Y-67851021D01*
X130250428Y-67851021D02*
X130286142Y-67779592D01*
X130286142Y-67779592D02*
X130321857Y-67743878D01*
X130321857Y-67743878D02*
X130393285Y-67708164D01*
X131500428Y-67672450D02*
X130857571Y-68636735D01*
X131750428Y-68458164D02*
X131750428Y-67708164D01*
X131750428Y-67708164D02*
X132036142Y-67708164D01*
X132036142Y-67708164D02*
X132107571Y-67743878D01*
X132107571Y-67743878D02*
X132143285Y-67779592D01*
X132143285Y-67779592D02*
X132178999Y-67851021D01*
X132178999Y-67851021D02*
X132178999Y-67958164D01*
X132178999Y-67958164D02*
X132143285Y-68029592D01*
X132143285Y-68029592D02*
X132107571Y-68065307D01*
X132107571Y-68065307D02*
X132036142Y-68101021D01*
X132036142Y-68101021D02*
X131750428Y-68101021D01*
X132464714Y-67779592D02*
X132500428Y-67743878D01*
X132500428Y-67743878D02*
X132571857Y-67708164D01*
X132571857Y-67708164D02*
X132750428Y-67708164D01*
X132750428Y-67708164D02*
X132821857Y-67743878D01*
X132821857Y-67743878D02*
X132857571Y-67779592D01*
X132857571Y-67779592D02*
X132893285Y-67851021D01*
X132893285Y-67851021D02*
X132893285Y-67922450D01*
X132893285Y-67922450D02*
X132857571Y-68029592D01*
X132857571Y-68029592D02*
X132428999Y-68458164D01*
X132428999Y-68458164D02*
X132893285Y-68458164D01*
X168525285Y-109098164D02*
X168525285Y-108348164D01*
X168525285Y-108348164D02*
X168810999Y-108348164D01*
X168810999Y-108348164D02*
X168882428Y-108383878D01*
X168882428Y-108383878D02*
X168918142Y-108419592D01*
X168918142Y-108419592D02*
X168953856Y-108491021D01*
X168953856Y-108491021D02*
X168953856Y-108598164D01*
X168953856Y-108598164D02*
X168918142Y-108669592D01*
X168918142Y-108669592D02*
X168882428Y-108705307D01*
X168882428Y-108705307D02*
X168810999Y-108741021D01*
X168810999Y-108741021D02*
X168525285Y-108741021D01*
X169525285Y-108705307D02*
X169632428Y-108741021D01*
X169632428Y-108741021D02*
X169668142Y-108776735D01*
X169668142Y-108776735D02*
X169703856Y-108848164D01*
X169703856Y-108848164D02*
X169703856Y-108955307D01*
X169703856Y-108955307D02*
X169668142Y-109026735D01*
X169668142Y-109026735D02*
X169632428Y-109062450D01*
X169632428Y-109062450D02*
X169560999Y-109098164D01*
X169560999Y-109098164D02*
X169275285Y-109098164D01*
X169275285Y-109098164D02*
X169275285Y-108348164D01*
X169275285Y-108348164D02*
X169525285Y-108348164D01*
X169525285Y-108348164D02*
X169596714Y-108383878D01*
X169596714Y-108383878D02*
X169632428Y-108419592D01*
X169632428Y-108419592D02*
X169668142Y-108491021D01*
X169668142Y-108491021D02*
X169668142Y-108562450D01*
X169668142Y-108562450D02*
X169632428Y-108633878D01*
X169632428Y-108633878D02*
X169596714Y-108669592D01*
X169596714Y-108669592D02*
X169525285Y-108705307D01*
X169525285Y-108705307D02*
X169275285Y-108705307D01*
X169953856Y-108348164D02*
X170418142Y-108348164D01*
X170418142Y-108348164D02*
X170168142Y-108633878D01*
X170168142Y-108633878D02*
X170275285Y-108633878D01*
X170275285Y-108633878D02*
X170346714Y-108669592D01*
X170346714Y-108669592D02*
X170382428Y-108705307D01*
X170382428Y-108705307D02*
X170418142Y-108776735D01*
X170418142Y-108776735D02*
X170418142Y-108955307D01*
X170418142Y-108955307D02*
X170382428Y-109026735D01*
X170382428Y-109026735D02*
X170346714Y-109062450D01*
X170346714Y-109062450D02*
X170275285Y-109098164D01*
X170275285Y-109098164D02*
X170060999Y-109098164D01*
X170060999Y-109098164D02*
X169989571Y-109062450D01*
X169989571Y-109062450D02*
X169953856Y-109026735D01*
X171275285Y-108312450D02*
X170632428Y-109276735D01*
X171525285Y-109098164D02*
X171525285Y-108348164D01*
X171525285Y-108348164D02*
X171810999Y-108348164D01*
X171810999Y-108348164D02*
X171882428Y-108383878D01*
X171882428Y-108383878D02*
X171918142Y-108419592D01*
X171918142Y-108419592D02*
X171953856Y-108491021D01*
X171953856Y-108491021D02*
X171953856Y-108598164D01*
X171953856Y-108598164D02*
X171918142Y-108669592D01*
X171918142Y-108669592D02*
X171882428Y-108705307D01*
X171882428Y-108705307D02*
X171810999Y-108741021D01*
X171810999Y-108741021D02*
X171525285Y-108741021D01*
X172668142Y-109098164D02*
X172239571Y-109098164D01*
X172453856Y-109098164D02*
X172453856Y-108348164D01*
X172453856Y-108348164D02*
X172382428Y-108455307D01*
X172382428Y-108455307D02*
X172310999Y-108526735D01*
X172310999Y-108526735D02*
X172239571Y-108562450D01*
X172918142Y-108348164D02*
X173418142Y-108348164D01*
X173418142Y-108348164D02*
X173096714Y-109098164D01*
X168525285Y-117226164D02*
X168525285Y-116476164D01*
X168525285Y-116476164D02*
X168810999Y-116476164D01*
X168810999Y-116476164D02*
X168882428Y-116511878D01*
X168882428Y-116511878D02*
X168918142Y-116547592D01*
X168918142Y-116547592D02*
X168953856Y-116619021D01*
X168953856Y-116619021D02*
X168953856Y-116726164D01*
X168953856Y-116726164D02*
X168918142Y-116797592D01*
X168918142Y-116797592D02*
X168882428Y-116833307D01*
X168882428Y-116833307D02*
X168810999Y-116869021D01*
X168810999Y-116869021D02*
X168525285Y-116869021D01*
X169525285Y-116833307D02*
X169632428Y-116869021D01*
X169632428Y-116869021D02*
X169668142Y-116904735D01*
X169668142Y-116904735D02*
X169703856Y-116976164D01*
X169703856Y-116976164D02*
X169703856Y-117083307D01*
X169703856Y-117083307D02*
X169668142Y-117154735D01*
X169668142Y-117154735D02*
X169632428Y-117190450D01*
X169632428Y-117190450D02*
X169560999Y-117226164D01*
X169560999Y-117226164D02*
X169275285Y-117226164D01*
X169275285Y-117226164D02*
X169275285Y-116476164D01*
X169275285Y-116476164D02*
X169525285Y-116476164D01*
X169525285Y-116476164D02*
X169596714Y-116511878D01*
X169596714Y-116511878D02*
X169632428Y-116547592D01*
X169632428Y-116547592D02*
X169668142Y-116619021D01*
X169668142Y-116619021D02*
X169668142Y-116690450D01*
X169668142Y-116690450D02*
X169632428Y-116761878D01*
X169632428Y-116761878D02*
X169596714Y-116797592D01*
X169596714Y-116797592D02*
X169525285Y-116833307D01*
X169525285Y-116833307D02*
X169275285Y-116833307D01*
X170418142Y-117226164D02*
X169989571Y-117226164D01*
X170203856Y-117226164D02*
X170203856Y-116476164D01*
X170203856Y-116476164D02*
X170132428Y-116583307D01*
X170132428Y-116583307D02*
X170060999Y-116654735D01*
X170060999Y-116654735D02*
X169989571Y-116690450D01*
X171275285Y-116440450D02*
X170632428Y-117404735D01*
X171525285Y-117226164D02*
X171525285Y-116476164D01*
X171525285Y-116476164D02*
X171810999Y-116476164D01*
X171810999Y-116476164D02*
X171882428Y-116511878D01*
X171882428Y-116511878D02*
X171918142Y-116547592D01*
X171918142Y-116547592D02*
X171953856Y-116619021D01*
X171953856Y-116619021D02*
X171953856Y-116726164D01*
X171953856Y-116726164D02*
X171918142Y-116797592D01*
X171918142Y-116797592D02*
X171882428Y-116833307D01*
X171882428Y-116833307D02*
X171810999Y-116869021D01*
X171810999Y-116869021D02*
X171525285Y-116869021D01*
X172668142Y-117226164D02*
X172239571Y-117226164D01*
X172453856Y-117226164D02*
X172453856Y-116476164D01*
X172453856Y-116476164D02*
X172382428Y-116583307D01*
X172382428Y-116583307D02*
X172310999Y-116654735D01*
X172310999Y-116654735D02*
X172239571Y-116690450D01*
X173346714Y-116476164D02*
X172989571Y-116476164D01*
X172989571Y-116476164D02*
X172953857Y-116833307D01*
X172953857Y-116833307D02*
X172989571Y-116797592D01*
X172989571Y-116797592D02*
X173061000Y-116761878D01*
X173061000Y-116761878D02*
X173239571Y-116761878D01*
X173239571Y-116761878D02*
X173311000Y-116797592D01*
X173311000Y-116797592D02*
X173346714Y-116833307D01*
X173346714Y-116833307D02*
X173382428Y-116904735D01*
X173382428Y-116904735D02*
X173382428Y-117083307D01*
X173382428Y-117083307D02*
X173346714Y-117154735D01*
X173346714Y-117154735D02*
X173311000Y-117190450D01*
X173311000Y-117190450D02*
X173239571Y-117226164D01*
X173239571Y-117226164D02*
X173061000Y-117226164D01*
X173061000Y-117226164D02*
X172989571Y-117190450D01*
X172989571Y-117190450D02*
X172953857Y-117154735D01*
X128750428Y-76586164D02*
X128750428Y-75836164D01*
X128750428Y-75836164D02*
X129036142Y-75836164D01*
X129036142Y-75836164D02*
X129107571Y-75871878D01*
X129107571Y-75871878D02*
X129143285Y-75907592D01*
X129143285Y-75907592D02*
X129178999Y-75979021D01*
X129178999Y-75979021D02*
X129178999Y-76086164D01*
X129178999Y-76086164D02*
X129143285Y-76157592D01*
X129143285Y-76157592D02*
X129107571Y-76193307D01*
X129107571Y-76193307D02*
X129036142Y-76229021D01*
X129036142Y-76229021D02*
X128750428Y-76229021D01*
X129500428Y-76586164D02*
X129500428Y-75836164D01*
X129500428Y-75836164D02*
X129678999Y-75836164D01*
X129678999Y-75836164D02*
X129786142Y-75871878D01*
X129786142Y-75871878D02*
X129857571Y-75943307D01*
X129857571Y-75943307D02*
X129893285Y-76014735D01*
X129893285Y-76014735D02*
X129928999Y-76157592D01*
X129928999Y-76157592D02*
X129928999Y-76264735D01*
X129928999Y-76264735D02*
X129893285Y-76407592D01*
X129893285Y-76407592D02*
X129857571Y-76479021D01*
X129857571Y-76479021D02*
X129786142Y-76550450D01*
X129786142Y-76550450D02*
X129678999Y-76586164D01*
X129678999Y-76586164D02*
X129500428Y-76586164D01*
X130214714Y-75907592D02*
X130250428Y-75871878D01*
X130250428Y-75871878D02*
X130321857Y-75836164D01*
X130321857Y-75836164D02*
X130500428Y-75836164D01*
X130500428Y-75836164D02*
X130571857Y-75871878D01*
X130571857Y-75871878D02*
X130607571Y-75907592D01*
X130607571Y-75907592D02*
X130643285Y-75979021D01*
X130643285Y-75979021D02*
X130643285Y-76050450D01*
X130643285Y-76050450D02*
X130607571Y-76157592D01*
X130607571Y-76157592D02*
X130178999Y-76586164D01*
X130178999Y-76586164D02*
X130643285Y-76586164D01*
X131500428Y-75800450D02*
X130857571Y-76764735D01*
X131750428Y-76586164D02*
X131750428Y-75836164D01*
X131750428Y-75836164D02*
X132036142Y-75836164D01*
X132036142Y-75836164D02*
X132107571Y-75871878D01*
X132107571Y-75871878D02*
X132143285Y-75907592D01*
X132143285Y-75907592D02*
X132178999Y-75979021D01*
X132178999Y-75979021D02*
X132178999Y-76086164D01*
X132178999Y-76086164D02*
X132143285Y-76157592D01*
X132143285Y-76157592D02*
X132107571Y-76193307D01*
X132107571Y-76193307D02*
X132036142Y-76229021D01*
X132036142Y-76229021D02*
X131750428Y-76229021D01*
X132821857Y-76086164D02*
X132821857Y-76586164D01*
X132643285Y-75800450D02*
X132464714Y-76336164D01*
X132464714Y-76336164D02*
X132928999Y-76336164D01*
X168239572Y-92627878D02*
X168596715Y-92627878D01*
X168168143Y-92842164D02*
X168418143Y-92092164D01*
X168418143Y-92092164D02*
X168668143Y-92842164D01*
X169346714Y-92842164D02*
X169096714Y-92485021D01*
X168918143Y-92842164D02*
X168918143Y-92092164D01*
X168918143Y-92092164D02*
X169203857Y-92092164D01*
X169203857Y-92092164D02*
X169275286Y-92127878D01*
X169275286Y-92127878D02*
X169311000Y-92163592D01*
X169311000Y-92163592D02*
X169346714Y-92235021D01*
X169346714Y-92235021D02*
X169346714Y-92342164D01*
X169346714Y-92342164D02*
X169311000Y-92413592D01*
X169311000Y-92413592D02*
X169275286Y-92449307D01*
X169275286Y-92449307D02*
X169203857Y-92485021D01*
X169203857Y-92485021D02*
X168918143Y-92485021D01*
X169668143Y-92449307D02*
X169918143Y-92449307D01*
X170025286Y-92842164D02*
X169668143Y-92842164D01*
X169668143Y-92842164D02*
X169668143Y-92092164D01*
X169668143Y-92092164D02*
X170025286Y-92092164D01*
X170596714Y-92449307D02*
X170346714Y-92449307D01*
X170346714Y-92842164D02*
X170346714Y-92092164D01*
X170346714Y-92092164D02*
X170703857Y-92092164D01*
X171525285Y-92056450D02*
X170882428Y-93020735D01*
X171775285Y-92842164D02*
X171775285Y-92092164D01*
X171775285Y-92092164D02*
X172060999Y-92092164D01*
X172060999Y-92092164D02*
X172132428Y-92127878D01*
X172132428Y-92127878D02*
X172168142Y-92163592D01*
X172168142Y-92163592D02*
X172203856Y-92235021D01*
X172203856Y-92235021D02*
X172203856Y-92342164D01*
X172203856Y-92342164D02*
X172168142Y-92413592D01*
X172168142Y-92413592D02*
X172132428Y-92449307D01*
X172132428Y-92449307D02*
X172060999Y-92485021D01*
X172060999Y-92485021D02*
X171775285Y-92485021D01*
X172489571Y-92163592D02*
X172525285Y-92127878D01*
X172525285Y-92127878D02*
X172596714Y-92092164D01*
X172596714Y-92092164D02*
X172775285Y-92092164D01*
X172775285Y-92092164D02*
X172846714Y-92127878D01*
X172846714Y-92127878D02*
X172882428Y-92163592D01*
X172882428Y-92163592D02*
X172918142Y-92235021D01*
X172918142Y-92235021D02*
X172918142Y-92306450D01*
X172918142Y-92306450D02*
X172882428Y-92413592D01*
X172882428Y-92413592D02*
X172453856Y-92842164D01*
X172453856Y-92842164D02*
X172918142Y-92842164D01*
X173632428Y-92842164D02*
X173203857Y-92842164D01*
X173418142Y-92842164D02*
X173418142Y-92092164D01*
X173418142Y-92092164D02*
X173346714Y-92199307D01*
X173346714Y-92199307D02*
X173275285Y-92270735D01*
X173275285Y-92270735D02*
X173203857Y-92306450D01*
X128750428Y-96906164D02*
X128750428Y-96156164D01*
X128750428Y-96156164D02*
X129036142Y-96156164D01*
X129036142Y-96156164D02*
X129107571Y-96191878D01*
X129107571Y-96191878D02*
X129143285Y-96227592D01*
X129143285Y-96227592D02*
X129178999Y-96299021D01*
X129178999Y-96299021D02*
X129178999Y-96406164D01*
X129178999Y-96406164D02*
X129143285Y-96477592D01*
X129143285Y-96477592D02*
X129107571Y-96513307D01*
X129107571Y-96513307D02*
X129036142Y-96549021D01*
X129036142Y-96549021D02*
X128750428Y-96549021D01*
X129750428Y-96513307D02*
X129857571Y-96549021D01*
X129857571Y-96549021D02*
X129893285Y-96584735D01*
X129893285Y-96584735D02*
X129928999Y-96656164D01*
X129928999Y-96656164D02*
X129928999Y-96763307D01*
X129928999Y-96763307D02*
X129893285Y-96834735D01*
X129893285Y-96834735D02*
X129857571Y-96870450D01*
X129857571Y-96870450D02*
X129786142Y-96906164D01*
X129786142Y-96906164D02*
X129500428Y-96906164D01*
X129500428Y-96906164D02*
X129500428Y-96156164D01*
X129500428Y-96156164D02*
X129750428Y-96156164D01*
X129750428Y-96156164D02*
X129821857Y-96191878D01*
X129821857Y-96191878D02*
X129857571Y-96227592D01*
X129857571Y-96227592D02*
X129893285Y-96299021D01*
X129893285Y-96299021D02*
X129893285Y-96370450D01*
X129893285Y-96370450D02*
X129857571Y-96441878D01*
X129857571Y-96441878D02*
X129821857Y-96477592D01*
X129821857Y-96477592D02*
X129750428Y-96513307D01*
X129750428Y-96513307D02*
X129500428Y-96513307D01*
X130571857Y-96156164D02*
X130428999Y-96156164D01*
X130428999Y-96156164D02*
X130357571Y-96191878D01*
X130357571Y-96191878D02*
X130321857Y-96227592D01*
X130321857Y-96227592D02*
X130250428Y-96334735D01*
X130250428Y-96334735D02*
X130214714Y-96477592D01*
X130214714Y-96477592D02*
X130214714Y-96763307D01*
X130214714Y-96763307D02*
X130250428Y-96834735D01*
X130250428Y-96834735D02*
X130286142Y-96870450D01*
X130286142Y-96870450D02*
X130357571Y-96906164D01*
X130357571Y-96906164D02*
X130500428Y-96906164D01*
X130500428Y-96906164D02*
X130571857Y-96870450D01*
X130571857Y-96870450D02*
X130607571Y-96834735D01*
X130607571Y-96834735D02*
X130643285Y-96763307D01*
X130643285Y-96763307D02*
X130643285Y-96584735D01*
X130643285Y-96584735D02*
X130607571Y-96513307D01*
X130607571Y-96513307D02*
X130571857Y-96477592D01*
X130571857Y-96477592D02*
X130500428Y-96441878D01*
X130500428Y-96441878D02*
X130357571Y-96441878D01*
X130357571Y-96441878D02*
X130286142Y-96477592D01*
X130286142Y-96477592D02*
X130250428Y-96513307D01*
X130250428Y-96513307D02*
X130214714Y-96584735D01*
X131500428Y-96120450D02*
X130857571Y-97084735D01*
X131750428Y-96906164D02*
X131750428Y-96156164D01*
X131750428Y-96156164D02*
X132036142Y-96156164D01*
X132036142Y-96156164D02*
X132107571Y-96191878D01*
X132107571Y-96191878D02*
X132143285Y-96227592D01*
X132143285Y-96227592D02*
X132178999Y-96299021D01*
X132178999Y-96299021D02*
X132178999Y-96406164D01*
X132178999Y-96406164D02*
X132143285Y-96477592D01*
X132143285Y-96477592D02*
X132107571Y-96513307D01*
X132107571Y-96513307D02*
X132036142Y-96549021D01*
X132036142Y-96549021D02*
X131750428Y-96549021D01*
X132536142Y-96906164D02*
X132678999Y-96906164D01*
X132678999Y-96906164D02*
X132750428Y-96870450D01*
X132750428Y-96870450D02*
X132786142Y-96834735D01*
X132786142Y-96834735D02*
X132857571Y-96727592D01*
X132857571Y-96727592D02*
X132893285Y-96584735D01*
X132893285Y-96584735D02*
X132893285Y-96299021D01*
X132893285Y-96299021D02*
X132857571Y-96227592D01*
X132857571Y-96227592D02*
X132821857Y-96191878D01*
X132821857Y-96191878D02*
X132750428Y-96156164D01*
X132750428Y-96156164D02*
X132607571Y-96156164D01*
X132607571Y-96156164D02*
X132536142Y-96191878D01*
X132536142Y-96191878D02*
X132500428Y-96227592D01*
X132500428Y-96227592D02*
X132464714Y-96299021D01*
X132464714Y-96299021D02*
X132464714Y-96477592D01*
X132464714Y-96477592D02*
X132500428Y-96549021D01*
X132500428Y-96549021D02*
X132536142Y-96584735D01*
X132536142Y-96584735D02*
X132607571Y-96620450D01*
X132607571Y-96620450D02*
X132750428Y-96620450D01*
X132750428Y-96620450D02*
X132821857Y-96584735D01*
X132821857Y-96584735D02*
X132857571Y-96549021D01*
X132857571Y-96549021D02*
X132893285Y-96477592D01*
X168525285Y-68458164D02*
X168525285Y-67708164D01*
X168525285Y-67708164D02*
X168810999Y-67708164D01*
X168810999Y-67708164D02*
X168882428Y-67743878D01*
X168882428Y-67743878D02*
X168918142Y-67779592D01*
X168918142Y-67779592D02*
X168953856Y-67851021D01*
X168953856Y-67851021D02*
X168953856Y-67958164D01*
X168953856Y-67958164D02*
X168918142Y-68029592D01*
X168918142Y-68029592D02*
X168882428Y-68065307D01*
X168882428Y-68065307D02*
X168810999Y-68101021D01*
X168810999Y-68101021D02*
X168525285Y-68101021D01*
X169275285Y-68458164D02*
X169275285Y-67708164D01*
X169275285Y-67708164D02*
X169453856Y-67708164D01*
X169453856Y-67708164D02*
X169560999Y-67743878D01*
X169560999Y-67743878D02*
X169632428Y-67815307D01*
X169632428Y-67815307D02*
X169668142Y-67886735D01*
X169668142Y-67886735D02*
X169703856Y-68029592D01*
X169703856Y-68029592D02*
X169703856Y-68136735D01*
X169703856Y-68136735D02*
X169668142Y-68279592D01*
X169668142Y-68279592D02*
X169632428Y-68351021D01*
X169632428Y-68351021D02*
X169560999Y-68422450D01*
X169560999Y-68422450D02*
X169453856Y-68458164D01*
X169453856Y-68458164D02*
X169275285Y-68458164D01*
X170346714Y-67958164D02*
X170346714Y-68458164D01*
X170168142Y-67672450D02*
X169989571Y-68208164D01*
X169989571Y-68208164D02*
X170453856Y-68208164D01*
X171275285Y-67672450D02*
X170632428Y-68636735D01*
X171525285Y-68458164D02*
X171525285Y-67708164D01*
X171525285Y-67708164D02*
X171810999Y-67708164D01*
X171810999Y-67708164D02*
X171882428Y-67743878D01*
X171882428Y-67743878D02*
X171918142Y-67779592D01*
X171918142Y-67779592D02*
X171953856Y-67851021D01*
X171953856Y-67851021D02*
X171953856Y-67958164D01*
X171953856Y-67958164D02*
X171918142Y-68029592D01*
X171918142Y-68029592D02*
X171882428Y-68065307D01*
X171882428Y-68065307D02*
X171810999Y-68101021D01*
X171810999Y-68101021D02*
X171525285Y-68101021D01*
X172239571Y-67779592D02*
X172275285Y-67743878D01*
X172275285Y-67743878D02*
X172346714Y-67708164D01*
X172346714Y-67708164D02*
X172525285Y-67708164D01*
X172525285Y-67708164D02*
X172596714Y-67743878D01*
X172596714Y-67743878D02*
X172632428Y-67779592D01*
X172632428Y-67779592D02*
X172668142Y-67851021D01*
X172668142Y-67851021D02*
X172668142Y-67922450D01*
X172668142Y-67922450D02*
X172632428Y-68029592D01*
X172632428Y-68029592D02*
X172203856Y-68458164D01*
X172203856Y-68458164D02*
X172668142Y-68458164D01*
X172918142Y-67708164D02*
X173418142Y-67708164D01*
X173418142Y-67708164D02*
X173096714Y-68458164D01*
X128393285Y-109098164D02*
X128393285Y-108348164D01*
X128393285Y-108348164D02*
X128678999Y-108348164D01*
X128678999Y-108348164D02*
X128750428Y-108383878D01*
X128750428Y-108383878D02*
X128786142Y-108419592D01*
X128786142Y-108419592D02*
X128821856Y-108491021D01*
X128821856Y-108491021D02*
X128821856Y-108598164D01*
X128821856Y-108598164D02*
X128786142Y-108669592D01*
X128786142Y-108669592D02*
X128750428Y-108705307D01*
X128750428Y-108705307D02*
X128678999Y-108741021D01*
X128678999Y-108741021D02*
X128393285Y-108741021D01*
X129143285Y-109098164D02*
X129143285Y-108348164D01*
X129143285Y-108348164D02*
X129321856Y-108348164D01*
X129321856Y-108348164D02*
X129428999Y-108383878D01*
X129428999Y-108383878D02*
X129500428Y-108455307D01*
X129500428Y-108455307D02*
X129536142Y-108526735D01*
X129536142Y-108526735D02*
X129571856Y-108669592D01*
X129571856Y-108669592D02*
X129571856Y-108776735D01*
X129571856Y-108776735D02*
X129536142Y-108919592D01*
X129536142Y-108919592D02*
X129500428Y-108991021D01*
X129500428Y-108991021D02*
X129428999Y-109062450D01*
X129428999Y-109062450D02*
X129321856Y-109098164D01*
X129321856Y-109098164D02*
X129143285Y-109098164D01*
X130214714Y-108348164D02*
X130071856Y-108348164D01*
X130071856Y-108348164D02*
X130000428Y-108383878D01*
X130000428Y-108383878D02*
X129964714Y-108419592D01*
X129964714Y-108419592D02*
X129893285Y-108526735D01*
X129893285Y-108526735D02*
X129857571Y-108669592D01*
X129857571Y-108669592D02*
X129857571Y-108955307D01*
X129857571Y-108955307D02*
X129893285Y-109026735D01*
X129893285Y-109026735D02*
X129928999Y-109062450D01*
X129928999Y-109062450D02*
X130000428Y-109098164D01*
X130000428Y-109098164D02*
X130143285Y-109098164D01*
X130143285Y-109098164D02*
X130214714Y-109062450D01*
X130214714Y-109062450D02*
X130250428Y-109026735D01*
X130250428Y-109026735D02*
X130286142Y-108955307D01*
X130286142Y-108955307D02*
X130286142Y-108776735D01*
X130286142Y-108776735D02*
X130250428Y-108705307D01*
X130250428Y-108705307D02*
X130214714Y-108669592D01*
X130214714Y-108669592D02*
X130143285Y-108633878D01*
X130143285Y-108633878D02*
X130000428Y-108633878D01*
X130000428Y-108633878D02*
X129928999Y-108669592D01*
X129928999Y-108669592D02*
X129893285Y-108705307D01*
X129893285Y-108705307D02*
X129857571Y-108776735D01*
X131143285Y-108312450D02*
X130500428Y-109276735D01*
X131393285Y-109098164D02*
X131393285Y-108348164D01*
X131393285Y-108348164D02*
X131678999Y-108348164D01*
X131678999Y-108348164D02*
X131750428Y-108383878D01*
X131750428Y-108383878D02*
X131786142Y-108419592D01*
X131786142Y-108419592D02*
X131821856Y-108491021D01*
X131821856Y-108491021D02*
X131821856Y-108598164D01*
X131821856Y-108598164D02*
X131786142Y-108669592D01*
X131786142Y-108669592D02*
X131750428Y-108705307D01*
X131750428Y-108705307D02*
X131678999Y-108741021D01*
X131678999Y-108741021D02*
X131393285Y-108741021D01*
X132536142Y-109098164D02*
X132107571Y-109098164D01*
X132321856Y-109098164D02*
X132321856Y-108348164D01*
X132321856Y-108348164D02*
X132250428Y-108455307D01*
X132250428Y-108455307D02*
X132178999Y-108526735D01*
X132178999Y-108526735D02*
X132107571Y-108562450D01*
X132821857Y-108419592D02*
X132857571Y-108383878D01*
X132857571Y-108383878D02*
X132929000Y-108348164D01*
X132929000Y-108348164D02*
X133107571Y-108348164D01*
X133107571Y-108348164D02*
X133179000Y-108383878D01*
X133179000Y-108383878D02*
X133214714Y-108419592D01*
X133214714Y-108419592D02*
X133250428Y-108491021D01*
X133250428Y-108491021D02*
X133250428Y-108562450D01*
X133250428Y-108562450D02*
X133214714Y-108669592D01*
X133214714Y-108669592D02*
X132786142Y-109098164D01*
X132786142Y-109098164D02*
X133250428Y-109098164D01*
X168525285Y-72522164D02*
X168525285Y-71772164D01*
X168525285Y-71772164D02*
X168810999Y-71772164D01*
X168810999Y-71772164D02*
X168882428Y-71807878D01*
X168882428Y-71807878D02*
X168918142Y-71843592D01*
X168918142Y-71843592D02*
X168953856Y-71915021D01*
X168953856Y-71915021D02*
X168953856Y-72022164D01*
X168953856Y-72022164D02*
X168918142Y-72093592D01*
X168918142Y-72093592D02*
X168882428Y-72129307D01*
X168882428Y-72129307D02*
X168810999Y-72165021D01*
X168810999Y-72165021D02*
X168525285Y-72165021D01*
X169275285Y-72522164D02*
X169275285Y-71772164D01*
X169275285Y-71772164D02*
X169453856Y-71772164D01*
X169453856Y-71772164D02*
X169560999Y-71807878D01*
X169560999Y-71807878D02*
X169632428Y-71879307D01*
X169632428Y-71879307D02*
X169668142Y-71950735D01*
X169668142Y-71950735D02*
X169703856Y-72093592D01*
X169703856Y-72093592D02*
X169703856Y-72200735D01*
X169703856Y-72200735D02*
X169668142Y-72343592D01*
X169668142Y-72343592D02*
X169632428Y-72415021D01*
X169632428Y-72415021D02*
X169560999Y-72486450D01*
X169560999Y-72486450D02*
X169453856Y-72522164D01*
X169453856Y-72522164D02*
X169275285Y-72522164D01*
X169953856Y-71772164D02*
X170418142Y-71772164D01*
X170418142Y-71772164D02*
X170168142Y-72057878D01*
X170168142Y-72057878D02*
X170275285Y-72057878D01*
X170275285Y-72057878D02*
X170346714Y-72093592D01*
X170346714Y-72093592D02*
X170382428Y-72129307D01*
X170382428Y-72129307D02*
X170418142Y-72200735D01*
X170418142Y-72200735D02*
X170418142Y-72379307D01*
X170418142Y-72379307D02*
X170382428Y-72450735D01*
X170382428Y-72450735D02*
X170346714Y-72486450D01*
X170346714Y-72486450D02*
X170275285Y-72522164D01*
X170275285Y-72522164D02*
X170060999Y-72522164D01*
X170060999Y-72522164D02*
X169989571Y-72486450D01*
X169989571Y-72486450D02*
X169953856Y-72450735D01*
X171275285Y-71736450D02*
X170632428Y-72700735D01*
X171525285Y-72522164D02*
X171525285Y-71772164D01*
X171525285Y-71772164D02*
X171810999Y-71772164D01*
X171810999Y-71772164D02*
X171882428Y-71807878D01*
X171882428Y-71807878D02*
X171918142Y-71843592D01*
X171918142Y-71843592D02*
X171953856Y-71915021D01*
X171953856Y-71915021D02*
X171953856Y-72022164D01*
X171953856Y-72022164D02*
X171918142Y-72093592D01*
X171918142Y-72093592D02*
X171882428Y-72129307D01*
X171882428Y-72129307D02*
X171810999Y-72165021D01*
X171810999Y-72165021D02*
X171525285Y-72165021D01*
X172239571Y-71843592D02*
X172275285Y-71807878D01*
X172275285Y-71807878D02*
X172346714Y-71772164D01*
X172346714Y-71772164D02*
X172525285Y-71772164D01*
X172525285Y-71772164D02*
X172596714Y-71807878D01*
X172596714Y-71807878D02*
X172632428Y-71843592D01*
X172632428Y-71843592D02*
X172668142Y-71915021D01*
X172668142Y-71915021D02*
X172668142Y-71986450D01*
X172668142Y-71986450D02*
X172632428Y-72093592D01*
X172632428Y-72093592D02*
X172203856Y-72522164D01*
X172203856Y-72522164D02*
X172668142Y-72522164D01*
X173311000Y-71772164D02*
X173168142Y-71772164D01*
X173168142Y-71772164D02*
X173096714Y-71807878D01*
X173096714Y-71807878D02*
X173061000Y-71843592D01*
X173061000Y-71843592D02*
X172989571Y-71950735D01*
X172989571Y-71950735D02*
X172953857Y-72093592D01*
X172953857Y-72093592D02*
X172953857Y-72379307D01*
X172953857Y-72379307D02*
X172989571Y-72450735D01*
X172989571Y-72450735D02*
X173025285Y-72486450D01*
X173025285Y-72486450D02*
X173096714Y-72522164D01*
X173096714Y-72522164D02*
X173239571Y-72522164D01*
X173239571Y-72522164D02*
X173311000Y-72486450D01*
X173311000Y-72486450D02*
X173346714Y-72450735D01*
X173346714Y-72450735D02*
X173382428Y-72379307D01*
X173382428Y-72379307D02*
X173382428Y-72200735D01*
X173382428Y-72200735D02*
X173346714Y-72129307D01*
X173346714Y-72129307D02*
X173311000Y-72093592D01*
X173311000Y-72093592D02*
X173239571Y-72057878D01*
X173239571Y-72057878D02*
X173096714Y-72057878D01*
X173096714Y-72057878D02*
X173025285Y-72093592D01*
X173025285Y-72093592D02*
X172989571Y-72129307D01*
X172989571Y-72129307D02*
X172953857Y-72200735D01*
X168525285Y-105034164D02*
X168525285Y-104284164D01*
X168525285Y-104284164D02*
X168810999Y-104284164D01*
X168810999Y-104284164D02*
X168882428Y-104319878D01*
X168882428Y-104319878D02*
X168918142Y-104355592D01*
X168918142Y-104355592D02*
X168953856Y-104427021D01*
X168953856Y-104427021D02*
X168953856Y-104534164D01*
X168953856Y-104534164D02*
X168918142Y-104605592D01*
X168918142Y-104605592D02*
X168882428Y-104641307D01*
X168882428Y-104641307D02*
X168810999Y-104677021D01*
X168810999Y-104677021D02*
X168525285Y-104677021D01*
X169525285Y-104641307D02*
X169632428Y-104677021D01*
X169632428Y-104677021D02*
X169668142Y-104712735D01*
X169668142Y-104712735D02*
X169703856Y-104784164D01*
X169703856Y-104784164D02*
X169703856Y-104891307D01*
X169703856Y-104891307D02*
X169668142Y-104962735D01*
X169668142Y-104962735D02*
X169632428Y-104998450D01*
X169632428Y-104998450D02*
X169560999Y-105034164D01*
X169560999Y-105034164D02*
X169275285Y-105034164D01*
X169275285Y-105034164D02*
X169275285Y-104284164D01*
X169275285Y-104284164D02*
X169525285Y-104284164D01*
X169525285Y-104284164D02*
X169596714Y-104319878D01*
X169596714Y-104319878D02*
X169632428Y-104355592D01*
X169632428Y-104355592D02*
X169668142Y-104427021D01*
X169668142Y-104427021D02*
X169668142Y-104498450D01*
X169668142Y-104498450D02*
X169632428Y-104569878D01*
X169632428Y-104569878D02*
X169596714Y-104605592D01*
X169596714Y-104605592D02*
X169525285Y-104641307D01*
X169525285Y-104641307D02*
X169275285Y-104641307D01*
X170346714Y-104534164D02*
X170346714Y-105034164D01*
X170168142Y-104248450D02*
X169989571Y-104784164D01*
X169989571Y-104784164D02*
X170453856Y-104784164D01*
X171275285Y-104248450D02*
X170632428Y-105212735D01*
X171525285Y-105034164D02*
X171525285Y-104284164D01*
X171525285Y-104284164D02*
X171810999Y-104284164D01*
X171810999Y-104284164D02*
X171882428Y-104319878D01*
X171882428Y-104319878D02*
X171918142Y-104355592D01*
X171918142Y-104355592D02*
X171953856Y-104427021D01*
X171953856Y-104427021D02*
X171953856Y-104534164D01*
X171953856Y-104534164D02*
X171918142Y-104605592D01*
X171918142Y-104605592D02*
X171882428Y-104641307D01*
X171882428Y-104641307D02*
X171810999Y-104677021D01*
X171810999Y-104677021D02*
X171525285Y-104677021D01*
X172668142Y-105034164D02*
X172239571Y-105034164D01*
X172453856Y-105034164D02*
X172453856Y-104284164D01*
X172453856Y-104284164D02*
X172382428Y-104391307D01*
X172382428Y-104391307D02*
X172310999Y-104462735D01*
X172310999Y-104462735D02*
X172239571Y-104498450D01*
X173096714Y-104605592D02*
X173025285Y-104569878D01*
X173025285Y-104569878D02*
X172989571Y-104534164D01*
X172989571Y-104534164D02*
X172953857Y-104462735D01*
X172953857Y-104462735D02*
X172953857Y-104427021D01*
X172953857Y-104427021D02*
X172989571Y-104355592D01*
X172989571Y-104355592D02*
X173025285Y-104319878D01*
X173025285Y-104319878D02*
X173096714Y-104284164D01*
X173096714Y-104284164D02*
X173239571Y-104284164D01*
X173239571Y-104284164D02*
X173311000Y-104319878D01*
X173311000Y-104319878D02*
X173346714Y-104355592D01*
X173346714Y-104355592D02*
X173382428Y-104427021D01*
X173382428Y-104427021D02*
X173382428Y-104462735D01*
X173382428Y-104462735D02*
X173346714Y-104534164D01*
X173346714Y-104534164D02*
X173311000Y-104569878D01*
X173311000Y-104569878D02*
X173239571Y-104605592D01*
X173239571Y-104605592D02*
X173096714Y-104605592D01*
X173096714Y-104605592D02*
X173025285Y-104641307D01*
X173025285Y-104641307D02*
X172989571Y-104677021D01*
X172989571Y-104677021D02*
X172953857Y-104748450D01*
X172953857Y-104748450D02*
X172953857Y-104891307D01*
X172953857Y-104891307D02*
X172989571Y-104962735D01*
X172989571Y-104962735D02*
X173025285Y-104998450D01*
X173025285Y-104998450D02*
X173096714Y-105034164D01*
X173096714Y-105034164D02*
X173239571Y-105034164D01*
X173239571Y-105034164D02*
X173311000Y-104998450D01*
X173311000Y-104998450D02*
X173346714Y-104962735D01*
X173346714Y-104962735D02*
X173382428Y-104891307D01*
X173382428Y-104891307D02*
X173382428Y-104748450D01*
X173382428Y-104748450D02*
X173346714Y-104677021D01*
X173346714Y-104677021D02*
X173311000Y-104641307D01*
X173311000Y-104641307D02*
X173239571Y-104605592D01*
X128393285Y-117226164D02*
X128393285Y-116476164D01*
X128393285Y-116476164D02*
X128678999Y-116476164D01*
X128678999Y-116476164D02*
X128750428Y-116511878D01*
X128750428Y-116511878D02*
X128786142Y-116547592D01*
X128786142Y-116547592D02*
X128821856Y-116619021D01*
X128821856Y-116619021D02*
X128821856Y-116726164D01*
X128821856Y-116726164D02*
X128786142Y-116797592D01*
X128786142Y-116797592D02*
X128750428Y-116833307D01*
X128750428Y-116833307D02*
X128678999Y-116869021D01*
X128678999Y-116869021D02*
X128393285Y-116869021D01*
X129393285Y-116833307D02*
X129500428Y-116869021D01*
X129500428Y-116869021D02*
X129536142Y-116904735D01*
X129536142Y-116904735D02*
X129571856Y-116976164D01*
X129571856Y-116976164D02*
X129571856Y-117083307D01*
X129571856Y-117083307D02*
X129536142Y-117154735D01*
X129536142Y-117154735D02*
X129500428Y-117190450D01*
X129500428Y-117190450D02*
X129428999Y-117226164D01*
X129428999Y-117226164D02*
X129143285Y-117226164D01*
X129143285Y-117226164D02*
X129143285Y-116476164D01*
X129143285Y-116476164D02*
X129393285Y-116476164D01*
X129393285Y-116476164D02*
X129464714Y-116511878D01*
X129464714Y-116511878D02*
X129500428Y-116547592D01*
X129500428Y-116547592D02*
X129536142Y-116619021D01*
X129536142Y-116619021D02*
X129536142Y-116690450D01*
X129536142Y-116690450D02*
X129500428Y-116761878D01*
X129500428Y-116761878D02*
X129464714Y-116797592D01*
X129464714Y-116797592D02*
X129393285Y-116833307D01*
X129393285Y-116833307D02*
X129143285Y-116833307D01*
X130036142Y-116476164D02*
X130107571Y-116476164D01*
X130107571Y-116476164D02*
X130178999Y-116511878D01*
X130178999Y-116511878D02*
X130214714Y-116547592D01*
X130214714Y-116547592D02*
X130250428Y-116619021D01*
X130250428Y-116619021D02*
X130286142Y-116761878D01*
X130286142Y-116761878D02*
X130286142Y-116940450D01*
X130286142Y-116940450D02*
X130250428Y-117083307D01*
X130250428Y-117083307D02*
X130214714Y-117154735D01*
X130214714Y-117154735D02*
X130178999Y-117190450D01*
X130178999Y-117190450D02*
X130107571Y-117226164D01*
X130107571Y-117226164D02*
X130036142Y-117226164D01*
X130036142Y-117226164D02*
X129964714Y-117190450D01*
X129964714Y-117190450D02*
X129928999Y-117154735D01*
X129928999Y-117154735D02*
X129893285Y-117083307D01*
X129893285Y-117083307D02*
X129857571Y-116940450D01*
X129857571Y-116940450D02*
X129857571Y-116761878D01*
X129857571Y-116761878D02*
X129893285Y-116619021D01*
X129893285Y-116619021D02*
X129928999Y-116547592D01*
X129928999Y-116547592D02*
X129964714Y-116511878D01*
X129964714Y-116511878D02*
X130036142Y-116476164D01*
X131143285Y-116440450D02*
X130500428Y-117404735D01*
X131393285Y-117226164D02*
X131393285Y-116476164D01*
X131393285Y-116476164D02*
X131678999Y-116476164D01*
X131678999Y-116476164D02*
X131750428Y-116511878D01*
X131750428Y-116511878D02*
X131786142Y-116547592D01*
X131786142Y-116547592D02*
X131821856Y-116619021D01*
X131821856Y-116619021D02*
X131821856Y-116726164D01*
X131821856Y-116726164D02*
X131786142Y-116797592D01*
X131786142Y-116797592D02*
X131750428Y-116833307D01*
X131750428Y-116833307D02*
X131678999Y-116869021D01*
X131678999Y-116869021D02*
X131393285Y-116869021D01*
X132536142Y-117226164D02*
X132107571Y-117226164D01*
X132321856Y-117226164D02*
X132321856Y-116476164D01*
X132321856Y-116476164D02*
X132250428Y-116583307D01*
X132250428Y-116583307D02*
X132178999Y-116654735D01*
X132178999Y-116654735D02*
X132107571Y-116690450D01*
X133179000Y-116726164D02*
X133179000Y-117226164D01*
X133000428Y-116440450D02*
X132821857Y-116976164D01*
X132821857Y-116976164D02*
X133286142Y-116976164D01*
X128750428Y-64394164D02*
X128750428Y-63644164D01*
X128750428Y-63644164D02*
X129036142Y-63644164D01*
X129036142Y-63644164D02*
X129107571Y-63679878D01*
X129107571Y-63679878D02*
X129143285Y-63715592D01*
X129143285Y-63715592D02*
X129178999Y-63787021D01*
X129178999Y-63787021D02*
X129178999Y-63894164D01*
X129178999Y-63894164D02*
X129143285Y-63965592D01*
X129143285Y-63965592D02*
X129107571Y-64001307D01*
X129107571Y-64001307D02*
X129036142Y-64037021D01*
X129036142Y-64037021D02*
X128750428Y-64037021D01*
X129928999Y-64322735D02*
X129893285Y-64358450D01*
X129893285Y-64358450D02*
X129786142Y-64394164D01*
X129786142Y-64394164D02*
X129714714Y-64394164D01*
X129714714Y-64394164D02*
X129607571Y-64358450D01*
X129607571Y-64358450D02*
X129536142Y-64287021D01*
X129536142Y-64287021D02*
X129500428Y-64215592D01*
X129500428Y-64215592D02*
X129464714Y-64072735D01*
X129464714Y-64072735D02*
X129464714Y-63965592D01*
X129464714Y-63965592D02*
X129500428Y-63822735D01*
X129500428Y-63822735D02*
X129536142Y-63751307D01*
X129536142Y-63751307D02*
X129607571Y-63679878D01*
X129607571Y-63679878D02*
X129714714Y-63644164D01*
X129714714Y-63644164D02*
X129786142Y-63644164D01*
X129786142Y-63644164D02*
X129893285Y-63679878D01*
X129893285Y-63679878D02*
X129928999Y-63715592D01*
X130571857Y-63644164D02*
X130428999Y-63644164D01*
X130428999Y-63644164D02*
X130357571Y-63679878D01*
X130357571Y-63679878D02*
X130321857Y-63715592D01*
X130321857Y-63715592D02*
X130250428Y-63822735D01*
X130250428Y-63822735D02*
X130214714Y-63965592D01*
X130214714Y-63965592D02*
X130214714Y-64251307D01*
X130214714Y-64251307D02*
X130250428Y-64322735D01*
X130250428Y-64322735D02*
X130286142Y-64358450D01*
X130286142Y-64358450D02*
X130357571Y-64394164D01*
X130357571Y-64394164D02*
X130500428Y-64394164D01*
X130500428Y-64394164D02*
X130571857Y-64358450D01*
X130571857Y-64358450D02*
X130607571Y-64322735D01*
X130607571Y-64322735D02*
X130643285Y-64251307D01*
X130643285Y-64251307D02*
X130643285Y-64072735D01*
X130643285Y-64072735D02*
X130607571Y-64001307D01*
X130607571Y-64001307D02*
X130571857Y-63965592D01*
X130571857Y-63965592D02*
X130500428Y-63929878D01*
X130500428Y-63929878D02*
X130357571Y-63929878D01*
X130357571Y-63929878D02*
X130286142Y-63965592D01*
X130286142Y-63965592D02*
X130250428Y-64001307D01*
X130250428Y-64001307D02*
X130214714Y-64072735D01*
X131500428Y-63608450D02*
X130857571Y-64572735D01*
X131750428Y-64394164D02*
X131750428Y-63644164D01*
X131750428Y-63644164D02*
X132036142Y-63644164D01*
X132036142Y-63644164D02*
X132107571Y-63679878D01*
X132107571Y-63679878D02*
X132143285Y-63715592D01*
X132143285Y-63715592D02*
X132178999Y-63787021D01*
X132178999Y-63787021D02*
X132178999Y-63894164D01*
X132178999Y-63894164D02*
X132143285Y-63965592D01*
X132143285Y-63965592D02*
X132107571Y-64001307D01*
X132107571Y-64001307D02*
X132036142Y-64037021D01*
X132036142Y-64037021D02*
X131750428Y-64037021D01*
X132893285Y-64394164D02*
X132464714Y-64394164D01*
X132678999Y-64394164D02*
X132678999Y-63644164D01*
X132678999Y-63644164D02*
X132607571Y-63751307D01*
X132607571Y-63751307D02*
X132536142Y-63822735D01*
X132536142Y-63822735D02*
X132464714Y-63858450D01*
X168489571Y-84714164D02*
X168489571Y-83964164D01*
X168489571Y-83964164D02*
X168775285Y-83964164D01*
X168775285Y-83964164D02*
X168846714Y-83999878D01*
X168846714Y-83999878D02*
X168882428Y-84035592D01*
X168882428Y-84035592D02*
X168918142Y-84107021D01*
X168918142Y-84107021D02*
X168918142Y-84214164D01*
X168918142Y-84214164D02*
X168882428Y-84285592D01*
X168882428Y-84285592D02*
X168846714Y-84321307D01*
X168846714Y-84321307D02*
X168775285Y-84357021D01*
X168775285Y-84357021D02*
X168489571Y-84357021D01*
X169668142Y-84642735D02*
X169632428Y-84678450D01*
X169632428Y-84678450D02*
X169525285Y-84714164D01*
X169525285Y-84714164D02*
X169453857Y-84714164D01*
X169453857Y-84714164D02*
X169346714Y-84678450D01*
X169346714Y-84678450D02*
X169275285Y-84607021D01*
X169275285Y-84607021D02*
X169239571Y-84535592D01*
X169239571Y-84535592D02*
X169203857Y-84392735D01*
X169203857Y-84392735D02*
X169203857Y-84285592D01*
X169203857Y-84285592D02*
X169239571Y-84142735D01*
X169239571Y-84142735D02*
X169275285Y-84071307D01*
X169275285Y-84071307D02*
X169346714Y-83999878D01*
X169346714Y-83999878D02*
X169453857Y-83964164D01*
X169453857Y-83964164D02*
X169525285Y-83964164D01*
X169525285Y-83964164D02*
X169632428Y-83999878D01*
X169632428Y-83999878D02*
X169668142Y-84035592D01*
X170132428Y-83964164D02*
X170275285Y-83964164D01*
X170275285Y-83964164D02*
X170346714Y-83999878D01*
X170346714Y-83999878D02*
X170418142Y-84071307D01*
X170418142Y-84071307D02*
X170453857Y-84214164D01*
X170453857Y-84214164D02*
X170453857Y-84464164D01*
X170453857Y-84464164D02*
X170418142Y-84607021D01*
X170418142Y-84607021D02*
X170346714Y-84678450D01*
X170346714Y-84678450D02*
X170275285Y-84714164D01*
X170275285Y-84714164D02*
X170132428Y-84714164D01*
X170132428Y-84714164D02*
X170061000Y-84678450D01*
X170061000Y-84678450D02*
X169989571Y-84607021D01*
X169989571Y-84607021D02*
X169953857Y-84464164D01*
X169953857Y-84464164D02*
X169953857Y-84214164D01*
X169953857Y-84214164D02*
X169989571Y-84071307D01*
X169989571Y-84071307D02*
X170061000Y-83999878D01*
X170061000Y-83999878D02*
X170132428Y-83964164D01*
X171310999Y-83928450D02*
X170668142Y-84892735D01*
X171560999Y-84714164D02*
X171560999Y-83964164D01*
X171560999Y-83964164D02*
X171846713Y-83964164D01*
X171846713Y-83964164D02*
X171918142Y-83999878D01*
X171918142Y-83999878D02*
X171953856Y-84035592D01*
X171953856Y-84035592D02*
X171989570Y-84107021D01*
X171989570Y-84107021D02*
X171989570Y-84214164D01*
X171989570Y-84214164D02*
X171953856Y-84285592D01*
X171953856Y-84285592D02*
X171918142Y-84321307D01*
X171918142Y-84321307D02*
X171846713Y-84357021D01*
X171846713Y-84357021D02*
X171560999Y-84357021D01*
X172275285Y-84035592D02*
X172310999Y-83999878D01*
X172310999Y-83999878D02*
X172382428Y-83964164D01*
X172382428Y-83964164D02*
X172560999Y-83964164D01*
X172560999Y-83964164D02*
X172632428Y-83999878D01*
X172632428Y-83999878D02*
X172668142Y-84035592D01*
X172668142Y-84035592D02*
X172703856Y-84107021D01*
X172703856Y-84107021D02*
X172703856Y-84178450D01*
X172703856Y-84178450D02*
X172668142Y-84285592D01*
X172668142Y-84285592D02*
X172239570Y-84714164D01*
X172239570Y-84714164D02*
X172703856Y-84714164D01*
X172953856Y-83964164D02*
X173418142Y-83964164D01*
X173418142Y-83964164D02*
X173168142Y-84249878D01*
X173168142Y-84249878D02*
X173275285Y-84249878D01*
X173275285Y-84249878D02*
X173346714Y-84285592D01*
X173346714Y-84285592D02*
X173382428Y-84321307D01*
X173382428Y-84321307D02*
X173418142Y-84392735D01*
X173418142Y-84392735D02*
X173418142Y-84571307D01*
X173418142Y-84571307D02*
X173382428Y-84642735D01*
X173382428Y-84642735D02*
X173346714Y-84678450D01*
X173346714Y-84678450D02*
X173275285Y-84714164D01*
X173275285Y-84714164D02*
X173060999Y-84714164D01*
X173060999Y-84714164D02*
X172989571Y-84678450D01*
X172989571Y-84678450D02*
X172953856Y-84642735D01*
X128679000Y-88028164D02*
X128929000Y-88778164D01*
X128929000Y-88778164D02*
X129179000Y-88028164D01*
X129857571Y-88706735D02*
X129821857Y-88742450D01*
X129821857Y-88742450D02*
X129714714Y-88778164D01*
X129714714Y-88778164D02*
X129643286Y-88778164D01*
X129643286Y-88778164D02*
X129536143Y-88742450D01*
X129536143Y-88742450D02*
X129464714Y-88671021D01*
X129464714Y-88671021D02*
X129429000Y-88599592D01*
X129429000Y-88599592D02*
X129393286Y-88456735D01*
X129393286Y-88456735D02*
X129393286Y-88349592D01*
X129393286Y-88349592D02*
X129429000Y-88206735D01*
X129429000Y-88206735D02*
X129464714Y-88135307D01*
X129464714Y-88135307D02*
X129536143Y-88063878D01*
X129536143Y-88063878D02*
X129643286Y-88028164D01*
X129643286Y-88028164D02*
X129714714Y-88028164D01*
X129714714Y-88028164D02*
X129821857Y-88063878D01*
X129821857Y-88063878D02*
X129857571Y-88099592D01*
X130607571Y-88706735D02*
X130571857Y-88742450D01*
X130571857Y-88742450D02*
X130464714Y-88778164D01*
X130464714Y-88778164D02*
X130393286Y-88778164D01*
X130393286Y-88778164D02*
X130286143Y-88742450D01*
X130286143Y-88742450D02*
X130214714Y-88671021D01*
X130214714Y-88671021D02*
X130179000Y-88599592D01*
X130179000Y-88599592D02*
X130143286Y-88456735D01*
X130143286Y-88456735D02*
X130143286Y-88349592D01*
X130143286Y-88349592D02*
X130179000Y-88206735D01*
X130179000Y-88206735D02*
X130214714Y-88135307D01*
X130214714Y-88135307D02*
X130286143Y-88063878D01*
X130286143Y-88063878D02*
X130393286Y-88028164D01*
X130393286Y-88028164D02*
X130464714Y-88028164D01*
X130464714Y-88028164D02*
X130571857Y-88063878D01*
X130571857Y-88063878D02*
X130607571Y-88099592D01*
X131464714Y-87992450D02*
X130821857Y-88956735D01*
X131714714Y-88778164D02*
X131714714Y-88028164D01*
X131714714Y-88028164D02*
X132000428Y-88028164D01*
X132000428Y-88028164D02*
X132071857Y-88063878D01*
X132071857Y-88063878D02*
X132107571Y-88099592D01*
X132107571Y-88099592D02*
X132143285Y-88171021D01*
X132143285Y-88171021D02*
X132143285Y-88278164D01*
X132143285Y-88278164D02*
X132107571Y-88349592D01*
X132107571Y-88349592D02*
X132071857Y-88385307D01*
X132071857Y-88385307D02*
X132000428Y-88421021D01*
X132000428Y-88421021D02*
X131714714Y-88421021D01*
X132393285Y-88028164D02*
X132893285Y-88028164D01*
X132893285Y-88028164D02*
X132571857Y-88778164D01*
X168525285Y-113162164D02*
X168525285Y-112412164D01*
X168525285Y-112412164D02*
X168810999Y-112412164D01*
X168810999Y-112412164D02*
X168882428Y-112447878D01*
X168882428Y-112447878D02*
X168918142Y-112483592D01*
X168918142Y-112483592D02*
X168953856Y-112555021D01*
X168953856Y-112555021D02*
X168953856Y-112662164D01*
X168953856Y-112662164D02*
X168918142Y-112733592D01*
X168918142Y-112733592D02*
X168882428Y-112769307D01*
X168882428Y-112769307D02*
X168810999Y-112805021D01*
X168810999Y-112805021D02*
X168525285Y-112805021D01*
X169525285Y-112769307D02*
X169632428Y-112805021D01*
X169632428Y-112805021D02*
X169668142Y-112840735D01*
X169668142Y-112840735D02*
X169703856Y-112912164D01*
X169703856Y-112912164D02*
X169703856Y-113019307D01*
X169703856Y-113019307D02*
X169668142Y-113090735D01*
X169668142Y-113090735D02*
X169632428Y-113126450D01*
X169632428Y-113126450D02*
X169560999Y-113162164D01*
X169560999Y-113162164D02*
X169275285Y-113162164D01*
X169275285Y-113162164D02*
X169275285Y-112412164D01*
X169275285Y-112412164D02*
X169525285Y-112412164D01*
X169525285Y-112412164D02*
X169596714Y-112447878D01*
X169596714Y-112447878D02*
X169632428Y-112483592D01*
X169632428Y-112483592D02*
X169668142Y-112555021D01*
X169668142Y-112555021D02*
X169668142Y-112626450D01*
X169668142Y-112626450D02*
X169632428Y-112697878D01*
X169632428Y-112697878D02*
X169596714Y-112733592D01*
X169596714Y-112733592D02*
X169525285Y-112769307D01*
X169525285Y-112769307D02*
X169275285Y-112769307D01*
X169989571Y-112483592D02*
X170025285Y-112447878D01*
X170025285Y-112447878D02*
X170096714Y-112412164D01*
X170096714Y-112412164D02*
X170275285Y-112412164D01*
X170275285Y-112412164D02*
X170346714Y-112447878D01*
X170346714Y-112447878D02*
X170382428Y-112483592D01*
X170382428Y-112483592D02*
X170418142Y-112555021D01*
X170418142Y-112555021D02*
X170418142Y-112626450D01*
X170418142Y-112626450D02*
X170382428Y-112733592D01*
X170382428Y-112733592D02*
X169953856Y-113162164D01*
X169953856Y-113162164D02*
X170418142Y-113162164D01*
X171275285Y-112376450D02*
X170632428Y-113340735D01*
X171525285Y-113162164D02*
X171525285Y-112412164D01*
X171525285Y-112412164D02*
X171810999Y-112412164D01*
X171810999Y-112412164D02*
X171882428Y-112447878D01*
X171882428Y-112447878D02*
X171918142Y-112483592D01*
X171918142Y-112483592D02*
X171953856Y-112555021D01*
X171953856Y-112555021D02*
X171953856Y-112662164D01*
X171953856Y-112662164D02*
X171918142Y-112733592D01*
X171918142Y-112733592D02*
X171882428Y-112769307D01*
X171882428Y-112769307D02*
X171810999Y-112805021D01*
X171810999Y-112805021D02*
X171525285Y-112805021D01*
X172668142Y-113162164D02*
X172239571Y-113162164D01*
X172453856Y-113162164D02*
X172453856Y-112412164D01*
X172453856Y-112412164D02*
X172382428Y-112519307D01*
X172382428Y-112519307D02*
X172310999Y-112590735D01*
X172310999Y-112590735D02*
X172239571Y-112626450D01*
X173311000Y-112412164D02*
X173168142Y-112412164D01*
X173168142Y-112412164D02*
X173096714Y-112447878D01*
X173096714Y-112447878D02*
X173061000Y-112483592D01*
X173061000Y-112483592D02*
X172989571Y-112590735D01*
X172989571Y-112590735D02*
X172953857Y-112733592D01*
X172953857Y-112733592D02*
X172953857Y-113019307D01*
X172953857Y-113019307D02*
X172989571Y-113090735D01*
X172989571Y-113090735D02*
X173025285Y-113126450D01*
X173025285Y-113126450D02*
X173096714Y-113162164D01*
X173096714Y-113162164D02*
X173239571Y-113162164D01*
X173239571Y-113162164D02*
X173311000Y-113126450D01*
X173311000Y-113126450D02*
X173346714Y-113090735D01*
X173346714Y-113090735D02*
X173382428Y-113019307D01*
X173382428Y-113019307D02*
X173382428Y-112840735D01*
X173382428Y-112840735D02*
X173346714Y-112769307D01*
X173346714Y-112769307D02*
X173311000Y-112733592D01*
X173311000Y-112733592D02*
X173239571Y-112697878D01*
X173239571Y-112697878D02*
X173096714Y-112697878D01*
X173096714Y-112697878D02*
X173025285Y-112733592D01*
X173025285Y-112733592D02*
X172989571Y-112769307D01*
X172989571Y-112769307D02*
X172953857Y-112840735D01*
X128750427Y-80650164D02*
X128750427Y-79900164D01*
X128750427Y-79900164D02*
X129036141Y-79900164D01*
X129036141Y-79900164D02*
X129107570Y-79935878D01*
X129107570Y-79935878D02*
X129143284Y-79971592D01*
X129143284Y-79971592D02*
X129178998Y-80043021D01*
X129178998Y-80043021D02*
X129178998Y-80150164D01*
X129178998Y-80150164D02*
X129143284Y-80221592D01*
X129143284Y-80221592D02*
X129107570Y-80257307D01*
X129107570Y-80257307D02*
X129036141Y-80293021D01*
X129036141Y-80293021D02*
X128750427Y-80293021D01*
X129500427Y-80650164D02*
X129500427Y-79900164D01*
X129500427Y-79900164D02*
X129678998Y-79900164D01*
X129678998Y-79900164D02*
X129786141Y-79935878D01*
X129786141Y-79935878D02*
X129857570Y-80007307D01*
X129857570Y-80007307D02*
X129893284Y-80078735D01*
X129893284Y-80078735D02*
X129928998Y-80221592D01*
X129928998Y-80221592D02*
X129928998Y-80328735D01*
X129928998Y-80328735D02*
X129893284Y-80471592D01*
X129893284Y-80471592D02*
X129857570Y-80543021D01*
X129857570Y-80543021D02*
X129786141Y-80614450D01*
X129786141Y-80614450D02*
X129678998Y-80650164D01*
X129678998Y-80650164D02*
X129500427Y-80650164D01*
X130178998Y-79900164D02*
X130643284Y-79900164D01*
X130643284Y-79900164D02*
X130393284Y-80185878D01*
X130393284Y-80185878D02*
X130500427Y-80185878D01*
X130500427Y-80185878D02*
X130571856Y-80221592D01*
X130571856Y-80221592D02*
X130607570Y-80257307D01*
X130607570Y-80257307D02*
X130643284Y-80328735D01*
X130643284Y-80328735D02*
X130643284Y-80507307D01*
X130643284Y-80507307D02*
X130607570Y-80578735D01*
X130607570Y-80578735D02*
X130571856Y-80614450D01*
X130571856Y-80614450D02*
X130500427Y-80650164D01*
X130500427Y-80650164D02*
X130286141Y-80650164D01*
X130286141Y-80650164D02*
X130214713Y-80614450D01*
X130214713Y-80614450D02*
X130178998Y-80578735D01*
X131500427Y-79864450D02*
X130857570Y-80828735D01*
X131750427Y-80650164D02*
X131750427Y-79900164D01*
X131750427Y-79900164D02*
X132036141Y-79900164D01*
X132036141Y-79900164D02*
X132107570Y-79935878D01*
X132107570Y-79935878D02*
X132143284Y-79971592D01*
X132143284Y-79971592D02*
X132178998Y-80043021D01*
X132178998Y-80043021D02*
X132178998Y-80150164D01*
X132178998Y-80150164D02*
X132143284Y-80221592D01*
X132143284Y-80221592D02*
X132107570Y-80257307D01*
X132107570Y-80257307D02*
X132036141Y-80293021D01*
X132036141Y-80293021D02*
X131750427Y-80293021D01*
X132857570Y-79900164D02*
X132500427Y-79900164D01*
X132500427Y-79900164D02*
X132464713Y-80257307D01*
X132464713Y-80257307D02*
X132500427Y-80221592D01*
X132500427Y-80221592D02*
X132571856Y-80185878D01*
X132571856Y-80185878D02*
X132750427Y-80185878D01*
X132750427Y-80185878D02*
X132821856Y-80221592D01*
X132821856Y-80221592D02*
X132857570Y-80257307D01*
X132857570Y-80257307D02*
X132893284Y-80328735D01*
X132893284Y-80328735D02*
X132893284Y-80507307D01*
X132893284Y-80507307D02*
X132857570Y-80578735D01*
X132857570Y-80578735D02*
X132821856Y-80614450D01*
X132821856Y-80614450D02*
X132750427Y-80650164D01*
X132750427Y-80650164D02*
X132571856Y-80650164D01*
X132571856Y-80650164D02*
X132500427Y-80614450D01*
X132500427Y-80614450D02*
X132464713Y-80578735D01*
X128393285Y-113162164D02*
X128393285Y-112412164D01*
X128393285Y-112412164D02*
X128678999Y-112412164D01*
X128678999Y-112412164D02*
X128750428Y-112447878D01*
X128750428Y-112447878D02*
X128786142Y-112483592D01*
X128786142Y-112483592D02*
X128821856Y-112555021D01*
X128821856Y-112555021D02*
X128821856Y-112662164D01*
X128821856Y-112662164D02*
X128786142Y-112733592D01*
X128786142Y-112733592D02*
X128750428Y-112769307D01*
X128750428Y-112769307D02*
X128678999Y-112805021D01*
X128678999Y-112805021D02*
X128393285Y-112805021D01*
X129143285Y-113162164D02*
X129143285Y-112412164D01*
X129143285Y-112412164D02*
X129321856Y-112412164D01*
X129321856Y-112412164D02*
X129428999Y-112447878D01*
X129428999Y-112447878D02*
X129500428Y-112519307D01*
X129500428Y-112519307D02*
X129536142Y-112590735D01*
X129536142Y-112590735D02*
X129571856Y-112733592D01*
X129571856Y-112733592D02*
X129571856Y-112840735D01*
X129571856Y-112840735D02*
X129536142Y-112983592D01*
X129536142Y-112983592D02*
X129500428Y-113055021D01*
X129500428Y-113055021D02*
X129428999Y-113126450D01*
X129428999Y-113126450D02*
X129321856Y-113162164D01*
X129321856Y-113162164D02*
X129143285Y-113162164D01*
X129821856Y-112412164D02*
X130321856Y-112412164D01*
X130321856Y-112412164D02*
X130000428Y-113162164D01*
X131143285Y-112376450D02*
X130500428Y-113340735D01*
X131393285Y-113162164D02*
X131393285Y-112412164D01*
X131393285Y-112412164D02*
X131678999Y-112412164D01*
X131678999Y-112412164D02*
X131750428Y-112447878D01*
X131750428Y-112447878D02*
X131786142Y-112483592D01*
X131786142Y-112483592D02*
X131821856Y-112555021D01*
X131821856Y-112555021D02*
X131821856Y-112662164D01*
X131821856Y-112662164D02*
X131786142Y-112733592D01*
X131786142Y-112733592D02*
X131750428Y-112769307D01*
X131750428Y-112769307D02*
X131678999Y-112805021D01*
X131678999Y-112805021D02*
X131393285Y-112805021D01*
X132536142Y-113162164D02*
X132107571Y-113162164D01*
X132321856Y-113162164D02*
X132321856Y-112412164D01*
X132321856Y-112412164D02*
X132250428Y-112519307D01*
X132250428Y-112519307D02*
X132178999Y-112590735D01*
X132178999Y-112590735D02*
X132107571Y-112626450D01*
X132786142Y-112412164D02*
X133250428Y-112412164D01*
X133250428Y-112412164D02*
X133000428Y-112697878D01*
X133000428Y-112697878D02*
X133107571Y-112697878D01*
X133107571Y-112697878D02*
X133179000Y-112733592D01*
X133179000Y-112733592D02*
X133214714Y-112769307D01*
X133214714Y-112769307D02*
X133250428Y-112840735D01*
X133250428Y-112840735D02*
X133250428Y-113019307D01*
X133250428Y-113019307D02*
X133214714Y-113090735D01*
X133214714Y-113090735D02*
X133179000Y-113126450D01*
X133179000Y-113126450D02*
X133107571Y-113162164D01*
X133107571Y-113162164D02*
X132893285Y-113162164D01*
X132893285Y-113162164D02*
X132821857Y-113126450D01*
X132821857Y-113126450D02*
X132786142Y-113090735D01*
X168525285Y-76586164D02*
X168525285Y-75836164D01*
X168525285Y-75836164D02*
X168810999Y-75836164D01*
X168810999Y-75836164D02*
X168882428Y-75871878D01*
X168882428Y-75871878D02*
X168918142Y-75907592D01*
X168918142Y-75907592D02*
X168953856Y-75979021D01*
X168953856Y-75979021D02*
X168953856Y-76086164D01*
X168953856Y-76086164D02*
X168918142Y-76157592D01*
X168918142Y-76157592D02*
X168882428Y-76193307D01*
X168882428Y-76193307D02*
X168810999Y-76229021D01*
X168810999Y-76229021D02*
X168525285Y-76229021D01*
X169703856Y-76514735D02*
X169668142Y-76550450D01*
X169668142Y-76550450D02*
X169560999Y-76586164D01*
X169560999Y-76586164D02*
X169489571Y-76586164D01*
X169489571Y-76586164D02*
X169382428Y-76550450D01*
X169382428Y-76550450D02*
X169310999Y-76479021D01*
X169310999Y-76479021D02*
X169275285Y-76407592D01*
X169275285Y-76407592D02*
X169239571Y-76264735D01*
X169239571Y-76264735D02*
X169239571Y-76157592D01*
X169239571Y-76157592D02*
X169275285Y-76014735D01*
X169275285Y-76014735D02*
X169310999Y-75943307D01*
X169310999Y-75943307D02*
X169382428Y-75871878D01*
X169382428Y-75871878D02*
X169489571Y-75836164D01*
X169489571Y-75836164D02*
X169560999Y-75836164D01*
X169560999Y-75836164D02*
X169668142Y-75871878D01*
X169668142Y-75871878D02*
X169703856Y-75907592D01*
X169953856Y-75836164D02*
X170418142Y-75836164D01*
X170418142Y-75836164D02*
X170168142Y-76121878D01*
X170168142Y-76121878D02*
X170275285Y-76121878D01*
X170275285Y-76121878D02*
X170346714Y-76157592D01*
X170346714Y-76157592D02*
X170382428Y-76193307D01*
X170382428Y-76193307D02*
X170418142Y-76264735D01*
X170418142Y-76264735D02*
X170418142Y-76443307D01*
X170418142Y-76443307D02*
X170382428Y-76514735D01*
X170382428Y-76514735D02*
X170346714Y-76550450D01*
X170346714Y-76550450D02*
X170275285Y-76586164D01*
X170275285Y-76586164D02*
X170060999Y-76586164D01*
X170060999Y-76586164D02*
X169989571Y-76550450D01*
X169989571Y-76550450D02*
X169953856Y-76514735D01*
X171275285Y-75800450D02*
X170632428Y-76764735D01*
X171525285Y-76586164D02*
X171525285Y-75836164D01*
X171525285Y-75836164D02*
X171810999Y-75836164D01*
X171810999Y-75836164D02*
X171882428Y-75871878D01*
X171882428Y-75871878D02*
X171918142Y-75907592D01*
X171918142Y-75907592D02*
X171953856Y-75979021D01*
X171953856Y-75979021D02*
X171953856Y-76086164D01*
X171953856Y-76086164D02*
X171918142Y-76157592D01*
X171918142Y-76157592D02*
X171882428Y-76193307D01*
X171882428Y-76193307D02*
X171810999Y-76229021D01*
X171810999Y-76229021D02*
X171525285Y-76229021D01*
X172239571Y-75907592D02*
X172275285Y-75871878D01*
X172275285Y-75871878D02*
X172346714Y-75836164D01*
X172346714Y-75836164D02*
X172525285Y-75836164D01*
X172525285Y-75836164D02*
X172596714Y-75871878D01*
X172596714Y-75871878D02*
X172632428Y-75907592D01*
X172632428Y-75907592D02*
X172668142Y-75979021D01*
X172668142Y-75979021D02*
X172668142Y-76050450D01*
X172668142Y-76050450D02*
X172632428Y-76157592D01*
X172632428Y-76157592D02*
X172203856Y-76586164D01*
X172203856Y-76586164D02*
X172668142Y-76586164D01*
X173346714Y-75836164D02*
X172989571Y-75836164D01*
X172989571Y-75836164D02*
X172953857Y-76193307D01*
X172953857Y-76193307D02*
X172989571Y-76157592D01*
X172989571Y-76157592D02*
X173061000Y-76121878D01*
X173061000Y-76121878D02*
X173239571Y-76121878D01*
X173239571Y-76121878D02*
X173311000Y-76157592D01*
X173311000Y-76157592D02*
X173346714Y-76193307D01*
X173346714Y-76193307D02*
X173382428Y-76264735D01*
X173382428Y-76264735D02*
X173382428Y-76443307D01*
X173382428Y-76443307D02*
X173346714Y-76514735D01*
X173346714Y-76514735D02*
X173311000Y-76550450D01*
X173311000Y-76550450D02*
X173239571Y-76586164D01*
X173239571Y-76586164D02*
X173061000Y-76586164D01*
X173061000Y-76586164D02*
X172989571Y-76550450D01*
X172989571Y-76550450D02*
X172953857Y-76514735D01*
X128393285Y-100970164D02*
X128393285Y-100220164D01*
X128393285Y-100220164D02*
X128678999Y-100220164D01*
X128678999Y-100220164D02*
X128750428Y-100255878D01*
X128750428Y-100255878D02*
X128786142Y-100291592D01*
X128786142Y-100291592D02*
X128821856Y-100363021D01*
X128821856Y-100363021D02*
X128821856Y-100470164D01*
X128821856Y-100470164D02*
X128786142Y-100541592D01*
X128786142Y-100541592D02*
X128750428Y-100577307D01*
X128750428Y-100577307D02*
X128678999Y-100613021D01*
X128678999Y-100613021D02*
X128393285Y-100613021D01*
X129393285Y-100577307D02*
X129500428Y-100613021D01*
X129500428Y-100613021D02*
X129536142Y-100648735D01*
X129536142Y-100648735D02*
X129571856Y-100720164D01*
X129571856Y-100720164D02*
X129571856Y-100827307D01*
X129571856Y-100827307D02*
X129536142Y-100898735D01*
X129536142Y-100898735D02*
X129500428Y-100934450D01*
X129500428Y-100934450D02*
X129428999Y-100970164D01*
X129428999Y-100970164D02*
X129143285Y-100970164D01*
X129143285Y-100970164D02*
X129143285Y-100220164D01*
X129143285Y-100220164D02*
X129393285Y-100220164D01*
X129393285Y-100220164D02*
X129464714Y-100255878D01*
X129464714Y-100255878D02*
X129500428Y-100291592D01*
X129500428Y-100291592D02*
X129536142Y-100363021D01*
X129536142Y-100363021D02*
X129536142Y-100434450D01*
X129536142Y-100434450D02*
X129500428Y-100505878D01*
X129500428Y-100505878D02*
X129464714Y-100541592D01*
X129464714Y-100541592D02*
X129393285Y-100577307D01*
X129393285Y-100577307D02*
X129143285Y-100577307D01*
X129821856Y-100220164D02*
X130321856Y-100220164D01*
X130321856Y-100220164D02*
X130000428Y-100970164D01*
X131143285Y-100184450D02*
X130500428Y-101148735D01*
X131393285Y-100970164D02*
X131393285Y-100220164D01*
X131393285Y-100220164D02*
X131678999Y-100220164D01*
X131678999Y-100220164D02*
X131750428Y-100255878D01*
X131750428Y-100255878D02*
X131786142Y-100291592D01*
X131786142Y-100291592D02*
X131821856Y-100363021D01*
X131821856Y-100363021D02*
X131821856Y-100470164D01*
X131821856Y-100470164D02*
X131786142Y-100541592D01*
X131786142Y-100541592D02*
X131750428Y-100577307D01*
X131750428Y-100577307D02*
X131678999Y-100613021D01*
X131678999Y-100613021D02*
X131393285Y-100613021D01*
X132536142Y-100970164D02*
X132107571Y-100970164D01*
X132321856Y-100970164D02*
X132321856Y-100220164D01*
X132321856Y-100220164D02*
X132250428Y-100327307D01*
X132250428Y-100327307D02*
X132178999Y-100398735D01*
X132178999Y-100398735D02*
X132107571Y-100434450D01*
X133000428Y-100220164D02*
X133071857Y-100220164D01*
X133071857Y-100220164D02*
X133143285Y-100255878D01*
X133143285Y-100255878D02*
X133179000Y-100291592D01*
X133179000Y-100291592D02*
X133214714Y-100363021D01*
X133214714Y-100363021D02*
X133250428Y-100505878D01*
X133250428Y-100505878D02*
X133250428Y-100684450D01*
X133250428Y-100684450D02*
X133214714Y-100827307D01*
X133214714Y-100827307D02*
X133179000Y-100898735D01*
X133179000Y-100898735D02*
X133143285Y-100934450D01*
X133143285Y-100934450D02*
X133071857Y-100970164D01*
X133071857Y-100970164D02*
X133000428Y-100970164D01*
X133000428Y-100970164D02*
X132929000Y-100934450D01*
X132929000Y-100934450D02*
X132893285Y-100898735D01*
X132893285Y-100898735D02*
X132857571Y-100827307D01*
X132857571Y-100827307D02*
X132821857Y-100684450D01*
X132821857Y-100684450D02*
X132821857Y-100505878D01*
X132821857Y-100505878D02*
X132857571Y-100363021D01*
X132857571Y-100363021D02*
X132893285Y-100291592D01*
X132893285Y-100291592D02*
X132929000Y-100255878D01*
X132929000Y-100255878D02*
X133000428Y-100220164D01*
X129107571Y-92127878D02*
X129036143Y-92092164D01*
X129036143Y-92092164D02*
X128929000Y-92092164D01*
X128929000Y-92092164D02*
X128821857Y-92127878D01*
X128821857Y-92127878D02*
X128750428Y-92199307D01*
X128750428Y-92199307D02*
X128714714Y-92270735D01*
X128714714Y-92270735D02*
X128679000Y-92413592D01*
X128679000Y-92413592D02*
X128679000Y-92520735D01*
X128679000Y-92520735D02*
X128714714Y-92663592D01*
X128714714Y-92663592D02*
X128750428Y-92735021D01*
X128750428Y-92735021D02*
X128821857Y-92806450D01*
X128821857Y-92806450D02*
X128929000Y-92842164D01*
X128929000Y-92842164D02*
X129000428Y-92842164D01*
X129000428Y-92842164D02*
X129107571Y-92806450D01*
X129107571Y-92806450D02*
X129143285Y-92770735D01*
X129143285Y-92770735D02*
X129143285Y-92520735D01*
X129143285Y-92520735D02*
X129000428Y-92520735D01*
X129464714Y-92842164D02*
X129464714Y-92092164D01*
X129464714Y-92092164D02*
X129893285Y-92842164D01*
X129893285Y-92842164D02*
X129893285Y-92092164D01*
X130250428Y-92842164D02*
X130250428Y-92092164D01*
X130250428Y-92092164D02*
X130428999Y-92092164D01*
X130428999Y-92092164D02*
X130536142Y-92127878D01*
X130536142Y-92127878D02*
X130607571Y-92199307D01*
X130607571Y-92199307D02*
X130643285Y-92270735D01*
X130643285Y-92270735D02*
X130678999Y-92413592D01*
X130678999Y-92413592D02*
X130678999Y-92520735D01*
X130678999Y-92520735D02*
X130643285Y-92663592D01*
X130643285Y-92663592D02*
X130607571Y-92735021D01*
X130607571Y-92735021D02*
X130536142Y-92806450D01*
X130536142Y-92806450D02*
X130428999Y-92842164D01*
X130428999Y-92842164D02*
X130250428Y-92842164D01*
X131536142Y-92056450D02*
X130893285Y-93020735D01*
X131786142Y-92842164D02*
X131786142Y-92092164D01*
X131786142Y-92092164D02*
X132071856Y-92092164D01*
X132071856Y-92092164D02*
X132143285Y-92127878D01*
X132143285Y-92127878D02*
X132178999Y-92163592D01*
X132178999Y-92163592D02*
X132214713Y-92235021D01*
X132214713Y-92235021D02*
X132214713Y-92342164D01*
X132214713Y-92342164D02*
X132178999Y-92413592D01*
X132178999Y-92413592D02*
X132143285Y-92449307D01*
X132143285Y-92449307D02*
X132071856Y-92485021D01*
X132071856Y-92485021D02*
X131786142Y-92485021D01*
X132643285Y-92413592D02*
X132571856Y-92377878D01*
X132571856Y-92377878D02*
X132536142Y-92342164D01*
X132536142Y-92342164D02*
X132500428Y-92270735D01*
X132500428Y-92270735D02*
X132500428Y-92235021D01*
X132500428Y-92235021D02*
X132536142Y-92163592D01*
X132536142Y-92163592D02*
X132571856Y-92127878D01*
X132571856Y-92127878D02*
X132643285Y-92092164D01*
X132643285Y-92092164D02*
X132786142Y-92092164D01*
X132786142Y-92092164D02*
X132857571Y-92127878D01*
X132857571Y-92127878D02*
X132893285Y-92163592D01*
X132893285Y-92163592D02*
X132928999Y-92235021D01*
X132928999Y-92235021D02*
X132928999Y-92270735D01*
X132928999Y-92270735D02*
X132893285Y-92342164D01*
X132893285Y-92342164D02*
X132857571Y-92377878D01*
X132857571Y-92377878D02*
X132786142Y-92413592D01*
X132786142Y-92413592D02*
X132643285Y-92413592D01*
X132643285Y-92413592D02*
X132571856Y-92449307D01*
X132571856Y-92449307D02*
X132536142Y-92485021D01*
X132536142Y-92485021D02*
X132500428Y-92556450D01*
X132500428Y-92556450D02*
X132500428Y-92699307D01*
X132500428Y-92699307D02*
X132536142Y-92770735D01*
X132536142Y-92770735D02*
X132571856Y-92806450D01*
X132571856Y-92806450D02*
X132643285Y-92842164D01*
X132643285Y-92842164D02*
X132786142Y-92842164D01*
X132786142Y-92842164D02*
X132857571Y-92806450D01*
X132857571Y-92806450D02*
X132893285Y-92770735D01*
X132893285Y-92770735D02*
X132928999Y-92699307D01*
X132928999Y-92699307D02*
X132928999Y-92556450D01*
X132928999Y-92556450D02*
X132893285Y-92485021D01*
X132893285Y-92485021D02*
X132857571Y-92449307D01*
X132857571Y-92449307D02*
X132786142Y-92413592D01*
D12*
%TO.C,PD4/P6*%
X136068000Y-84375000D02*
G75*
G03*
X136068000Y-84375000I-1200000J0D01*
G01*
%TO.C,PB5/P19*%
X167564001Y-100631000D02*
G75*
G03*
X167564001Y-100631000I-1200000J0D01*
G01*
%TO.C,GND/P22*%
X167564002Y-88439000D02*
G75*
G03*
X167564002Y-88439000I-1200000J0D01*
G01*
%TO.C,PD1/P3*%
X136068000Y-72183000D02*
G75*
G03*
X136068000Y-72183000I-1200000J0D01*
G01*
%TO.C,J1*%
X153405999Y-69129000D02*
X153405999Y-104809000D01*
X153405999Y-104809000D02*
X157905999Y-104809000D01*
X154655999Y-69129000D02*
X153405999Y-69129000D01*
X157905999Y-69129000D02*
X156655999Y-69129000D01*
X157905999Y-104809000D02*
X157905999Y-69129000D01*
X154655999Y-69129000D02*
G75*
G03*
X156655999Y-69129000I1000000J0D01*
G01*
%TO.C,AVCC/P20*%
X167564001Y-96567000D02*
G75*
G03*
X167564001Y-96567000I-1200000J0D01*
G01*
%TO.C,PC2/P24*%
X167564001Y-80311000D02*
G75*
G03*
X167564001Y-80311000I-1200000J0D01*
G01*
%TO.C,PD5/P11*%
X136068001Y-104695000D02*
G75*
G03*
X136068001Y-104695000I-1200000J0D01*
G01*
%TO.C,PCS/P28*%
X167564000Y-64055000D02*
G75*
G03*
X167564000Y-64055000I-1200000J0D01*
G01*
%TO.C,PD0/P2*%
X136068003Y-68104999D02*
G75*
G03*
X136068003Y-68104999I-1200000J0D01*
G01*
%TO.C,R2*%
X139472000Y-69089002D02*
X146012000Y-69089002D01*
X139472000Y-69419002D02*
X139472000Y-69089002D01*
X139472000Y-71499002D02*
X139472000Y-71829002D01*
X139472000Y-71829002D02*
X146012000Y-71829002D01*
X146012000Y-69089002D02*
X146012000Y-69419002D01*
X146012000Y-71829002D02*
X146012000Y-71499002D01*
%TO.C,PB3/P17*%
X167564001Y-108759000D02*
G75*
G03*
X167564001Y-108759000I-1200000J0D01*
G01*
%TO.C,PB1/P15*%
X167564002Y-116887000D02*
G75*
G03*
X167564002Y-116887000I-1200000J0D01*
G01*
%TO.C,PD2/P4*%
X136068000Y-76247000D02*
G75*
G03*
X136068000Y-76247000I-1200000J0D01*
G01*
%TO.C,AREF/P21*%
X167564001Y-92503000D02*
G75*
G03*
X167564001Y-92503000I-1200000J0D01*
G01*
%TO.C,PB6/P9*%
X136068002Y-96567000D02*
G75*
G03*
X136068002Y-96567000I-1200000J0D01*
G01*
%TO.C,PD4/P27*%
X167564001Y-68104999D02*
G75*
G03*
X167564001Y-68104999I-1200000J0D01*
G01*
%TO.C,PD6/P12*%
X136068000Y-108759000D02*
G75*
G03*
X136068000Y-108759000I-1200000J0D01*
G01*
%TO.C,PD3/P26*%
X167564003Y-72183000D02*
G75*
G03*
X167564003Y-72183000I-1200000J0D01*
G01*
%TO.C,C1*%
X140472000Y-79549001D02*
X140472000Y-79564001D01*
X140472000Y-79549001D02*
X145012000Y-79549001D01*
X140472000Y-81674001D02*
X140472000Y-81689001D01*
X140472000Y-81689001D02*
X145012000Y-81689001D01*
X145012000Y-79549001D02*
X145012000Y-79564001D01*
X145012000Y-81674001D02*
X145012000Y-81689001D01*
%TO.C,PB4/P18*%
X167564002Y-104695000D02*
G75*
G03*
X167564002Y-104695000I-1200000J0D01*
G01*
%TO.C,R1*%
X146011998Y-76908999D02*
X139471998Y-76908999D01*
X146011998Y-76578999D02*
X146011998Y-76908999D01*
X146011998Y-74498999D02*
X146011998Y-74168999D01*
X146011998Y-74168999D02*
X139471998Y-74168999D01*
X139471998Y-76908999D02*
X139471998Y-76578999D01*
X139471998Y-74168999D02*
X139471998Y-74498999D01*
%TO.C,PB0/P14*%
X136068002Y-116887000D02*
G75*
G03*
X136068002Y-116887000I-1200000J0D01*
G01*
%TO.C,PC6/P1*%
X136068000Y-64055000D02*
G75*
G03*
X136068000Y-64055000I-1200000J0D01*
G01*
%TO.C,PCO/P23*%
X167564001Y-84375000D02*
G75*
G03*
X167564001Y-84375000I-1200000J0D01*
G01*
%TO.C,VCC/P7*%
X136068000Y-88439000D02*
G75*
G03*
X136068000Y-88439000I-1200000J0D01*
G01*
%TO.C,PB2/P16*%
X167564002Y-112823000D02*
G75*
G03*
X167564002Y-112823000I-1200000J0D01*
G01*
%TO.C,REF\u002A\u002A*%
D13*
X144235822Y-116094822D02*
X140715029Y-116094822D01*
X140715029Y-115227198D01*
X144235822Y-115227198D01*
X144235822Y-116094822D01*
G36*
X144235822Y-116094822D02*
G01*
X140715029Y-116094822D01*
X140715029Y-115227198D01*
X144235822Y-115227198D01*
X144235822Y-116094822D01*
G37*
X144612430Y-110141848D02*
X144611811Y-110228931D01*
X144160086Y-110687891D01*
X143708361Y-111146852D01*
X143708032Y-111357471D01*
X143707703Y-111568089D01*
X143432610Y-111568089D01*
X143425522Y-111621530D01*
X143422838Y-111645888D01*
X143418313Y-111691759D01*
X143412191Y-111756405D01*
X143404712Y-111837091D01*
X143396119Y-111931081D01*
X143386654Y-112035637D01*
X143376558Y-112148025D01*
X143366074Y-112265507D01*
X143355444Y-112385348D01*
X143344909Y-112504811D01*
X143334713Y-112621159D01*
X143325095Y-112731657D01*
X143316300Y-112833569D01*
X143308568Y-112924158D01*
X143302142Y-113000687D01*
X143297263Y-113060421D01*
X143294175Y-113100624D01*
X143293117Y-113118559D01*
X143293118Y-113118644D01*
X143300827Y-113133035D01*
X143323981Y-113162748D01*
X143362895Y-113208131D01*
X143417884Y-113269529D01*
X143489264Y-113347288D01*
X143577349Y-113441754D01*
X143682454Y-113553272D01*
X143804895Y-113682188D01*
X143839310Y-113718287D01*
X144385137Y-114290416D01*
X144296881Y-114378436D01*
X144225485Y-114300758D01*
X144199366Y-114272686D01*
X144158566Y-114229274D01*
X144105777Y-114173366D01*
X144043691Y-114107808D01*
X143975000Y-114035441D01*
X143902396Y-113959112D01*
X143858960Y-113913524D01*
X143777416Y-113828119D01*
X143711504Y-113759710D01*
X143659544Y-113707053D01*
X143619855Y-113668905D01*
X143590757Y-113644020D01*
X143570569Y-113631156D01*
X143557610Y-113629068D01*
X143550200Y-113636513D01*
X143546658Y-113652246D01*
X143545303Y-113675023D01*
X143545121Y-113681239D01*
X143535703Y-113724061D01*
X143512497Y-113775819D01*
X143480136Y-113828328D01*
X143443252Y-113873403D01*
X143428493Y-113887328D01*
X143352767Y-113936047D01*
X143264308Y-113963306D01*
X143186100Y-113969773D01*
X143097468Y-113957576D01*
X143015612Y-113921813D01*
X142943164Y-113863722D01*
X142929797Y-113849262D01*
X142880918Y-113793733D01*
X142035326Y-113793733D01*
X142035326Y-113969773D01*
X141808990Y-113969773D01*
X141808990Y-113887531D01*
X141806150Y-113831386D01*
X141796607Y-113792416D01*
X141785009Y-113771219D01*
X141776723Y-113756052D01*
X141769627Y-113734062D01*
X141763252Y-113701987D01*
X141757128Y-113656569D01*
X141750784Y-113594548D01*
X141743750Y-113512662D01*
X141738934Y-113451746D01*
X141716839Y-113166343D01*
X141174435Y-113715805D01*
X141076363Y-113815228D01*
X140982216Y-113910815D01*
X140893715Y-114000810D01*
X140812580Y-114083457D01*
X140740531Y-114157001D01*
X140679288Y-114219684D01*
X140630573Y-114269752D01*
X140596104Y-114305448D01*
X140577621Y-114324995D01*
X140547257Y-114355944D01*
X140521929Y-114377530D01*
X140508305Y-114384723D01*
X140490905Y-114376297D01*
X140465540Y-114355245D01*
X140456942Y-114346671D01*
X140420486Y-114308620D01*
X140621198Y-114104658D01*
X140672404Y-114052699D01*
X140738431Y-113985820D01*
X140816382Y-113906950D01*
X140903362Y-113819014D01*
X140996474Y-113724941D01*
X141092821Y-113627658D01*
X141189508Y-113530093D01*
X141258866Y-113460145D01*
X141364297Y-113353550D01*
X141452871Y-113263307D01*
X141525719Y-113188192D01*
X141583977Y-113126986D01*
X141628775Y-113078466D01*
X141650979Y-113053129D01*
X141829276Y-113053129D01*
X141851599Y-113338555D01*
X141858331Y-113422219D01*
X141864843Y-113498727D01*
X141870766Y-113564081D01*
X141875732Y-113614281D01*
X141879371Y-113645329D01*
X141880542Y-113652273D01*
X141887162Y-113680565D01*
X142836636Y-113680565D01*
X142842974Y-113601606D01*
X142862110Y-113508315D01*
X142902154Y-113425791D01*
X142960582Y-113357038D01*
X143034871Y-113305063D01*
X143118252Y-113273863D01*
X143145302Y-113259228D01*
X143158844Y-113227819D01*
X143159128Y-113226434D01*
X143160753Y-113213174D01*
X143158744Y-113199595D01*
X143151142Y-113183181D01*
X143135984Y-113161411D01*
X143111312Y-113131767D01*
X143075164Y-113091732D01*
X143025580Y-113038785D01*
X142960599Y-112970409D01*
X142956401Y-112966005D01*
X142886507Y-112892611D01*
X142812200Y-112814437D01*
X142738586Y-112736864D01*
X142670771Y-112665275D01*
X142613860Y-112605051D01*
X142601168Y-112591587D01*
X142552513Y-112540820D01*
X142509291Y-112497375D01*
X142474605Y-112464241D01*
X142451556Y-112444405D01*
X142443818Y-112440046D01*
X142432278Y-112449170D01*
X142405290Y-112474200D01*
X142364979Y-112513052D01*
X142313471Y-112563643D01*
X142252891Y-112623888D01*
X142185364Y-112691704D01*
X142130174Y-112747565D01*
X141829276Y-113053129D01*
X141650979Y-113053129D01*
X141661249Y-113041411D01*
X141682529Y-113014599D01*
X141693749Y-112996808D01*
X141696246Y-112988570D01*
X141695300Y-112970590D01*
X141692427Y-112929892D01*
X141687813Y-112868819D01*
X141681642Y-112789713D01*
X141674102Y-112694914D01*
X141665379Y-112586767D01*
X141655657Y-112467612D01*
X141645124Y-112339791D01*
X141636635Y-112237635D01*
X141588604Y-111661674D01*
X141712195Y-111661674D01*
X141712727Y-111674104D01*
X141715231Y-111709110D01*
X141719504Y-111764215D01*
X141725347Y-111836943D01*
X141732557Y-111924814D01*
X141740934Y-112025351D01*
X141750277Y-112136077D01*
X141759242Y-112241205D01*
X141769398Y-112360483D01*
X141778858Y-112473080D01*
X141787404Y-112576305D01*
X141794821Y-112667473D01*
X141800892Y-112743895D01*
X141805399Y-112802883D01*
X141808127Y-112841749D01*
X141808884Y-112856844D01*
X141810065Y-112866238D01*
X141814744Y-112869966D01*
X141824724Y-112866471D01*
X141841810Y-112854199D01*
X141867804Y-112831594D01*
X141904510Y-112797100D01*
X141953733Y-112749162D01*
X142017274Y-112686224D01*
X142084695Y-112618968D01*
X142360399Y-112343477D01*
X142358467Y-112341406D01*
X142540710Y-112341406D01*
X142549016Y-112352780D01*
X142572267Y-112379563D01*
X142608135Y-112419292D01*
X142654287Y-112469507D01*
X142708394Y-112527746D01*
X142768126Y-112591547D01*
X142831152Y-112658449D01*
X142895142Y-112725990D01*
X142957764Y-112791710D01*
X143016690Y-112853146D01*
X143069588Y-112907837D01*
X143114128Y-112953322D01*
X143147980Y-112987138D01*
X143168812Y-113006826D01*
X143174494Y-113010837D01*
X143176366Y-112997891D01*
X143180254Y-112962134D01*
X143185943Y-112905804D01*
X143193219Y-112831140D01*
X143201869Y-112740380D01*
X143211678Y-112635762D01*
X143222434Y-112519526D01*
X143233921Y-112393908D01*
X143243093Y-112292618D01*
X143254826Y-112161279D01*
X143265665Y-112037552D01*
X143275430Y-111923681D01*
X143283937Y-111821911D01*
X143291005Y-111734487D01*
X143296451Y-111663653D01*
X143300092Y-111611653D01*
X143301747Y-111580732D01*
X143301558Y-111572703D01*
X143291666Y-111579854D01*
X143266476Y-111602841D01*
X143228190Y-111639439D01*
X143179011Y-111687422D01*
X143121139Y-111744566D01*
X143056778Y-111808647D01*
X142988129Y-111877438D01*
X142917395Y-111948716D01*
X142846778Y-112020255D01*
X142778480Y-112089830D01*
X142714704Y-112155217D01*
X142657650Y-112214191D01*
X142609522Y-112264527D01*
X142572522Y-112303999D01*
X142548852Y-112330383D01*
X142540710Y-112341406D01*
X142358467Y-112341406D01*
X142257591Y-112233295D01*
X142205232Y-112177377D01*
X142146465Y-112114948D01*
X142083615Y-112048443D01*
X142019005Y-111980298D01*
X141954958Y-111912948D01*
X141893797Y-111848828D01*
X141837847Y-111790372D01*
X141789430Y-111740018D01*
X141750870Y-111700198D01*
X141724491Y-111673350D01*
X141712616Y-111661908D01*
X141712195Y-111661674D01*
X141588604Y-111661674D01*
X141576599Y-111517726D01*
X140976062Y-110886158D01*
X140375525Y-110254589D01*
X140375966Y-110166315D01*
X140376408Y-110078040D01*
X140473417Y-110181666D01*
X140527709Y-110239463D01*
X140591808Y-110307368D01*
X140663984Y-110383572D01*
X140742508Y-110466269D01*
X140825651Y-110553653D01*
X140911681Y-110643915D01*
X140998870Y-110735250D01*
X141085487Y-110825849D01*
X141169803Y-110913907D01*
X141250088Y-110997615D01*
X141324613Y-111075167D01*
X141391646Y-111144757D01*
X141449459Y-111204576D01*
X141496321Y-111252818D01*
X141530504Y-111287676D01*
X141550276Y-111307343D01*
X141554610Y-111311116D01*
X141554908Y-111297992D01*
X141553269Y-111264389D01*
X141549977Y-111214880D01*
X141545318Y-111154037D01*
X141543318Y-111129732D01*
X141528423Y-110951951D01*
X141645045Y-110951951D01*
X141651066Y-110980243D01*
X141654137Y-111002618D01*
X141658452Y-111044717D01*
X141663512Y-111101178D01*
X141668819Y-111166635D01*
X141670656Y-111190862D01*
X141676073Y-111260421D01*
X141681541Y-111325018D01*
X141686512Y-111378548D01*
X141690439Y-111414910D01*
X141691325Y-111421509D01*
X141694666Y-111435056D01*
X141701899Y-111450914D01*
X141714560Y-111470861D01*
X141734189Y-111496673D01*
X141762322Y-111530129D01*
X141800498Y-111573007D01*
X141850254Y-111627083D01*
X141913129Y-111694136D01*
X141990659Y-111775943D01*
X142069749Y-111858950D01*
X142148436Y-111941094D01*
X142221888Y-112017169D01*
X142288276Y-112085325D01*
X142345773Y-112143712D01*
X142392549Y-112190481D01*
X142426776Y-112223782D01*
X142446627Y-112241767D01*
X142450860Y-112244442D01*
X142461997Y-112234741D01*
X142488029Y-112209441D01*
X142526430Y-112171082D01*
X142574672Y-112122200D01*
X142630230Y-112065334D01*
X142670408Y-112023906D01*
X142880169Y-111807000D01*
X142261663Y-111807000D01*
X142261663Y-111568089D01*
X143016119Y-111568089D01*
X143016119Y-111674542D01*
X143154435Y-111536654D01*
X143252553Y-111438840D01*
X143443643Y-111438840D01*
X143445471Y-111454270D01*
X143454723Y-111462867D01*
X143477050Y-111466613D01*
X143518105Y-111467489D01*
X143525376Y-111467495D01*
X143607109Y-111467495D01*
X143607109Y-111248172D01*
X143525376Y-111329179D01*
X143479270Y-111378428D01*
X143451694Y-111416159D01*
X143443643Y-111438840D01*
X143252553Y-111438840D01*
X143292752Y-111398766D01*
X143292752Y-111275952D01*
X143293137Y-111219450D01*
X143294900Y-111183505D01*
X143298950Y-111163530D01*
X143306199Y-111154937D01*
X143317130Y-111153139D01*
X143329288Y-111150498D01*
X143338273Y-111139912D01*
X143345174Y-111117381D01*
X143351076Y-111078909D01*
X143357065Y-111020498D01*
X143358987Y-110999104D01*
X143363148Y-110951951D01*
X141645045Y-110951951D01*
X141528423Y-110951951D01*
X141368891Y-110951951D01*
X141368891Y-110838782D01*
X141436686Y-110838782D01*
X141476338Y-110837696D01*
X141497884Y-110832454D01*
X141500520Y-110829334D01*
X141639384Y-110829334D01*
X141646692Y-110836462D01*
X141672007Y-110838662D01*
X141689092Y-110838782D01*
X141746119Y-110838782D01*
X141958779Y-110838782D01*
X143373302Y-110838782D01*
X143325458Y-110789786D01*
X143251150Y-110729324D01*
X143159184Y-110682691D01*
X143048002Y-110649249D01*
X142937529Y-110630753D01*
X142865227Y-110622122D01*
X142865227Y-110713040D01*
X142286812Y-110713040D01*
X142286812Y-110609893D01*
X142201935Y-110618496D01*
X142142632Y-110625756D01*
X142079449Y-110635379D01*
X142041614Y-110642252D01*
X141966168Y-110657407D01*
X141962474Y-110748095D01*
X141958779Y-110838782D01*
X141746119Y-110838782D01*
X141746119Y-110788485D01*
X141744456Y-110756976D01*
X141740303Y-110739463D01*
X141738629Y-110738188D01*
X141720013Y-110746254D01*
X141692817Y-110765820D01*
X141665552Y-110789944D01*
X141646733Y-110811682D01*
X141645057Y-110814508D01*
X141639384Y-110829334D01*
X141500520Y-110829334D01*
X141508338Y-110820081D01*
X141512558Y-110806604D01*
X141529781Y-110771627D01*
X141562862Y-110729579D01*
X141606107Y-110686356D01*
X141653826Y-110647854D01*
X141685170Y-110627801D01*
X141720877Y-110605851D01*
X141739181Y-110587411D01*
X141745612Y-110565668D01*
X141746106Y-110552718D01*
X141746106Y-110549575D01*
X142387406Y-110549575D01*
X142387406Y-110612446D01*
X142764633Y-110612446D01*
X142764633Y-110549575D01*
X142387406Y-110549575D01*
X141746106Y-110549575D01*
X141746119Y-110511852D01*
X141851952Y-110511852D01*
X141900645Y-110513029D01*
X141938595Y-110516165D01*
X141959692Y-110520671D01*
X141961977Y-110522495D01*
X141975359Y-110525295D01*
X142007926Y-110524148D01*
X142054084Y-110519393D01*
X142085624Y-110515003D01*
X142142812Y-110506378D01*
X142195114Y-110498591D01*
X142234418Y-110492847D01*
X142245945Y-110491215D01*
X142276063Y-110481888D01*
X142286812Y-110467272D01*
X142290080Y-110461320D01*
X142301770Y-110456778D01*
X142324712Y-110453470D01*
X142361735Y-110451215D01*
X142415668Y-110449834D01*
X142489340Y-110449150D01*
X142576020Y-110448980D01*
X142668529Y-110449077D01*
X142738906Y-110449530D01*
X142790164Y-110450590D01*
X142825320Y-110452503D01*
X142847389Y-110455519D01*
X142859385Y-110459885D01*
X142864324Y-110465849D01*
X142865227Y-110472784D01*
X142872921Y-110494795D01*
X142898121Y-110507321D01*
X142944009Y-110511788D01*
X142952264Y-110511852D01*
X143029973Y-110519868D01*
X143118233Y-110541936D01*
X143209085Y-110575084D01*
X143294570Y-110616339D01*
X143366726Y-110662731D01*
X143376072Y-110670082D01*
X143406533Y-110693998D01*
X143424572Y-110703576D01*
X143437169Y-110700480D01*
X143450100Y-110687704D01*
X143488293Y-110662678D01*
X143537998Y-110653071D01*
X143591524Y-110658067D01*
X143641178Y-110676851D01*
X143679267Y-110708606D01*
X143682025Y-110712297D01*
X143710526Y-110771575D01*
X143715828Y-110832934D01*
X143698518Y-110891427D01*
X143659180Y-110942104D01*
X143654370Y-110946289D01*
X143626440Y-110966167D01*
X143598102Y-110974921D01*
X143558263Y-110975553D01*
X143548311Y-110974992D01*
X143509332Y-110973562D01*
X143489254Y-110976839D01*
X143481985Y-110986728D01*
X143481240Y-110995961D01*
X143479716Y-111022744D01*
X143475935Y-111063025D01*
X143473218Y-111087124D01*
X143469277Y-111125401D01*
X143470916Y-111144996D01*
X143480421Y-111152158D01*
X143497351Y-111153139D01*
X143507392Y-111149901D01*
X143523590Y-111139420D01*
X143547145Y-111120548D01*
X143579257Y-111092135D01*
X143621128Y-111053035D01*
X143673957Y-111002097D01*
X143738945Y-110938173D01*
X143817291Y-110860114D01*
X143910197Y-110766772D01*
X144018863Y-110656998D01*
X144071231Y-110603952D01*
X144613049Y-110054767D01*
X144612430Y-110141848D01*
G36*
X144612430Y-110141848D02*
G01*
X144611811Y-110228931D01*
X144160086Y-110687891D01*
X143708361Y-111146852D01*
X143708032Y-111357471D01*
X143707703Y-111568089D01*
X143432610Y-111568089D01*
X143425522Y-111621530D01*
X143422838Y-111645888D01*
X143418313Y-111691759D01*
X143412191Y-111756405D01*
X143404712Y-111837091D01*
X143396119Y-111931081D01*
X143386654Y-112035637D01*
X143376558Y-112148025D01*
X143366074Y-112265507D01*
X143355444Y-112385348D01*
X143344909Y-112504811D01*
X143334713Y-112621159D01*
X143325095Y-112731657D01*
X143316300Y-112833569D01*
X143308568Y-112924158D01*
X143302142Y-113000687D01*
X143297263Y-113060421D01*
X143294175Y-113100624D01*
X143293117Y-113118559D01*
X143293118Y-113118644D01*
X143300827Y-113133035D01*
X143323981Y-113162748D01*
X143362895Y-113208131D01*
X143417884Y-113269529D01*
X143489264Y-113347288D01*
X143577349Y-113441754D01*
X143682454Y-113553272D01*
X143804895Y-113682188D01*
X143839310Y-113718287D01*
X144385137Y-114290416D01*
X144296881Y-114378436D01*
X144225485Y-114300758D01*
X144199366Y-114272686D01*
X144158566Y-114229274D01*
X144105777Y-114173366D01*
X144043691Y-114107808D01*
X143975000Y-114035441D01*
X143902396Y-113959112D01*
X143858960Y-113913524D01*
X143777416Y-113828119D01*
X143711504Y-113759710D01*
X143659544Y-113707053D01*
X143619855Y-113668905D01*
X143590757Y-113644020D01*
X143570569Y-113631156D01*
X143557610Y-113629068D01*
X143550200Y-113636513D01*
X143546658Y-113652246D01*
X143545303Y-113675023D01*
X143545121Y-113681239D01*
X143535703Y-113724061D01*
X143512497Y-113775819D01*
X143480136Y-113828328D01*
X143443252Y-113873403D01*
X143428493Y-113887328D01*
X143352767Y-113936047D01*
X143264308Y-113963306D01*
X143186100Y-113969773D01*
X143097468Y-113957576D01*
X143015612Y-113921813D01*
X142943164Y-113863722D01*
X142929797Y-113849262D01*
X142880918Y-113793733D01*
X142035326Y-113793733D01*
X142035326Y-113969773D01*
X141808990Y-113969773D01*
X141808990Y-113887531D01*
X141806150Y-113831386D01*
X141796607Y-113792416D01*
X141785009Y-113771219D01*
X141776723Y-113756052D01*
X141769627Y-113734062D01*
X141763252Y-113701987D01*
X141757128Y-113656569D01*
X141750784Y-113594548D01*
X141743750Y-113512662D01*
X141738934Y-113451746D01*
X141716839Y-113166343D01*
X141174435Y-113715805D01*
X141076363Y-113815228D01*
X140982216Y-113910815D01*
X140893715Y-114000810D01*
X140812580Y-114083457D01*
X140740531Y-114157001D01*
X140679288Y-114219684D01*
X140630573Y-114269752D01*
X140596104Y-114305448D01*
X140577621Y-114324995D01*
X140547257Y-114355944D01*
X140521929Y-114377530D01*
X140508305Y-114384723D01*
X140490905Y-114376297D01*
X140465540Y-114355245D01*
X140456942Y-114346671D01*
X140420486Y-114308620D01*
X140621198Y-114104658D01*
X140672404Y-114052699D01*
X140738431Y-113985820D01*
X140816382Y-113906950D01*
X140903362Y-113819014D01*
X140996474Y-113724941D01*
X141092821Y-113627658D01*
X141189508Y-113530093D01*
X141258866Y-113460145D01*
X141364297Y-113353550D01*
X141452871Y-113263307D01*
X141525719Y-113188192D01*
X141583977Y-113126986D01*
X141628775Y-113078466D01*
X141650979Y-113053129D01*
X141829276Y-113053129D01*
X141851599Y-113338555D01*
X141858331Y-113422219D01*
X141864843Y-113498727D01*
X141870766Y-113564081D01*
X141875732Y-113614281D01*
X141879371Y-113645329D01*
X141880542Y-113652273D01*
X141887162Y-113680565D01*
X142836636Y-113680565D01*
X142842974Y-113601606D01*
X142862110Y-113508315D01*
X142902154Y-113425791D01*
X142960582Y-113357038D01*
X143034871Y-113305063D01*
X143118252Y-113273863D01*
X143145302Y-113259228D01*
X143158844Y-113227819D01*
X143159128Y-113226434D01*
X143160753Y-113213174D01*
X143158744Y-113199595D01*
X143151142Y-113183181D01*
X143135984Y-113161411D01*
X143111312Y-113131767D01*
X143075164Y-113091732D01*
X143025580Y-113038785D01*
X142960599Y-112970409D01*
X142956401Y-112966005D01*
X142886507Y-112892611D01*
X142812200Y-112814437D01*
X142738586Y-112736864D01*
X142670771Y-112665275D01*
X142613860Y-112605051D01*
X142601168Y-112591587D01*
X142552513Y-112540820D01*
X142509291Y-112497375D01*
X142474605Y-112464241D01*
X142451556Y-112444405D01*
X142443818Y-112440046D01*
X142432278Y-112449170D01*
X142405290Y-112474200D01*
X142364979Y-112513052D01*
X142313471Y-112563643D01*
X142252891Y-112623888D01*
X142185364Y-112691704D01*
X142130174Y-112747565D01*
X141829276Y-113053129D01*
X141650979Y-113053129D01*
X141661249Y-113041411D01*
X141682529Y-113014599D01*
X141693749Y-112996808D01*
X141696246Y-112988570D01*
X141695300Y-112970590D01*
X141692427Y-112929892D01*
X141687813Y-112868819D01*
X141681642Y-112789713D01*
X141674102Y-112694914D01*
X141665379Y-112586767D01*
X141655657Y-112467612D01*
X141645124Y-112339791D01*
X141636635Y-112237635D01*
X141588604Y-111661674D01*
X141712195Y-111661674D01*
X141712727Y-111674104D01*
X141715231Y-111709110D01*
X141719504Y-111764215D01*
X141725347Y-111836943D01*
X141732557Y-111924814D01*
X141740934Y-112025351D01*
X141750277Y-112136077D01*
X141759242Y-112241205D01*
X141769398Y-112360483D01*
X141778858Y-112473080D01*
X141787404Y-112576305D01*
X141794821Y-112667473D01*
X141800892Y-112743895D01*
X141805399Y-112802883D01*
X141808127Y-112841749D01*
X141808884Y-112856844D01*
X141810065Y-112866238D01*
X141814744Y-112869966D01*
X141824724Y-112866471D01*
X141841810Y-112854199D01*
X141867804Y-112831594D01*
X141904510Y-112797100D01*
X141953733Y-112749162D01*
X142017274Y-112686224D01*
X142084695Y-112618968D01*
X142360399Y-112343477D01*
X142358467Y-112341406D01*
X142540710Y-112341406D01*
X142549016Y-112352780D01*
X142572267Y-112379563D01*
X142608135Y-112419292D01*
X142654287Y-112469507D01*
X142708394Y-112527746D01*
X142768126Y-112591547D01*
X142831152Y-112658449D01*
X142895142Y-112725990D01*
X142957764Y-112791710D01*
X143016690Y-112853146D01*
X143069588Y-112907837D01*
X143114128Y-112953322D01*
X143147980Y-112987138D01*
X143168812Y-113006826D01*
X143174494Y-113010837D01*
X143176366Y-112997891D01*
X143180254Y-112962134D01*
X143185943Y-112905804D01*
X143193219Y-112831140D01*
X143201869Y-112740380D01*
X143211678Y-112635762D01*
X143222434Y-112519526D01*
X143233921Y-112393908D01*
X143243093Y-112292618D01*
X143254826Y-112161279D01*
X143265665Y-112037552D01*
X143275430Y-111923681D01*
X143283937Y-111821911D01*
X143291005Y-111734487D01*
X143296451Y-111663653D01*
X143300092Y-111611653D01*
X143301747Y-111580732D01*
X143301558Y-111572703D01*
X143291666Y-111579854D01*
X143266476Y-111602841D01*
X143228190Y-111639439D01*
X143179011Y-111687422D01*
X143121139Y-111744566D01*
X143056778Y-111808647D01*
X142988129Y-111877438D01*
X142917395Y-111948716D01*
X142846778Y-112020255D01*
X142778480Y-112089830D01*
X142714704Y-112155217D01*
X142657650Y-112214191D01*
X142609522Y-112264527D01*
X142572522Y-112303999D01*
X142548852Y-112330383D01*
X142540710Y-112341406D01*
X142358467Y-112341406D01*
X142257591Y-112233295D01*
X142205232Y-112177377D01*
X142146465Y-112114948D01*
X142083615Y-112048443D01*
X142019005Y-111980298D01*
X141954958Y-111912948D01*
X141893797Y-111848828D01*
X141837847Y-111790372D01*
X141789430Y-111740018D01*
X141750870Y-111700198D01*
X141724491Y-111673350D01*
X141712616Y-111661908D01*
X141712195Y-111661674D01*
X141588604Y-111661674D01*
X141576599Y-111517726D01*
X140976062Y-110886158D01*
X140375525Y-110254589D01*
X140375966Y-110166315D01*
X140376408Y-110078040D01*
X140473417Y-110181666D01*
X140527709Y-110239463D01*
X140591808Y-110307368D01*
X140663984Y-110383572D01*
X140742508Y-110466269D01*
X140825651Y-110553653D01*
X140911681Y-110643915D01*
X140998870Y-110735250D01*
X141085487Y-110825849D01*
X141169803Y-110913907D01*
X141250088Y-110997615D01*
X141324613Y-111075167D01*
X141391646Y-111144757D01*
X141449459Y-111204576D01*
X141496321Y-111252818D01*
X141530504Y-111287676D01*
X141550276Y-111307343D01*
X141554610Y-111311116D01*
X141554908Y-111297992D01*
X141553269Y-111264389D01*
X141549977Y-111214880D01*
X141545318Y-111154037D01*
X141543318Y-111129732D01*
X141528423Y-110951951D01*
X141645045Y-110951951D01*
X141651066Y-110980243D01*
X141654137Y-111002618D01*
X141658452Y-111044717D01*
X141663512Y-111101178D01*
X141668819Y-111166635D01*
X141670656Y-111190862D01*
X141676073Y-111260421D01*
X141681541Y-111325018D01*
X141686512Y-111378548D01*
X141690439Y-111414910D01*
X141691325Y-111421509D01*
X141694666Y-111435056D01*
X141701899Y-111450914D01*
X141714560Y-111470861D01*
X141734189Y-111496673D01*
X141762322Y-111530129D01*
X141800498Y-111573007D01*
X141850254Y-111627083D01*
X141913129Y-111694136D01*
X141990659Y-111775943D01*
X142069749Y-111858950D01*
X142148436Y-111941094D01*
X142221888Y-112017169D01*
X142288276Y-112085325D01*
X142345773Y-112143712D01*
X142392549Y-112190481D01*
X142426776Y-112223782D01*
X142446627Y-112241767D01*
X142450860Y-112244442D01*
X142461997Y-112234741D01*
X142488029Y-112209441D01*
X142526430Y-112171082D01*
X142574672Y-112122200D01*
X142630230Y-112065334D01*
X142670408Y-112023906D01*
X142880169Y-111807000D01*
X142261663Y-111807000D01*
X142261663Y-111568089D01*
X143016119Y-111568089D01*
X143016119Y-111674542D01*
X143154435Y-111536654D01*
X143252553Y-111438840D01*
X143443643Y-111438840D01*
X143445471Y-111454270D01*
X143454723Y-111462867D01*
X143477050Y-111466613D01*
X143518105Y-111467489D01*
X143525376Y-111467495D01*
X143607109Y-111467495D01*
X143607109Y-111248172D01*
X143525376Y-111329179D01*
X143479270Y-111378428D01*
X143451694Y-111416159D01*
X143443643Y-111438840D01*
X143252553Y-111438840D01*
X143292752Y-111398766D01*
X143292752Y-111275952D01*
X143293137Y-111219450D01*
X143294900Y-111183505D01*
X143298950Y-111163530D01*
X143306199Y-111154937D01*
X143317130Y-111153139D01*
X143329288Y-111150498D01*
X143338273Y-111139912D01*
X143345174Y-111117381D01*
X143351076Y-111078909D01*
X143357065Y-111020498D01*
X143358987Y-110999104D01*
X143363148Y-110951951D01*
X141645045Y-110951951D01*
X141528423Y-110951951D01*
X141368891Y-110951951D01*
X141368891Y-110838782D01*
X141436686Y-110838782D01*
X141476338Y-110837696D01*
X141497884Y-110832454D01*
X141500520Y-110829334D01*
X141639384Y-110829334D01*
X141646692Y-110836462D01*
X141672007Y-110838662D01*
X141689092Y-110838782D01*
X141746119Y-110838782D01*
X141958779Y-110838782D01*
X143373302Y-110838782D01*
X143325458Y-110789786D01*
X143251150Y-110729324D01*
X143159184Y-110682691D01*
X143048002Y-110649249D01*
X142937529Y-110630753D01*
X142865227Y-110622122D01*
X142865227Y-110713040D01*
X142286812Y-110713040D01*
X142286812Y-110609893D01*
X142201935Y-110618496D01*
X142142632Y-110625756D01*
X142079449Y-110635379D01*
X142041614Y-110642252D01*
X141966168Y-110657407D01*
X141962474Y-110748095D01*
X141958779Y-110838782D01*
X141746119Y-110838782D01*
X141746119Y-110788485D01*
X141744456Y-110756976D01*
X141740303Y-110739463D01*
X141738629Y-110738188D01*
X141720013Y-110746254D01*
X141692817Y-110765820D01*
X141665552Y-110789944D01*
X141646733Y-110811682D01*
X141645057Y-110814508D01*
X141639384Y-110829334D01*
X141500520Y-110829334D01*
X141508338Y-110820081D01*
X141512558Y-110806604D01*
X141529781Y-110771627D01*
X141562862Y-110729579D01*
X141606107Y-110686356D01*
X141653826Y-110647854D01*
X141685170Y-110627801D01*
X141720877Y-110605851D01*
X141739181Y-110587411D01*
X141745612Y-110565668D01*
X141746106Y-110552718D01*
X141746106Y-110549575D01*
X142387406Y-110549575D01*
X142387406Y-110612446D01*
X142764633Y-110612446D01*
X142764633Y-110549575D01*
X142387406Y-110549575D01*
X141746106Y-110549575D01*
X141746119Y-110511852D01*
X141851952Y-110511852D01*
X141900645Y-110513029D01*
X141938595Y-110516165D01*
X141959692Y-110520671D01*
X141961977Y-110522495D01*
X141975359Y-110525295D01*
X142007926Y-110524148D01*
X142054084Y-110519393D01*
X142085624Y-110515003D01*
X142142812Y-110506378D01*
X142195114Y-110498591D01*
X142234418Y-110492847D01*
X142245945Y-110491215D01*
X142276063Y-110481888D01*
X142286812Y-110467272D01*
X142290080Y-110461320D01*
X142301770Y-110456778D01*
X142324712Y-110453470D01*
X142361735Y-110451215D01*
X142415668Y-110449834D01*
X142489340Y-110449150D01*
X142576020Y-110448980D01*
X142668529Y-110449077D01*
X142738906Y-110449530D01*
X142790164Y-110450590D01*
X142825320Y-110452503D01*
X142847389Y-110455519D01*
X142859385Y-110459885D01*
X142864324Y-110465849D01*
X142865227Y-110472784D01*
X142872921Y-110494795D01*
X142898121Y-110507321D01*
X142944009Y-110511788D01*
X142952264Y-110511852D01*
X143029973Y-110519868D01*
X143118233Y-110541936D01*
X143209085Y-110575084D01*
X143294570Y-110616339D01*
X143366726Y-110662731D01*
X143376072Y-110670082D01*
X143406533Y-110693998D01*
X143424572Y-110703576D01*
X143437169Y-110700480D01*
X143450100Y-110687704D01*
X143488293Y-110662678D01*
X143537998Y-110653071D01*
X143591524Y-110658067D01*
X143641178Y-110676851D01*
X143679267Y-110708606D01*
X143682025Y-110712297D01*
X143710526Y-110771575D01*
X143715828Y-110832934D01*
X143698518Y-110891427D01*
X143659180Y-110942104D01*
X143654370Y-110946289D01*
X143626440Y-110966167D01*
X143598102Y-110974921D01*
X143558263Y-110975553D01*
X143548311Y-110974992D01*
X143509332Y-110973562D01*
X143489254Y-110976839D01*
X143481985Y-110986728D01*
X143481240Y-110995961D01*
X143479716Y-111022744D01*
X143475935Y-111063025D01*
X143473218Y-111087124D01*
X143469277Y-111125401D01*
X143470916Y-111144996D01*
X143480421Y-111152158D01*
X143497351Y-111153139D01*
X143507392Y-111149901D01*
X143523590Y-111139420D01*
X143547145Y-111120548D01*
X143579257Y-111092135D01*
X143621128Y-111053035D01*
X143673957Y-111002097D01*
X143738945Y-110938173D01*
X143817291Y-110860114D01*
X143910197Y-110766772D01*
X144018863Y-110656998D01*
X144071231Y-110603952D01*
X144613049Y-110054767D01*
X144612430Y-110141848D01*
G37*
D12*
%TO.C,PD3/P5*%
X136068000Y-80311000D02*
G75*
G03*
X136068000Y-80311000I-1200000J0D01*
G01*
%TO.C,D1*%
X141506000Y-106309000D02*
X141662000Y-106309000D01*
X143822000Y-106309000D02*
X143978000Y-106309000D01*
X141663392Y-103076666D02*
G75*
G03*
X141506485Y-106308999I1078608J-1672334D01*
G01*
X141662164Y-103707871D02*
G75*
G03*
X141662001Y-105789960I1079836J-1041129D01*
G01*
X143821999Y-105789960D02*
G75*
G03*
X143821836Y-103707871I-1079999J1040960D01*
G01*
X143977515Y-106308999D02*
G75*
G03*
X143820608Y-103076666I-1235515J1559999D01*
G01*
%TO.C,PD7/P13*%
X136068003Y-112823000D02*
G75*
G03*
X136068003Y-112823000I-1200000J0D01*
G01*
%TO.C,Y1*%
X140217000Y-92719000D02*
X140217000Y-86319000D01*
X145267000Y-92719000D02*
X145267000Y-86319000D01*
X140217000Y-92719000D02*
G75*
G03*
X145267000Y-92719000I2525000J0D01*
G01*
X145267000Y-86319000D02*
G75*
G03*
X140217000Y-86319000I-2525000J0D01*
G01*
%TO.C,PC3/P25*%
X167564003Y-76247000D02*
G75*
G03*
X167564003Y-76247000I-1200000J0D01*
G01*
%TO.C,C2*%
X140431999Y-97329000D02*
X140431999Y-97344000D01*
X140431999Y-97329000D02*
X144971999Y-97329000D01*
X140431999Y-99454000D02*
X140431999Y-99469000D01*
X140431999Y-99469000D02*
X144971999Y-99469000D01*
X144971999Y-97329000D02*
X144971999Y-97344000D01*
X144971999Y-99454000D02*
X144971999Y-99469000D01*
%TO.C,PB7/P10*%
X136068000Y-100631000D02*
G75*
G03*
X136068000Y-100631000I-1200000J0D01*
G01*
%TO.C,GND/P8*%
X136067999Y-92503000D02*
G75*
G03*
X136067999Y-92503000I-1200000J0D01*
G01*
%TD*%
M02*
